{
.appVersion = "1148";
DisplayStrings = (
"'\"",
"/quoteright",
"'",
"/quotedblleft hi/quotedblright 'hi' \"hi\" . ",
"(",
"(Hello){Hello}[Hello]",
"#57"
);
classes = (
{
automatic = 1;
code = " onesuperior twosuperior threesuperior ";
name = sups2;
},
{
automatic = 1;
code = " one two three ";
name = sups1;
},
{
automatic = 1;
code = " zero one two three four five six seven eight nine ";
name = ordn1;
},
{
automatic = 1;

glyphs = (
{
color = 4;
glyphname = A;
lastChange = "2018-06-08 17:14:46 +0000";
layers = (
{
anchors = (
{
name = btm;
position = "{329, 0}";
},
{
name = top;
position = "{311, 963}";
}
);
guideLines = (
{
position = "{595, 866}";
}
);
layerId = "184835E3-72D9-430C-A639-2454AC4A0BE8";
paths = (
{
closed = 1;
nodes = (
"129 180 LINE",
"450 180 LINE",
"424 258 LINE",
"151 258 LINE {name = hr00;}"
);
},
{
closed = 1;
nodes = (
"233 642 LINE",
"55 129 LINE SMOOTH",
"40 85 OFFCURVE",
"6 64 OFFCURVE",
"-30 64 CURVE",
"-30 40 OFFCURVE",
"-22 16 OFFCURVE",
"-7 0 CURVE",
"216 0 LINE",
"231 16 OFFCURVE",
"239 40 OFFCURVE",
"239 64 CURVE",
"199 64 OFFCURVE",
"175 79 OFFCURVE",
"175 115 CURVE SMOOTH",
"175 127 OFFCURVE",
"179 142 OFFCURVE",
"184 159 CURVE SMOOTH",
"317 623 LINE"
);
},
{
closed = 1;
nodes = (
"134 698 LINE",
"119 680 OFFCURVE",
"110 654 OFFCURVE",
"110 626 CURVE",
"225 626 OFFCURVE",
"294 591 OFFCURVE",
"318 506 CURVE SMOOTH",
"417 159 LINE SMOOTH",
"422 140 OFFCURVE",
"424 124 OFFCURVE",
"424 112 CURVE SMOOTH",
"424 78 OFFCURVE",
"405 64 OFFCURVE",
"370 64 CURVE",
"370 40 OFFCURVE",
"378 16 OFFCURVE",
"393 0 CURVE",
"664 0 LINE",
"679 16 OFFCURVE",
"687 40 OFFCURVE",
"687 64 CURVE",
"652 64 OFFCURVE",
"615 85 OFFCURVE",
"601 129 CURVE SMOOTH",
"416 698 LINE"
);
}
);
width = 657;
}
);
leftKerningGroup = A;
rightKerningGroup = A;
unicode = 0041;
},
{
glyphname = Aogonek;
lastChange = "2018-06-07 15:02:57 +0000";
layers = (
{
components = (
{
name = A;
}
);
layerId = "184835E3-72D9-430C-A639-2454AC4A0BE8";
paths = (
{
closed = 1;
nodes = (
"622 37 LINE",
"575 37 OFFCURVE",
"438 -5 OFFCURVE",
"438 -119 CURVE SMOOTH",
"438 -197 OFFCURVE",
"503 -227 OFFCURVE",
"562 -227 CURVE SMOOTH",
"607 -227 OFFCURVE",
"646 -212 OFFCURVE",
"662 -196 CURVE SMOOTH",
"675 -183 OFFCURVE",
"679 -165 OFFCURVE",
"679 -147 CURVE SMOOTH",
"679 -135 OFFCURVE",
"677 -119 OFFCURVE",
"671 -111 CURVE",
"660 -120 OFFCURVE",
"633 -128 OFFCURVE",
"607 -128 CURVE SMOOTH",
"577 -128 OFFCURVE",
"547 -118 OFFCURVE",
"547 -91 CURVE SMOOTH",
"547 -49 OFFCURVE",
"575 -12 OFFCURVE",
"633 3 CURVE"
);
}
);
width = 678;
}
);
unicode = 0104;
},
{
glyphname = AE;
lastChange = "2018-06-07 15:02:57 +0000";
layers = (
{
anchors = (
{
name = btm;
position = "{341, -12}";
},
{
name = top;
position = "{341, 963}";
}
);
layerId = "184835E3-72D9-430C-A639-2454AC4A0BE8";
paths = (
{
closed = 1;
nodes = (
"70 147 LINE",
"431 147 LINE",
"405 225 LINE",
"73 225 LINE {name = hr01;}"
);
},
{
closed = 1;
nodes = (
"214 607 LINE",
"-33 111 LINE SMOOTH",
"-52 72 OFFCURVE",
"-85 47 OFFCURVE",
"-120 47 CURVE {name = hr02;}",
"-120 24 OFFCURVE",
"-112 0 OFFCURVE",
"-98 -17 CURVE",
"134 -17 LINE",
"149 0 OFFCURVE",
"157 24 OFFCURVE",
"157 47 CURVE",
"119 47 OFFCURVE",
"95 61 OFFCURVE",
"95 92 CURVE SMOOTH",
"95 105 OFFCURVE",
"99 122 OFFCURVE",
"109 142 CURVE SMOOTH",
"314 579 LINE"
);
},
{
closed = 1;
nodes = (
"44 663 OFFCURVE",
"36 636 OFFCURVE",
"36 609 CURVE",
"49 611 OFFCURVE",
"63 612 OFFCURVE",
"75 612 CURVE SMOOTH",
"143 612 OFFCURVE",
"188 585 OFFCURVE",
"188 544 CURVE SMOOTH",
"188 534 OFFCURVE",
"185 523 OFFCURVE",
"180 511 CURVE {name = hr03;}",
"262 573 LINE",
"314 579 LINE",
"314 98 LINE SMOOTH",
"314 60 OFFCURVE",
"297 46 OFFCURVE",
"253 46 CURVE",
"253 23 OFFCURVE",
"262 0 OFFCURVE",
"276 -17 CURVE {name = hr04;}",
"684 -17 LINE",
"708 -28 OFFCURVE",
"736 -33 OFFCURVE",
"759 -33 CURVE {name = hr05;}",
"778 3 OFFCURVE",
"791 128 OFFCURVE",
"791 167 CURVE",
"709 167 LINE",
"690 111 OFFCURVE",
"652 71 OFFCURVE",
"584 71 CURVE SMOOTH {name = hr06;}",
"427 71 LINE",
"478 42 LINE {name = hr07;}",
"478 325 LINE",
"418 301 LINE",
"561 301 LINE SMOOTH",
"598 301 OFFCURVE",
"626 284 OFFCURVE",
"626 231 CURVE",
"655 231 OFFCURVE",
"684 239 OFFCURVE",
"704 252 CURVE",
"704 428 LINE",
"683 441 OFFCURVE",
"655 449 OFFCURVE",
"626 449 CURVE",
"626 395 OFFCURVE",
"598 374 OFFCURVE",
"561 374 CURVE SMOOTH",
"444 374 LINE {name = hr08;}",
"478 356 LINE",
"478 619 LINE",
"381 596 LINE",
"574 596 LINE SMOOTH",
"627 596 OFFCURVE",
"655 551 OFFCURVE",
"669 508 CURVE",
"694 514 OFFCURVE",
"732 531 OFFCURVE",
"749 546 CURVE",
"749 579 OFFCURVE",
"735 665 OFFCURVE",
"719 698 CURVE",
"694 698 OFFCURVE",
"667 692 OFFCURVE",
"641 681 CURVE",
"58 681 LINE"
);
}
);
width = 801;
}
);
leftKerningGroup = A;
rightKerningGroup = E;
rightMetricsKey = E;
unicode = 00C6;
userData = {
com.typemytype.robofont.guides = (
{
angle = 0;
isGlobal = 0;
magnetic = 5;
x = 0;
y = 1363;
}
);
};
},
{
glyphname = B;
lastChange = "2018-06-08 17:17:29 +0000";
layers = (
{
anchors = (
{
name = btm;
position = "{318, -5}";
},
{
name = top;
position = "{282, 963}";
}
);
layerId = "184835E3-72D9-430C-A639-2454AC4A0BE8";
paths = (
{
closed = 1;
nodes = (
"560 -8 OFFCURVE",
"617 93 OFFCURVE",
"617 196 CURVE SMOOTH",
"617 303 OFFCURVE",
"567 346 OFFCURVE",
"452 370 CURVE",
"544 408 OFFCURVE",
"579 472 OFFCURVE",
"579 547 CURVE SMOOTH",
"579 612 OFFCURVE",
"567 706 OFFCURVE",
"292 706 CURVE SMOOTH",
"231 706 OFFCURVE",
"119 698 OFFCURVE",
"48 698 CURVE",
"34 681 OFFCURVE",
"26 658 OFFCURVE",
"26 635 CURVE",
"71 635 OFFCURVE",
"88 621 OFFCURVE",
"88 584 CURVE SMOOTH",
"88 114 LINE SMOOTH",
"88 77 OFFCURVE",
"71 63 OFFCURVE",
"26 63 CURVE",
"26 40 OFFCURVE",
"34 17 OFFCURVE",
"48 0 CURVE",
"170 0 OFFCURVE",
"248 -8 OFFCURVE",
"311 -8 CURVE SMOOTH"
);
},
{
closed = 1;
nodes = (
"278 65 OFFCURVE",
"262 67 OFFCURVE",
"253 68 CURVE",
"253 321 LINE {name = hr00;}",
"261 321 OFFCURVE",
"275 322 OFFCURVE",
"286 322 CURVE SMOOTH",
"393 322 OFFCURVE",
"435 276 OFFCURVE",
"435 186 CURVE SMOOTH",
"435 107 OFFCURVE",
"389 65 OFFCURVE",
"295 65 CURVE SMOOTH"
);
},
{
closed = 1;
nodes = (
"274 394 OFFCURVE",
"262 395 OFFCURVE",
"253 396 CURVE",
"253 626 LINE",
"263 629 OFFCURVE",
"280 630 OFFCURVE",
"294 630 CURVE SMOOTH",
"379 630 OFFCURVE",
"417 584 OFFCURVE",
"417 512 CURVE SMOOTH",
"417 440 OFFCURVE",
"380 394 OFFCURVE",
"283 394 CURVE SMOOTH"
);
}
);
width = 633;
}
);
leftKerningGroup = H;
leftMetricsKey = H;
rightKerningGroup = B;
unicode = 0042;
userData = {
com.typemytype.robofont.guides = (
{
angle = 0;
isGlobal = 0;
magnetic = 5;
x = 0;
y = 1410;
},
{
angle = 0;
isGlobal = 0;
magnetic = 5;
x = 0;
y = 140;
}
);
};
},
{
glyphname = C;
lastChange = "2018-06-08 17:12:07 +0000";
layers = (
{
anchors = (
{
name = btm;
position = "{289, -5}";
},
{
name = top;
position = "{318, 963}";
}
);
layerId = "184835E3-72D9-430C-A639-2454AC4A0BE8";
paths = (
{
closed = 1;
nodes = (
"552 543 OFFCURVE",
"549 645 OFFCURVE",
"523 709 CURVE",
"502 708 OFFCURVE",
"454 696 OFFCURVE",
"434 687 CURVE",
"406 700 OFFCURVE",
"359 709 OFFCURVE",
"330 709 CURVE SMOOTH",
"145 709 OFFCURVE",
"25 583 OFFCURVE",
"25 348 CURVE SMOOTH",
"25 102 OFFCURVE",
"170 -14 OFFCURVE",
"341 -14 CURVE SMOOTH",
"476 -14 OFFCURVE",
"551 55 OFFCURVE",
"551 102 CURVE SMOOTH",
"551 121 OFFCURVE",
"540 150 OFFCURVE",
"523 162 CURVE",
"506 136 OFFCURVE",
"461 108 OFFCURVE",
"400 108 CURVE SMOOTH",
"293 108 OFFCURVE",
"202 180 OFFCURVE",
"202 387 CURVE SMOOTH",
"202 554 OFFCURVE",
"259 622 OFFCURVE",
"332 622 CURVE SMOOTH",
"400 622 OFFCURVE",
"448 570 OFFCURVE",
"459 483 CURVE",
"552 483 LINE {name = hr00;}"
);
}
);
width = 557;
}
);
leftKerningGroup = O;
leftMetricsKey = O;
rightKerningGroup = C;
unicode = 0043;
},
{
glyphname = D;
lastChange = "2018-06-08 17:08:03 +0000";
layers = (
{
anchors = (
{
name = btm;
position = "{296, 0}";
},
{
name = top;
position = "{329, 963}";
}
);
layerId = "184835E3-72D9-430C-A639-2454AC4A0BE8";
paths = (
{
closed = 1;
nodes = (
"537 -11 OFFCURVE",
"641 159 OFFCURVE",
"641 364 CURVE SMOOTH",
"641 552 OFFCURVE",
"537 710 OFFCURVE",
"306 710 CURVE SMOOTH",
"276 710 OFFCURVE",
"180 698 OFFCURVE",
"48 698 CURVE",
"34 682 OFFCURVE",
"26 659 OFFCURVE",
"26 635 CURVE",
"70 635 OFFCURVE",
"88 621 OFFCURVE",
"88 585 CURVE SMOOTH",
"88 115 LINE SMOOTH",
"88 78 OFFCURVE",
"70 64 OFFCURVE",
"26 64 CURVE",
"26 40 OFFCURVE",
"34 18 OFFCURVE",
"48 0 CURVE",
"193 0 OFFCURVE",
"246 -11 OFFCURVE",
"292 -11 CURVE SMOOTH"
);
},
{
closed = 1;
nodes = (
"274 72 OFFCURVE",
"262 72 OFFCURVE",
"252 74 CURVE",
"252 628 LINE",
"259 630 OFFCURVE",
"267 630 OFFCURVE",
"276 630 CURVE SMOOTH",
"389 630 OFFCURVE",
"463 543 OFFCURVE",
"463 349 CURVE SMOOTH {name = hr00;}",
"463 147 OFFCURVE",
"393 72 OFFCURVE",
"284 72 CURVE SMOOTH"
);
}
);
width = 666;
}
);
leftMetricsKey = H;
rightMetricsKey = O;
unicode = 0044;
},
{
glyphname = E;
lastChange = "2018-06-07 18:19:30 +0000";
layers = (
{
anchors = (
{
name = btm;
position = "{310, -12}";
},
{
name = top;
position = "{310, 963}";
}
);
background = {
paths = (
{
closed = 1;
nodes = (
"217 313 LINE",
"547 313 LINE",
"547 397 LINE",
"217 397 LINE {name = hr00;}"
);
},
{
closed = 1;
nodes = (
"307 16 OFFCURVE",
"316 40 OFFCURVE",
"316 64 CURVE",
"272 64 OFFCURVE",
"256 77 OFFCURVE",
"256 114 CURVE SMOOTH",
"256 584 LINE SMOOTH",
"256 621 OFFCURVE",
"272 635 OFFCURVE",
"316 635 CURVE",
"316 658 OFFCURVE",
"307 682 OFFCURVE",
"294 698 CURVE",
"49 698 LINE",
"35 682 OFFCURVE",
"27 658 OFFCURVE",
"27 635 CURVE {name = hr03;}",
"71 635 OFFCURVE",
"87 621 OFFCURVE",
"87 584 CURVE SMOOTH",
"87 114 LINE SMOOTH",
"87 77 OFFCURVE",
"71 64 OFFCURVE",
"27 64 CURVE",
"27 40 OFFCURVE",
"35 16 OFFCURVE",
"49 0 CURVE {name = hr04;}",
"294 0 LINE"
);
},
{
closed = 1;
nodes = (
"694 16 OFFCURVE",
"702 40 OFFCURVE",
"702 64 CURVE",
"659 64 OFFCURVE",
"643 77 OFFCURVE",
"643 114 CURVE SMOOTH",
"643 584 LINE SMOOTH",
"643 621 OFFCURVE",
"659 635 OFFCURVE",
"702 635 CURVE",
"702 658 OFFCURVE",
"694 682 OFFCURVE",
"680 698 CURVE",
"436 698 LINE",
"422 682 OFFCURVE",
"414 658 OFFCURVE",
"414 635 CURVE",
"457 635 OFFCURVE",
"474 621 OFFCURVE",
"474 584 CURVE SMOOTH",
"474 114 LINE SMOOTH",
"474 77 OFFCURVE",
"457 64 OFFCURVE",
"414 64 CURVE",
"414 40 OFFCURVE",
"422 16 OFFCURVE",
"436 0 CURVE",
"680 0 LINE"
);
}
);
};
layerId = "184835E3-72D9-430C-A639-2454AC4A0BE8";
paths = (
{
closed = 1;
nodes = (
"196 322 LINE",
"327 322 LINE SMOOTH",
"364 322 OFFCURVE",
"392 299 OFFCURVE",
"392 246 CURVE",
"421 246 OFFCURVE",
"451 254 OFFCURVE",
"472 267 CURVE",
"472 451 LINE",
"450 464 OFFCURVE",
"421 472 OFFCURVE",
"391 472 CURVE",
"391 418 OFFCURVE",
"363 399 OFFCURVE",
"326 399 CURVE SMOOTH",
"221 399 LINE {name = hr02;}",
"254 381 LINE",
"254 645 LINE",
"154 613 LINE",
"363 613 LINE SMOOTH",
"416 613 OFFCURVE",
"444 566 OFFCURVE",
"459 522 CURVE",
"483 527 OFFCURVE",
"537 545 OFFCURVE",
"554 561 CURVE",
"554 594 OFFCURVE",
"531 682 OFFCURVE",
"514 715 CURVE",
"489 715 OFFCURVE",
"457 709 OFFCURVE",
"433 698 CURVE",
"49 698 LINE",
"36 681 OFFCURVE",
"26 658 OFFCURVE",
"26 635 CURVE {name = hr03;}",
"70 635 OFFCURVE",
"87 621 OFFCURVE",
"87 584 CURVE SMOOTH",
"87 115 LINE SMOOTH",
"87 77 OFFCURVE",
"70 63 OFFCURVE",
"26 63 CURVE",
"26 40 OFFCURVE",
"36 17 OFFCURVE",
"49 0 CURVE {name = hr04;}",
"507 0 LINE",
"531 -11 OFFCURVE",
"541 -14 OFFCURVE",
"549 -16 CURVE",
"568 20 OFFCURVE",
"585 164 OFFCURVE",
"585 203 CURVE",
"478 204 LINE",
"460 148 OFFCURVE",
"433 88 OFFCURVE",
"375 88 CURVE SMOOTH",
"203 88 LINE",
"254 59 LINE {name = hr05;}",
"254 350 LINE {name = hr01;}"
);
}
);
width = 595;
}
);
leftKerningGroup = H;
leftMetricsKey = H;
rightKerningGroup = E;
unicode = 0045;
},
{
glyphname = Eogonek;
lastChange = "2018-06-07 15:02:57 +0000";
layers = (
{
components = (
{
name = E;
}
);
layerId = "184835E3-72D9-430C-A639-2454AC4A0BE8";
paths = (
{
closed = 1;
nodes = (
"482 37 LINE",
"435 37 OFFCURVE",
"298 -5 OFFCURVE",
"298 -119 CURVE SMOOTH",
"298 -197 OFFCURVE",
"363 -227 OFFCURVE",
"422 -227 CURVE SMOOTH",
"467 -227 OFFCURVE",
"506 -212 OFFCURVE",
"522 -196 CURVE SMOOTH",
"535 -183 OFFCURVE",
"539 -165 OFFCURVE",
"539 -147 CURVE SMOOTH",
"539 -135 OFFCURVE",
"537 -119 OFFCURVE",
"531 -111 CURVE",
"520 -120 OFFCURVE",
"493 -128 OFFCURVE",
"467 -128 CURVE SMOOTH",
"437 -128 OFFCURVE",
"407 -118 OFFCURVE",
"407 -91 CURVE SMOOTH",
"407 -49 OFFCURVE",
"435 -12 OFFCURVE",
"493 3 CURVE"
);
}
);
width = 587;
}
);
unicode = 0118;
},
{
glyphname = F;
lastChange = "2018-06-07 18:17:53 +0000";
layers = (
{
anchors = (
{
name = btm;
position = "{280, 0}";
},
{
name = top;
position = "{280, 975}";
}
);
layerId = "184835E3-72D9-430C-A639-2454AC4A0BE8";
paths = (
{
closed = 1;
nodes = (
"346 612 LINE SMOOTH",
"413 612 OFFCURVE",
"445 569 OFFCURVE",
"459 525 CURVE",
"485 530 OFFCURVE",
"527 547 OFFCURVE",
"544 563 CURVE",
"544 596 OFFCURVE",
"528 682 OFFCURVE",
"511 714 CURVE",
"486 714 OFFCURVE",
"460 708 OFFCURVE",
"435 697 CURVE",
"53 697 LINE",
"39 681 OFFCURVE",
"30 658 OFFCURVE",
"30 634 CURVE",
"73 634 OFFCURVE",
"94 621 OFFCURVE",
"94 584 CURVE SMOOTH",
"94 114 LINE SMOOTH",
"94 77 OFFCURVE",
"80 64 OFFCURVE",
"26 64 CURVE",
"26 40 OFFCURVE",
"34 16 OFFCURVE",
"49 0 CURVE",
"386 0 LINE",
"400 16 OFFCURVE",
"404 44 OFFCURVE",
"404 68 CURVE",
"376 68 OFFCURVE",
"346 68 OFFCURVE",
"324 68 CURVE SMOOTH",
"268 68 OFFCURVE",
"258 90 OFFCURVE",
"258 127 CURVE SMOOTH",
"258 327 LINE",
"223 305 LINE",
"341 305 LINE SMOOTH",
"378 305 OFFCURVE",
"392 283 OFFCURVE",
"392 229 CURVE",
"422 229 OFFCURVE",
"452 237 OFFCURVE",
"473 251 CURVE",
"472 436 LINE",
"451 450 OFFCURVE",
"421 458 OFFCURVE",
"392 458 CURVE",
"392 404 OFFCURVE",
"378 380 OFFCURVE",
"340 380 CURVE SMOOTH",
"224 380 LINE",
"258 350 LINE",
"258 663 LINE",
"160 612 LINE {name = hr00;}"
);
}
);
width = 564;
}
);
leftKerningGroup = H;
leftMetricsKey = H;
rightKerningGroup = F;
unicode = 0046;
},
{
glyphname = G;
lastChange = "2018-06-08 17:11:54 +0000";
layers = (
{
anchors = (
{
name = btm;
position = "{337, -5}";
},
{
name = top;
position = "{315, 963}";
}
);
background = {
paths = (
{
closed = 1;
nodes = (
"810 1211 OFFCURVE",
"803 1438 OFFCURVE",
"747 1579 CURVE",
"699 1577 OFFCURVE",
"594 1552 OFFCURVE",
"548 1530 CURVE",
"486 1561 OFFCURVE",
"382 1580 OFFCURVE",
"316 1580 CURVE SMOOTH",
"-95 1580 OFFCURVE",
"-361 1300 OFFCURVE",
"-361 778 CURVE SMOOTH",
"-361 232 OFFCURVE",
"-40 -27 OFFCURVE",
"342 -27 CURVE SMOOTH",
"643 -27 OFFCURVE",
"807 125 OFFCURVE",
"807 232 CURVE SMOOTH",
"807 273 OFFCURVE",
"783 338 OFFCURVE",
"747 363 CURVE",
"709 306 OFFCURVE",
"609 245 OFFCURVE",
"473 245 CURVE SMOOTH",
"234 245 OFFCURVE",
"9 427 OFFCURVE",
"9 885 CURVE SMOOTH",
"9 1257 OFFCURVE",
"160 1387 OFFCURVE",
"323 1387 CURVE SMOOTH",
"473 1387 OFFCURVE",
"580 1270 OFFCURVE",
"604 1076 CURVE",
"810 1076 LINE {name = hr00;}"
);
}
);
};
layerId = "184835E3-72D9-430C-A639-2454AC4A0BE8";
paths = (
{
closed = 1;
nodes = (
"505 -14 OFFCURVE",
"611 43 OFFCURVE",
"611 78 CURVE SMOOTH",
"611 102 OFFCURVE",
"593 89 OFFCURVE",
"593 141 CURVE SMOOTH",
"593 256 LINE",
"608 262 OFFCURVE",
"628 264 OFFCURVE",
"649 264 CURVE",
"652 269 OFFCURVE",
"654 277 OFFCURVE",
"654 282 CURVE SMOOTH",
"654 297 OFFCURVE",
"645 349 OFFCURVE",
"585 349 CURVE SMOOTH",
"371 349 LINE",
"357 333 OFFCURVE",
"347 295 OFFCURVE",
"347 272 CURVE",
"410 272 OFFCURVE",
"440 258 OFFCURVE",
"440 223 CURVE SMOOTH",
"440 109 LINE",
"422 90 OFFCURVE",
"396 83 OFFCURVE",
"359 83 CURVE SMOOTH",
"262 83 OFFCURVE",
"202 153 OFFCURVE",
"202 365 CURVE SMOOTH",
"202 563 OFFCURVE",
"270 617 OFFCURVE",
"350 617 CURVE SMOOTH",
"422 617 OFFCURVE",
"480 570 OFFCURVE",
"494 483 CURVE",
"591 483 LINE",
"591 543 OFFCURVE",
"587 645 OFFCURVE",
"562 709 CURVE",
"541 708 OFFCURVE",
"494 696 OFFCURVE",
"474 687 CURVE",
"424 706 OFFCURVE",
"383 709 OFFCURVE",
"353 709 CURVE SMOOTH",
"161 709 OFFCURVE",
"25 584 OFFCURVE",
"25 339 CURVE SMOOTH",
"25 132 OFFCURVE",
"157 -14 OFFCURVE",
"370 -14 CURVE SMOOTH {name = hr00;}"
);
}
);
width = 664;
}
);
leftKerningGroup = O;
leftMetricsKey = O;
rightKerningGroup = G;
unicode = 0047;
},
{
glyphname = H;
lastChange = "2018-06-07 18:15:50 +0000";
layers = (
{
anchors = (
{
name = btm;
position = "{363, 0}";
},
{
name = top;
position = "{355, 963}";
}
);
background = {
paths = (
{
closed = 1;
nodes = (
"-21 697 LINE",
"317 697 LINE SMOOTH",
"399 697 OFFCURVE",
"461 669 OFFCURVE",
"461 551 CURVE",
"526 551 OFFCURVE",
"593 568 OFFCURVE",
"640 598 CURVE",
"639 988 LINE",
"592 1018 OFFCURVE",
"525 1036 OFFCURVE",
"460 1036 CURVE",
"460 917 OFFCURVE",
"398 879 OFFCURVE",
"316 879 CURVE SMOOTH",
"36 879 LINE {name = hr02;}",
"112 837 LINE",
"112 1434 LINE",
"-104 1362 LINE",
"366 1362 LINE SMOOTH",
"483 1362 OFFCURVE",
"546 1258 OFFCURVE",
"578 1161 CURVE",
"632 1173 OFFCURVE",
"747 1211 OFFCURVE",
"785 1245 CURVE",
"785 1320 OFFCURVE",
"734 1517 OFFCURVE",
"697 1588 CURVE",
"642 1588 OFFCURVE",
"571 1575 OFFCURVE",
"516 1552 CURVE",
"-337 1552 LINE",
"-368 1515 OFFCURVE",
"-387 1463 OFFCURVE",
"-387 1411 CURVE {name = hr03;}",
"-291 1411 OFFCURVE",
"-253 1380 OFFCURVE",
"-253 1298 CURVE SMOOTH",
"-253 254 LINE SMOOTH",
"-253 171 OFFCURVE",
"-291 141 OFFCURVE",
"-387 141 CURVE",
"-387 89 OFFCURVE",
"-368 36 OFFCURVE",
"-337 0 CURVE {name = hr04;}",
"629 0 LINE",
"682 -24 OFFCURVE",
"745 -36 OFFCURVE",
"797 -36 CURVE",
"839 45 OFFCURVE",
"876 358 OFFCURVE",
"876 444 CURVE",
"680 445 LINE",
"639 320 OFFCURVE",
"540 195 OFFCURVE",
"387 195 CURVE SMOOTH",
"-2 195 LINE",
"112 130 LINE {name = hr05;}",
"112 761 LINE {name = hr01;}"
);
}
);
};
layerId = "184835E3-72D9-430C-A639-2454AC4A0BE8";
paths = (
{
closed = 1;
nodes = (
"216 313 LINE",
"546 313 LINE",
"546 397 LINE",
"216 397 LINE {name = hr00;}"
);
},
{
closed = 1;
nodes = (
"306 16 OFFCURVE",
"315 40 OFFCURVE",
"315 64 CURVE",
"271 64 OFFCURVE",
"255 77 OFFCURVE",
"255 114 CURVE SMOOTH",
"255 584 LINE SMOOTH",
"255 621 OFFCURVE",
"271 635 OFFCURVE",
"315 635 CURVE",
"315 658 OFFCURVE",
"306 682 OFFCURVE",
"293 698 CURVE",
"48 698 LINE",
"34 682 OFFCURVE",
"26 658 OFFCURVE",
"26 635 CURVE {name = hr03;}",
"70 635 OFFCURVE",
"86 621 OFFCURVE",
"86 584 CURVE SMOOTH",
"86 114 LINE SMOOTH",
"86 77 OFFCURVE",
"70 64 OFFCURVE",
"26 64 CURVE",
"26 40 OFFCURVE",
"34 16 OFFCURVE",
"48 0 CURVE {name = hr04;}",
"293 0 LINE"
);
},
{
closed = 1;
nodes = (
"693 16 OFFCURVE",
"701 40 OFFCURVE",
"701 64 CURVE",
"658 64 OFFCURVE",
"642 77 OFFCURVE",
"642 114 CURVE SMOOTH",
"642 584 LINE SMOOTH",
"642 621 OFFCURVE",
"658 635 OFFCURVE",
"701 635 CURVE",
"701 658 OFFCURVE",
"693 682 OFFCURVE",
"679 698 CURVE",
"435 698 LINE",
"421 682 OFFCURVE",
"413 658 OFFCURVE",
"413 635 CURVE",
"456 635 OFFCURVE",
"473 621 OFFCURVE",
"473 584 CURVE SMOOTH",
"473 114 LINE SMOOTH",
"473 77 OFFCURVE",
"456 64 OFFCURVE",
"413 64 CURVE",
"413 40 OFFCURVE",
"421 16 OFFCURVE",
"435 0 CURVE",
"679 0 LINE"
);
}
);
width = 727;
}
);
leftKerningGroup = H;
rightKerningGroup = H;
unicode = 0048;
},
{
glyphname = Hbar;
lastChange = "2018-06-07 18:18:03 +0000";
layers = (
{
layerId = "184835E3-72D9-430C-A639-2454AC4A0BE8";
paths = (
{
closed = 1;
nodes = (
"209 267 LINE",
"570 267 LINE",
"544 349 LINE",
"212 349 LINE {name = hr00;}"
);
},
{
closed = 1;
nodes = (
"688 453 OFFCURVE",
"687 486 OFFCURVE",
"687 512 CURVE",
"39 512 LINE",
"39 434 LINE",
"671 434 LINE"
);
},
{
closed = 1;
nodes = (
"306 16 OFFCURVE",
"315 40 OFFCURVE",
"315 64 CURVE",
"271 64 OFFCURVE",
"255 77 OFFCURVE",
"255 114 CURVE SMOOTH",
"255 584 LINE SMOOTH",
"255 621 OFFCURVE",
"271 635 OFFCURVE",
"315 635 CURVE",
"315 658 OFFCURVE",
"306 682 OFFCURVE",
"293 698 CURVE",
"48 698 LINE",
"34 682 OFFCURVE",
"26 658 OFFCURVE",
"26 635 CURVE {name = hr03;}",
"70 635 OFFCURVE",
"86 621 OFFCURVE",
"86 584 CURVE SMOOTH",
"86 114 LINE SMOOTH",
"86 77 OFFCURVE",
"70 64 OFFCURVE",
"26 64 CURVE",
"26 40 OFFCURVE",
"34 16 OFFCURVE",
"48 0 CURVE {name = hr04;}",
"293 0 LINE"
);
},
{
closed = 1;
nodes = (
"693 16 OFFCURVE",
"701 40 OFFCURVE",
"701 64 CURVE",
"658 64 OFFCURVE",
"642 77 OFFCURVE",
"642 114 CURVE SMOOTH",
"642 584 LINE SMOOTH",
"642 621 OFFCURVE",
"658 635 OFFCURVE",
"701 635 CURVE",
"701 658 OFFCURVE",
"693 682 OFFCURVE",
"679 698 CURVE",
"435 698 LINE",
"421 682 OFFCURVE",
"413 658 OFFCURVE",
"413 635 CURVE",
"456 635 OFFCURVE",
"473 621 OFFCURVE",
"473 584 CURVE SMOOTH",
"473 114 LINE SMOOTH",
"473 77 OFFCURVE",
"456 64 OFFCURVE",
"413 64 CURVE",
"413 40 OFFCURVE",
"421 16 OFFCURVE",
"435 0 CURVE",
"679 0 LINE"
);
}
);
width = 727;
}
);
leftKerningGroup = H;
leftMetricsKey = H;
rightKerningGroup = H;
rightMetricsKey = H;
unicode = 0126;
},
{
glyphname = I;
lastChange = "2018-06-07 18:16:10 +0000";
layers = (
{
anchors = (
{
name = btm;
position = "{183, 0}";
},
{
name = top;
position = "{172, 963}";
}
);
layerId = "184835E3-72D9-430C-A639-2454AC4A0BE8";
paths = (
{
closed = 1;
nodes = (
"308 16 OFFCURVE",
"317 40 OFFCURVE",
"317 64 CURVE",
"273 64 OFFCURVE",
"257 77 OFFCURVE",
"257 114 CURVE SMOOTH",
"257 584 LINE SMOOTH",
"257 621 OFFCURVE",
"273 635 OFFCURVE",
"317 635 CURVE",
"317 658 OFFCURVE",
"308 682 OFFCURVE",
"295 698 CURVE",
"50 698 LINE",
"36 682 OFFCURVE",
"28 658 OFFCURVE",
"28 635 CURVE {name = hr03;}",
"72 635 OFFCURVE",
"88 621 OFFCURVE",
"88 584 CURVE SMOOTH",
"88 114 LINE SMOOTH",
"88 77 OFFCURVE",
"72 64 OFFCURVE",
"28 64 CURVE",
"28 40 OFFCURVE",
"36 16 OFFCURVE",
"50 0 CURVE {name = hr04;}",
"295 0 LINE"
);
}
);
width = 345;
}
);
leftKerningGroup = I;
rightKerningGroup = I;
unicode = 0049;
},
{
glyphname = Iogonek;
lastChange = "2018-06-07 15:02:57 +0000";
layers = (
{
components = (
{
name = I;
}
);
layerId = "184835E3-72D9-430C-A639-2454AC4A0BE8";
paths = (
{
closed = 1;
nodes = (
"241 37 LINE",
"194 37 OFFCURVE",
"57 -5 OFFCURVE",
"57 -119 CURVE SMOOTH",
"57 -197 OFFCURVE",
"122 -227 OFFCURVE",
"181 -227 CURVE SMOOTH",
"226 -227 OFFCURVE",
"265 -212 OFFCURVE",
"281 -196 CURVE SMOOTH",
"294 -183 OFFCURVE",
"298 -165 OFFCURVE",
"298 -147 CURVE SMOOTH",
"298 -135 OFFCURVE",
"296 -119 OFFCURVE",
"290 -111 CURVE",
"279 -120 OFFCURVE",
"252 -128 OFFCURVE",
"226 -128 CURVE SMOOTH",
"196 -128 OFFCURVE",
"166 -118 OFFCURVE",
"166 -91 CURVE SMOOTH",
"166 -49 OFFCURVE",
"194 -12 OFFCURVE",
"252 3 CURVE"
);
}
);
width = 325;
}
);
unicode = 012E;
},
{
glyphname = J;
lastChange = "2018-06-07 15:59:57 +0000";
layers = (
{
anchors = (
{
name = btm;
position = "{262, -5}";
},
{
name = top;
position = "{355, 963}";
}
);
layerId = "184835E3-72D9-430C-A639-2454AC4A0BE8";
paths = (
{
closed = 1;
nodes = (
"447 620 OFFCURVE",
"464 634 OFFCURVE",
"509 634 CURVE",
"509 657 OFFCURVE",
"501 681 OFFCURVE",
"486 697 CURVE",
"218 697 LINE",
"204 681 OFFCURVE",
"195 657 OFFCURVE",
"195 634 CURVE",
"270 634 OFFCURVE",
"283 612 OFFCURVE",
"283 564 CURVE SMOOTH",
"283 140 LINE SMOOTH",
"283 101 OFFCURVE",
"262 75 OFFCURVE",
"226 75 CURVE SMOOTH",
"187 75 OFFCURVE",
"156 142 OFFCURVE",
"156 218 CURVE SMOOTH",
"156 239 OFFCURVE",
"158 261 OFFCURVE",
"164 283 CURVE",
"13 283 LINE",
"11 268 OFFCURVE",
"10 254 OFFCURVE",
"10 239 CURVE SMOOTH",
"10 116 OFFCURVE",
"60 27 OFFCURVE",
"83 -13 CURVE",
"134 10 LINE",
"160 -4 OFFCURVE",
"212 -13 OFFCURVE",
"245 -13 CURVE SMOOTH",
"357 -13 OFFCURVE",
"447 42 OFFCURVE",
"447 228 CURVE SMOOTH",
"447 583 LINE SMOOTH {name = hr00;}"
);
}
);
width = 521;
}
);
leftKerningGroup = J;
rightKerningGroup = U;
rightMetricsKey = U;
unicode = 004A;
},
{
glyphname = K;
lastChange = "2018-06-07 18:18:08 +0000";
layers = (
{
anchors = (
{
name = btm;
position = "{340, -5}";
},
{
name = top;
position = "{342, 963}";
}
);
layerId = "184835E3-72D9-430C-A639-2454AC4A0BE8";
paths = (
{
closed = 1;
nodes = (
"656 657 OFFCURVE",
"647 681 OFFCURVE",
"634 698 CURVE",
"401 698 LINE",
"387 681 OFFCURVE",
"378 657 OFFCURVE",
"378 635 CURVE",
"404 635 OFFCURVE",
"436 624 OFFCURVE",
"436 607 CURVE SMOOTH",
"436 596 OFFCURVE",
"431 583 OFFCURVE",
"423 571 CURVE SMOOTH",
"277 362 LINE",
"353 327 LINE",
"406 397 LINE",
"556 587 LINE SMOOTH",
"571 605 OFFCURVE",
"599 635 OFFCURVE",
"656 635 CURVE"
);
},
{
closed = 1;
nodes = (
"281 302 OFFCURVE",
"338 192 OFFCURVE",
"371 132 CURVE SMOOTH",
"404 73 OFFCURVE",
"419 -14 OFFCURVE",
"548 -14 CURVE SMOOTH",
"601 -14 OFFCURVE",
"628 3 OFFCURVE",
"649 31 CURVE",
"649 71 LINE",
"588 78 OFFCURVE",
"567 149 OFFCURVE",
"502 233 CURVE SMOOTH",
"444 308 OFFCURVE",
"400 386 OFFCURVE",
"243 386 CURVE",
"233 350 LINE",
"225 326 LINE"
);
},
{
closed = 1;
nodes = (
"306 16 OFFCURVE",
"315 40 OFFCURVE",
"315 64 CURVE",
"271 64 OFFCURVE",
"255 77 OFFCURVE",
"255 114 CURVE SMOOTH",
"255 584 LINE SMOOTH",
"255 621 OFFCURVE",
"271 635 OFFCURVE",
"315 635 CURVE",
"315 658 OFFCURVE",
"306 682 OFFCURVE",
"293 698 CURVE",
"48 698 LINE",
"34 682 OFFCURVE",
"26 658 OFFCURVE",
"26 635 CURVE {name = hr03;}",
"70 635 OFFCURVE",
"86 621 OFFCURVE",
"86 584 CURVE SMOOTH",
"86 114 LINE SMOOTH",
"86 77 OFFCURVE",
"70 64 OFFCURVE",
"26 64 CURVE",
"26 40 OFFCURVE",
"34 16 OFFCURVE",
"48 0 CURVE {name = hr04;}",
"293 0 LINE"
);
}
);
width = 665;
}
);
leftKerningGroup = H;
leftMetricsKey = H;
rightKerningGroup = K;
unicode = 004B;
},
{
glyphname = L;
lastChange = "2018-06-08 16:38:51 +0000";
layers = (
{
anchors = (
{
name = btm;
position = "{274, 0}";
},
{
name = car;
position = "{418, 712}";
},
{
name = top;
position = "{176, 963}";
}
);
layerId = "184835E3-72D9-430C-A639-2454AC4A0BE8";
paths = (
{
closed = 1;
nodes = (
"515 0 OFFCURVE",
"537 44 OFFCURVE",
"537 124 CURVE SMOOTH",
"537 171 OFFCURVE",
"519 210 OFFCURVE",
"494 229 CURVE",
"424 229 LINE",
"424 134 OFFCURVE",
"383 85 OFFCURVE",
"283 85 CURVE SMOOTH",
"252 85 LINE",
"252 584 LINE SMOOTH",
"252 621 OFFCURVE",
"274 635 OFFCURVE",
"318 635 CURVE",
"318 658 OFFCURVE",
"311 682 OFFCURVE",
"296 698 CURVE",
"49 698 LINE",
"34 682 OFFCURVE",
"26 658 OFFCURVE",
"26 635 CURVE",
"71 635 OFFCURVE",
"88 621 OFFCURVE",
"88 584 CURVE SMOOTH",
"88 114 LINE SMOOTH",
"88 77 OFFCURVE",
"71 64 OFFCURVE",
"26 64 CURVE {name = hr02;}",
"26 40 OFFCURVE",
"34 16 OFFCURVE",
"49 0 CURVE {name = hr03;}",
"446 0 LINE SMOOTH {name = hr01;}"
);
}
);
width = 537;
}
);
leftKerningGroup = H;
leftMetricsKey = H;
rightKerningGroup = L;
unicode = 004C;
},
{
glyphname = M;
lastChange = "2018-06-07 18:18:13 +0000";
layers = (
{
anchors = (
{
name = btm;
position = "{456, 0}";
},
{
name = top;
position = "{456, 975}";
}
);
layerId = "184835E3-72D9-430C-A639-2454AC4A0BE8";
paths = (
{
closed = 1;
nodes = (
"503 370 LINE",
"465 246 LINE",
"425 370 LINE",
"319 631 LINE SMOOTH",
"295 688 OFFCURVE",
"256 698 OFFCURVE",
"199 698 CURVE SMOOTH",
"49 698 LINE",
"35 682 OFFCURVE",
"26 658 OFFCURVE",
"26 635 CURVE",
"71 635 OFFCURVE",
"97 621 OFFCURVE",
"97 584 CURVE SMOOTH",
"97 114 LINE SMOOTH",
"97 77 OFFCURVE",
"74 64 OFFCURVE",
"26 64 CURVE",
"26 40 OFFCURVE",
"34 16 OFFCURVE",
"48 0 CURVE",
"256 0 LINE",
"269 16 OFFCURVE",
"278 40 OFFCURVE",
"278 64 CURVE",
"227 64 OFFCURVE",
"202 77 OFFCURVE",
"202 114 CURVE SMOOTH",
"202 528 LINE",
"400 45 LINE",
"438 45 OFFCURVE",
"468 55 OFFCURVE",
"486 99 CURVE SMOOTH",
"656 528 LINE",
"656 114 LINE SMOOTH",
"656 77 OFFCURVE",
"639 64 OFFCURVE",
"594 64 CURVE",
"594 40 OFFCURVE",
"603 16 OFFCURVE",
"616 0 CURVE",
"864 0 LINE",
"878 16 OFFCURVE",
"887 40 OFFCURVE",
"887 64 CURVE",
"839 64 OFFCURVE",
"820 77 OFFCURVE",
"820 114 CURVE SMOOTH",
"820 584 LINE SMOOTH",
"820 621 OFFCURVE",
"842 635 OFFCURVE",
"887 635 CURVE",
"887 658 OFFCURVE",
"878 682 OFFCURVE",
"864 698 CURVE",
"629 698 LINE {name = hr00;}"
);
}
);
width = 913;
}
);
leftKerningGroup = M;
leftMetricsKey = H;
rightKerningGroup = M;
rightMetricsKey = H;
unicode = 004D;
},
{
glyphname = N;
lastChange = "2018-06-08 17:18:13 +0000";
layers = (
{
anchors = (
{
name = btm;
position = "{359, -9}";
},
{
name = top;
position = "{362, 963}";
}
);
layerId = "184835E3-72D9-430C-A639-2454AC4A0BE8";
paths = (
{
closed = 1;
nodes = (
"479 50 LINE",
"504 13 OFFCURVE",
"526 -12 OFFCURVE",
"595 -13 CURVE",
"635 -13 LINE",
"635 584 LINE SMOOTH",
"635 621 OFFCURVE",
"654 635 OFFCURVE",
"698 635 CURVE",
"698 658 OFFCURVE",
"689 682 OFFCURVE",
"675 698 CURVE",
"476 698 LINE",
"461 682 OFFCURVE",
"453 658 OFFCURVE",
"453 635 CURVE",
"498 635 OFFCURVE",
"516 621 OFFCURVE",
"516 584 CURVE SMOOTH",
"516 259 LINE",
"296 613 LINE",
"262 665 OFFCURVE",
"218 698 OFFCURVE",
"175 698 CURVE SMOOTH",
"48 698 LINE",
"34 682 OFFCURVE",
"26 658 OFFCURVE",
"26 635 CURVE",
"71 635 OFFCURVE",
"88 621 OFFCURVE",
"88 584 CURVE SMOOTH",
"88 101 LINE SMOOTH",
"88 64 OFFCURVE",
"71 50 OFFCURVE",
"26 50 CURVE",
"26 27 OFFCURVE",
"34 4 OFFCURVE",
"48 -13 CURVE",
"239 -13 LINE",
"253 4 OFFCURVE",
"262 27 OFFCURVE",
"262 50 CURVE",
"217 50 OFFCURVE",
"199 64 OFFCURVE",
"199 101 CURVE SMOOTH",
"199 475 LINE {name = hr00;}"
);
}
);
width = 708;
}
);
leftKerningGroup = N;
leftMetricsKey = H;
rightKerningGroup = N;
unicode = 004E;
},
{
color = 4;
glyphname = Eng;
lastChange = "2018-06-07 17:08:20 +0000";
layers = (
{
components = (
{
name = N;
}
);
layerId = "184835E3-72D9-430C-A639-2454AC4A0BE8";
paths = (
{
closed = 1;
nodes = (
"557 -221 OFFCURVE",
"631 -162 OFFCURVE",
"631 -36 CURVE SMOOTH",
"631 214 LINE",
"497 118 LINE",
"497 -29 LINE SMOOTH",
"497 -112 OFFCURVE",
"442 -138 OFFCURVE",
"390 -138 CURVE",
"386 -144 OFFCURVE",
"381 -158 OFFCURVE",
"381 -167 CURVE SMOOTH",
"381 -192 OFFCURVE",
"408 -221 OFFCURVE",
"470 -221 CURVE SMOOTH"
);
}
);
width = 707;
}
);
unicode = 014A;
},
{
glyphname = O;
lastChange = "2018-06-08 17:11:24 +0000";
layers = (
{
anchors = (
{
name = btm;
position = "{334, -9}";
},
{
name = top;
position = "{326, 963}";
}
);
layerId = "184835E3-72D9-430C-A639-2454AC4A0BE8";
paths = (
{
closed = 1;
nodes = (
"521 -25 OFFCURVE",
"644 108 OFFCURVE",
"644 336 CURVE SMOOTH",
"644 554 OFFCURVE",
"527 698 OFFCURVE",
"333 698 CURVE SMOOTH",
"147 698 OFFCURVE",
"25 565 OFFCURVE",
"25 336 CURVE SMOOTH",
"25 119 OFFCURVE",
"140 -25 OFFCURVE",
"334 -25 CURVE SMOOTH"
);
},
{
closed = 1;
nodes = (
"265 48 OFFCURVE",
"212 107 OFFCURVE",
"212 333 CURVE SMOOTH",
"212 575 OFFCURVE",
"274 624 OFFCURVE",
"336 624 CURVE SMOOTH",
"406 624 OFFCURVE",
"458 565 OFFCURVE",
"458 340 CURVE SMOOTH",
"458 97 OFFCURVE",
"396 48 OFFCURVE",
"334 48 CURVE SMOOTH {name = hr00;}"
);
}
);
width = 669;
}
);
leftKerningGroup = O;
rightKerningGroup = O;
unicode = 004F;
},
{
glyphname = Ohorn;
lastChange = "2018-06-07 15:54:50 +0000";
layers = (
{
components = (
{
name = O;
}
);
layerId = "184835E3-72D9-430C-A639-2454AC4A0BE8";
paths = (
{
closed = 1;
nodes = (
"462 624 LINE",
"537 624 LINE SMOOTH {name = hr01;}",
"619 624 OFFCURVE",
"660 675 OFFCURVE",
"660 721 CURVE SMOOTH",
"660 755 OFFCURVE",
"652 778 OFFCURVE",
"624 800 CURVE",
"560 800 LINE",
"574 711 OFFCURVE",
"544 671 OFFCURVE",
"455 671 CURVE"
);
}
);
width = 675;
}
);
unicode = 01A0;
},
{
glyphname = Oogonek;
lastChange = "2018-06-07 15:02:57 +0000";
layers = (
{
components = (
{
name = O;
}
);
layerId = "184835E3-72D9-430C-A639-2454AC4A0BE8";
paths = (
{
closed = 1;
nodes = (
"459 37 LINE",
"412 37 OFFCURVE",
"275 -5 OFFCURVE",
"275 -119 CURVE SMOOTH",
"275 -197 OFFCURVE",
"340 -227 OFFCURVE",
"399 -227 CURVE SMOOTH",
"444 -227 OFFCURVE",
"483 -212 OFFCURVE",
"499 -196 CURVE SMOOTH",
"512 -183 OFFCURVE",
"516 -165 OFFCURVE",
"516 -147 CURVE SMOOTH",
"516 -135 OFFCURVE",
"514 -119 OFFCURVE",
"508 -111 CURVE",
"497 -120 OFFCURVE",
"470 -128 OFFCURVE",
"444 -128 CURVE SMOOTH",
"414 -128 OFFCURVE",
"384 -118 OFFCURVE",
"384 -91 CURVE SMOOTH",
"384 -49 OFFCURVE",
"412 -12 OFFCURVE",
"470 3 CURVE"
);
}
);
width = 675;
}
);
unicode = 01EA;
},
{
color = 0;
glyphname = Oslash;
lastChange = "2018-06-08 17:10:48 +0000";
layers = (
{
anchors = (
{
name = _vslash;
position = "{27, 224}";
},
{
name = top;
position = "{326, 963}";
}
);
components = (
{
name = O;
}
);
layerId = "184835E3-72D9-430C-A639-2454AC4A0BE8";
paths = (
{
closed = 1;
nodes = (
"94 -13 LINE",
"159 72 LINE",
"196 103 LINE",
"473 501 LINE",
"544 574 LINE",
"650 712 LINE",
"575 712 LINE",
"501 616 LINE",
"450 564 LINE",
"162 151 LINE",
"118 115 LINE",
"20 -13 LINE"
);
}
);
width = 669;
}
);
widthMetricsKey = O;
unicode = 00D8;
},
{
glyphname = OE;
lastChange = "2018-06-07 18:18:24 +0000";
layers = (
{
anchors = (
{
name = btm;
position = "{463, -12}";
},
{
name = top;
position = "{438, 963}";
}
);
layerId = "184835E3-72D9-430C-A639-2454AC4A0BE8";
paths = (
{
closed = 1;
nodes = (
"802 111 OFFCURVE",
"763 71 OFFCURVE",
"694 71 CURVE SMOOTH",
"589 71 LINE",
"589 301 LINE",
"672 301 LINE SMOOTH",
"709 301 OFFCURVE",
"737 284 OFFCURVE",
"737 231 CURVE",
"767 231 OFFCURVE",
"794 239 OFFCURVE",
"815 252 CURVE",
"815 428 LINE",
"794 441 OFFCURVE",
"766 449 OFFCURVE",
"737 449 CURVE",
"737 395 OFFCURVE",
"709 374 OFFCURVE",
"672 374 CURVE SMOOTH",
"589 374 LINE",
"589 596 LINE",
"685 596 LINE SMOOTH",
"738 596 OFFCURVE",
"767 551 OFFCURVE",
"780 508 CURVE",
"805 514 OFFCURVE",
"843 531 OFFCURVE",
"860 546 CURVE",
"860 579 OFFCURVE",
"846 665 OFFCURVE",
"830 698 CURVE",
"805 698 OFFCURVE",
"778 692 OFFCURVE",
"753 681 CURVE",
"418 681 LINE",
"390 689 OFFCURVE",
"364 690 OFFCURVE",
"330 690 CURVE SMOOTH",
"144 690 OFFCURVE",
"25 560 OFFCURVE",
"25 335 CURVE SMOOTH",
"25 115 OFFCURVE",
"139 -26 OFFCURVE",
"325 -26 CURVE SMOOTH",
"357 -26 OFFCURVE",
"385 -25 OFFCURVE",
"410 -17 CURVE",
"794 -17 LINE",
"819 -28 OFFCURVE",
"846 -33 OFFCURVE",
"870 -33 CURVE",
"889 3 OFFCURVE",
"902 128 OFFCURVE",
"902 167 CURVE",
"819 167 LINE"
);
},
{
closed = 1;
nodes = (
"213 573 OFFCURVE",
"271 620 OFFCURVE",
"343 620 CURVE SMOOTH",
"378 620 OFFCURVE",
"408 608 OFFCURVE",
"425 587 CURVE",
"425 69 LINE",
"403 52 OFFCURVE",
"375 44 OFFCURVE",
"345 44 CURVE SMOOTH {name = hr01;}",
"263 44 OFFCURVE",
"213 102 OFFCURVE",
"213 328 CURVE SMOOTH"
);
}
);
width = 912;
}
);
leftKerningGroup = O;
leftMetricsKey = O;
rightKerningGroup = E;
rightMetricsKey = E;
unicode = 0152;
},
{
glyphname = P;
lastChange = "2018-06-07 18:16:32 +0000";
layers = (
{
anchors = (
{
name = btm;
position = "{305, 0}";
},
{
name = top;
position = "{319, 963}";
}
);
layerId = "184835E3-72D9-430C-A639-2454AC4A0BE8";
paths = (
{
closed = 1;
nodes = (
"250 705 OFFCURVE",
"179 698 OFFCURVE",
"48 698 CURVE",
"35 681 OFFCURVE",
"26 658 OFFCURVE",
"26 635 CURVE",
"71 635 OFFCURVE",
"89 621 OFFCURVE",
"89 584 CURVE SMOOTH",
"89 114 LINE SMOOTH",
"89 77 OFFCURVE",
"71 64 OFFCURVE",
"26 64 CURVE",
"26 40 OFFCURVE",
"35 16 OFFCURVE",
"49 0 CURVE",
"340 0 LINE",
"354 16 OFFCURVE",
"362 40 OFFCURVE",
"362 64 CURVE",
"273 64 OFFCURVE",
"253 81 OFFCURVE",
"253 159 CURVE SMOOTH",
"253 247 LINE",
"295 247 LINE SMOOTH",
"496 247 OFFCURVE",
"592 348 OFFCURVE",
"592 479 CURVE SMOOTH",
"592 625 OFFCURVE",
"518 705 OFFCURVE",
"306 705 CURVE SMOOTH {name = hr00;}"
);
},
{
closed = 1;
nodes = (
"418 414 OFFCURVE",
"403 327 OFFCURVE",
"279 327 CURVE SMOOTH",
"270 327 OFFCURVE",
"262 327 OFFCURVE",
"253 329 CURVE",
"253 622 LINE",
"264 625 OFFCURVE",
"276 626 OFFCURVE",
"290 626 CURVE SMOOTH",
"389 626 OFFCURVE",
"418 558 OFFCURVE",
"418 482 CURVE SMOOTH"
);
}
);
width = 593;
}
);
leftKerningGroup = H;
leftMetricsKey = H;
rightKerningGroup = P;
unicode = 0050;
},
{
glyphname = Thorn;
lastChange = "2018-06-07 18:18:28 +0000";
layers = (
{
anchors = (
{
name = btm;
position = "{320, 0}";
}
);
layerId = "184835E3-72D9-430C-A639-2454AC4A0BE8";
paths = (
{
closed = 1;
nodes = (
"279 141 OFFCURVE",
"324 138 OFFCURVE",
"350 138 CURVE SMOOTH",
"500 138 OFFCURVE",
"611 218 OFFCURVE",
"611 356 CURVE SMOOTH",
"611 484 OFFCURVE",
"515 572 OFFCURVE",
"326 572 CURVE SMOOTH",
"299 572 OFFCURVE",
"270 571 OFFCURVE",
"238 567 CURVE",
"253 485 LINE",
"268 487 OFFCURVE",
"281 488 OFFCURVE",
"294 488 CURVE SMOOTH",
"383 488 OFFCURVE",
"437 446 OFFCURVE",
"437 356 CURVE SMOOTH",
"437 269 OFFCURVE",
"386 218 OFFCURVE",
"307 218 CURVE SMOOTH",
"292 218 OFFCURVE",
"270 219 OFFCURVE",
"253 224 CURVE",
"253 148 LINE {name = hr00;}"
);
},
{
closed = 1;
nodes = (
"253 621 OFFCURVE",
"275 635 OFFCURVE",
"319 635 CURVE",
"319 658 OFFCURVE",
"311 682 OFFCURVE",
"297 698 CURVE",
"49 698 LINE",
"35 682 OFFCURVE",
"26 658 OFFCURVE",
"26 635 CURVE",
"71 635 OFFCURVE",
"89 621 OFFCURVE",
"89 584 CURVE SMOOTH",
"89 114 LINE SMOOTH",
"89 77 OFFCURVE",
"71 64 OFFCURVE",
"26 64 CURVE",
"26 40 OFFCURVE",
"35 16 OFFCURVE",
"49 0 CURVE",
"340 0 LINE",
"355 16 OFFCURVE",
"363 40 OFFCURVE",
"363 64 CURVE",
"273 64 OFFCURVE",
"253 81 OFFCURVE",
"253 159 CURVE SMOOTH",
"253 584 LINE SMOOTH"
);
}
);
width = 612;
}
);
leftKerningGroup = H;
leftMetricsKey = H;
rightKerningGroup = Thorn;
rightMetricsKey = P;
unicode = 00DE;
},
{
glyphname = Q;
lastChange = "2018-06-07 16:01:13 +0000";
layers = (
{
anchors = (
{
name = btm;
position = "{391, -119}";
},
{
name = top;
position = "{321, 963}";
}
);
components = (
{
name = O;
}
);
layerId = "184835E3-72D9-430C-A639-2454AC4A0BE8";
paths = (
{
closed = 1;
nodes = (
"468 -94 OFFCURVE",
"492 -188 OFFCURVE",
"613 -188 CURVE SMOOTH",
"703 -188 OFFCURVE",
"740 -139 OFFCURVE",
"740 -106 CURVE SMOOTH",
"740 -96 OFFCURVE",
"732 -76 OFFCURVE",
"726 -68 CURVE",
"705 -76 OFFCURVE",
"682 -79 OFFCURVE",
"661 -79 CURVE SMOOTH",
"637 -79 OFFCURVE",
"615 -74 OFFCURVE",
"597 -65 CURVE SMOOTH",
"562 -47 OFFCURVE",
"481 0 OFFCURVE",
"417 0 CURVE SMOOTH",
"318 0 OFFCURVE",
"259 -36 OFFCURVE",
"230 -88 CURVE",
"261 -123 LINE",
"304 -96 OFFCURVE",
"329 -94 OFFCURVE",
"355 -94 CURVE SMOOTH",
"360 -94 OFFCURVE",
"366 -94 OFFCURVE",
"371 -94 CURVE SMOOTH {name = hr00;}"
);
}
);
width = 675;
}
);
leftKerningGroup = O;
rightKerningGroup = O;
unicode = 0051;
},
{
glyphname = R;
lastChange = "2018-06-08 17:11:34 +0000";
layers = (
{
anchors = (
{
name = btm;
position = "{336, 0}";
},
{
name = top;
position = "{303, 963}";
}
);
layerId = "184835E3-72D9-430C-A639-2454AC4A0BE8";
paths = (
{
closed = 1;
nodes = (
"476 301 OFFCURVE",
"457 319 OFFCURVE",
"405 321 CURVE",
"389 311 LINE",
"526 325 OFFCURVE",
"589 405 OFFCURVE",
"589 513 CURVE SMOOTH {name = hr00;}",
"589 619 OFFCURVE",
"511 710 OFFCURVE",
"303 710 CURVE SMOOTH",
"249 710 OFFCURVE",
"121 706 OFFCURVE",
"49 698 CURVE",
"35 682 OFFCURVE",
"26 658 OFFCURVE",
"26 635 CURVE",
"71 635 OFFCURVE",
"88 621 OFFCURVE",
"88 584 CURVE SMOOTH",
"88 114 LINE SMOOTH",
"88 77 OFFCURVE",
"71 63 OFFCURVE",
"26 63 CURVE",
"26 40 OFFCURVE",
"35 17 OFFCURVE",
"49 0 CURVE",
"297 0 LINE",
"311 17 OFFCURVE",
"319 40 OFFCURVE",
"319 63 CURVE",
"280 63 OFFCURVE",
"253 77 OFFCURVE",
"253 114 CURVE SMOOTH",
"253 297 LINE",
"287 297 LINE",
"415 249 OFFCURVE",
"345 -14 OFFCURVE",
"561 -14 CURVE SMOOTH",
"614 -14 OFFCURVE",
"632 2 OFFCURVE",
"654 27 CURVE",
"654 75 LINE",
"582 91 OFFCURVE",
"589 136 OFFCURVE",
"535 215 CURVE SMOOTH"
);
},
{
closed = 1;
nodes = (
"264 629 OFFCURVE",
"285 630 OFFCURVE",
"298 630 CURVE SMOOTH",
"385 630 OFFCURVE",
"427 586 OFFCURVE",
"427 503 CURVE SMOOTH",
"427 422 OFFCURVE",
"389 368 OFFCURVE",
"293 368 CURVE SMOOTH",
"283 368 OFFCURVE",
"262 369 OFFCURVE",
"253 370 CURVE",
"253 626 LINE"
);
}
);
width = 649;
}
);
leftKerningGroup = H;
leftMetricsKey = H;
rightKerningGroup = R;
unicode = 0052;
},
{
glyphname = S;
lastChange = "2018-06-08 17:14:37 +0000";
layers = (
{
anchors = (
{
name = btm;
position = "{285, -5}";
},
{
name = top;
position = "{296, 963}";
}
);
layerId = "184835E3-72D9-430C-A639-2454AC4A0BE8";
paths = (
{
closed = 1;
nodes = (
"28 166 OFFCURVE",
"49 37 OFFCURVE",
"75 -15 CURVE",
"152 19 LINE",
"213 -7 OFFCURVE",
"267 -15 OFFCURVE",
"313 -15 CURVE SMOOTH",
"460 -15 OFFCURVE",
"547 76 OFFCURVE",
"547 186 CURVE SMOOTH {name = hr02;}",
"547 319 OFFCURVE",
"428 370 OFFCURVE",
"337 419 CURVE SMOOTH",
"275 452 OFFCURVE",
"215 482 OFFCURVE",
"215 546 CURVE SMOOTH",
"215 593 OFFCURVE",
"236 628 OFFCURVE",
"291 628 CURVE SMOOTH",
"350 628 OFFCURVE",
"408 595 OFFCURVE",
"436 482 CURVE",
"519 482 LINE",
"519 486 OFFCURVE",
"519 492 OFFCURVE",
"519 497 CURVE SMOOTH",
"519 562 OFFCURVE",
"518 661 OFFCURVE",
"491 708 CURVE",
"406 682 LINE",
"373 700 OFFCURVE",
"312 708 OFFCURVE",
"273 708 CURVE SMOOTH",
"147 708 OFFCURVE",
"49 643 OFFCURVE",
"49 522 CURVE SMOOTH",
"49 409 OFFCURVE",
"124 343 OFFCURVE",
"239 281 CURVE SMOOTH",
"307 244 OFFCURVE",
"384 207 OFFCURVE",
"384 142 CURVE SMOOTH",
"384 110 OFFCURVE",
"373 65 OFFCURVE",
"312 65 CURVE SMOOTH",
"228 65 OFFCURVE",
"149 133 OFFCURVE",
"128 246 CURVE",
"28 246 LINE {name = hr01;}"
);
}
);
width = 575;
}
);
leftKerningGroup = S;
rightKerningGroup = S;
unicode = 0053;
},
{
glyphname = Schwa;
lastChange = "2018-06-07 18:18:36 +0000";
layers = (
{
layerId = "184835E3-72D9-430C-A639-2454AC4A0BE8";
paths = (
{
closed = 1;
nodes = (
"127 534 OFFCURVE",
"181 561 OFFCURVE",
"252 561 CURVE SMOOTH",
"353 561 OFFCURVE",
"407 503 OFFCURVE",
"407 341 CURVE SMOOTH",
"407 289 LINE SMOOTH",
"407 118 OFFCURVE",
"331 89 OFFCURVE",
"277 89 CURVE SMOOTH",
"235 89 OFFCURVE",
"173 118 OFFCURVE",
"173 228 CURVE SMOOTH",
"173 262 OFFCURVE",
"172 281 OFFCURVE",
"198 281 CURVE SMOOTH",
"455 281 LINE",
"460 364 LINE",
"101 364 LINE SMOOTH",
"38 364 OFFCURVE",
"25 306 OFFCURVE",
"25 240 CURVE SMOOTH",
"25 75 OFFCURVE",
"121 -14 OFFCURVE",
"270 -14 CURVE SMOOTH",
"438 -14 OFFCURVE",
"566 119 OFFCURVE",
"566 346 CURVE SMOOTH",
"566 566 OFFCURVE",
"452 695 OFFCURVE",
"278 695 CURVE SMOOTH",
"145 695 OFFCURVE",
"58 623 OFFCURVE",
"58 581 CURVE SMOOTH",
"58 563 OFFCURVE",
"76 518 OFFCURVE",
"89 503 CURVE {name = hr00;}"
);
}
);
width = 591;
}
);
leftKerningGroup = uni018F;
leftMetricsKey = O;
rightKerningGroup = uni018F;
rightMetricsKey = O;
unicode = 018F;
},
{
glyphname = T;
lastChange = "2018-06-07 16:01:34 +0000";
layers = (
{
anchors = (
{
name = btm;
position = "{323, 0}";
},
{
name = top;
position = "{321, 963}";
}
);
layerId = "184835E3-72D9-430C-A639-2454AC4A0BE8";
paths = (
{
closed = 1;
nodes = (
"579 714 OFFCURVE",
"547 708 OFFCURVE",
"522 697 CURVE",
"124 697 LINE",
"100 708 OFFCURVE",
"66 714 OFFCURVE",
"42 714 CURVE",
"18 661 OFFCURVE",
"10 534 OFFCURVE",
"10 478 CURVE",
"27 471 OFFCURVE",
"69 470 OFFCURVE",
"94 467 CURVE",
"107 583 OFFCURVE",
"152 619 OFFCURVE",
"239 619 CURVE SMOOTH",
"241 619 LINE",
"241 118 LINE SMOOTH",
"241 81 OFFCURVE",
"205 64 OFFCURVE",
"133 64 CURVE",
"133 40 OFFCURVE",
"141 16 OFFCURVE",
"155 0 CURVE",
"491 0 LINE",
"506 16 OFFCURVE",
"514 40 OFFCURVE",
"514 64 CURVE",
"442 64 OFFCURVE",
"405 81 OFFCURVE",
"405 118 CURVE SMOOTH",
"405 619 LINE",
"409 619 LINE SMOOTH {name = hr01;}",
"504 619 OFFCURVE",
"539 583 OFFCURVE",
"552 467 CURVE",
"578 470 OFFCURVE",
"618 471 OFFCURVE",
"636 478 CURVE",
"636 534 OFFCURVE",
"628 661 OFFCURVE",
"604 714 CURVE"
);
}
);
width = 646;
}
);
leftKerningGroup = T;
rightKerningGroup = T;
unicode = 0054;
},
{
glyphname = Tbar;
lastChange = "2018-06-07 16:01:41 +0000";
layers = (
{
anchors = (
{
name = top;
position = "{323, 1136.574}";
}
);
components = (
{
name = T;
}
);
layerId = "184835E3-72D9-430C-A639-2454AC4A0BE8";
paths = (
{
closed = 1;
nodes = (
"123 383 OFFCURVE",
"121 365 OFFCURVE",
"121 346 CURVE SMOOTH",
"121 330 OFFCURVE",
"123 313 OFFCURVE",
"127 302 CURVE",
"522 302 LINE",
"525 311 OFFCURVE",
"527 329 OFFCURVE",
"527 346 CURVE SMOOTH",
"527 363 OFFCURVE",
"525 381 OFFCURVE",
"521 392 CURVE",
"128 392 LINE {name = hr00;}"
);
}
);
width = 646;
}
);
unicode = 0166;
},
{
glyphname = U;
lastChange = "2018-06-08 17:18:22 +0000";
layers = (
{
anchors = (
{
name = btm;
position = "{340, -4}";
},
{
name = top;
position = "{337, 963}";
}
);
layerId = "184835E3-72D9-430C-A639-2454AC4A0BE8";
paths = (
{
closed = 1;
nodes = (
"605 621 OFFCURVE",
"625 635 OFFCURVE",
"676 635 CURVE",
"676 659 OFFCURVE",
"668 682 OFFCURVE",
"654 698 CURVE",
"434 698 LINE",
"419 682 OFFCURVE",
"412 659 OFFCURVE",
"412 635 CURVE",
"462 635 OFFCURVE",
"483 621 OFFCURVE",
"483 585 CURVE SMOOTH",
"484 226 LINE SMOOTH",
"484 148 OFFCURVE",
"453 83 OFFCURVE",
"363 83 CURVE SMOOTH",
"277 83 OFFCURVE",
"240 152 OFFCURVE",
"240 242 CURVE SMOOTH",
"239 585 LINE SMOOTH",
"239 621 OFFCURVE",
"256 635 OFFCURVE",
"301 635 CURVE",
"301 659 OFFCURVE",
"293 682 OFFCURVE",
"278 698 CURVE",
"28 698 LINE",
"13 682 OFFCURVE",
"5 659 OFFCURVE",
"5 635 CURVE",
"50 635 OFFCURVE",
"67 621 OFFCURVE",
"67 585 CURVE SMOOTH",
"68 263 LINE SMOOTH",
"69 82 OFFCURVE",
"174 -13 OFFCURVE",
"345 -13 CURVE SMOOTH",
"519 -13 OFFCURVE",
"607 89 OFFCURVE",
"606 273 CURVE SMOOTH",
"605 585 LINE SMOOTH {name = hr00;}"
);
}
);
width = 681;
}
);
leftKerningGroup = U;
rightKerningGroup = U;
unicode = 0055;
},
{
color = 0;
glyphname = Uhorn;
lastChange = "2018-06-07 16:02:01 +0000";
layers = (
{
anchors = (
{
name = btm;
position = "{347, -4}";
},
{
name = top;
position = "{350, 963}";
}
);
layerId = "184835E3-72D9-430C-A639-2454AC4A0BE8";
paths = (
{
closed = 1;
nodes = (
"588 635 LINE",
"663 635 LINE SMOOTH {name = hr01;}",
"703 635 OFFCURVE",
"733 676 OFFCURVE",
"733 722 CURVE SMOOTH",
"733 756 OFFCURVE",
"725 778 OFFCURVE",
"697 800 CURVE",
"633 800 LINE",
"647 711 OFFCURVE",
"615 698 OFFCURVE",
"552 698 CURVE"
);
},
{
closed = 1;
nodes = (
"612 621 OFFCURVE",
"612 635 OFFCURVE",
"663 635 CURVE",
"663 659 OFFCURVE",
"661 678 OFFCURVE",
"661 698 CURVE",
"441 698 LINE",
"426 682 OFFCURVE",
"419 659 OFFCURVE",
"419 635 CURVE",
"469 635 OFFCURVE",
"490 621 OFFCURVE",
"490 585 CURVE SMOOTH",
"490 224 LINE SMOOTH",
"490 146 OFFCURVE",
"449 91 OFFCURVE",
"369 91 CURVE SMOOTH",
"293 91 OFFCURVE",
"246 160 OFFCURVE",
"246 250 CURVE SMOOTH",
"246 585 LINE SMOOTH",
"246 621 OFFCURVE",
"263 635 OFFCURVE",
"308 635 CURVE",
"308 659 OFFCURVE",
"300 682 OFFCURVE",
"285 698 CURVE",
"35 698 LINE",
"20 682 OFFCURVE",
"12 659 OFFCURVE",
"12 635 CURVE",
"57 635 OFFCURVE",
"74 621 OFFCURVE",
"74 585 CURVE SMOOTH",
"74 271 LINE SMOOTH",
"74 90 OFFCURVE",
"180 -5 OFFCURVE",
"351 -5 CURVE SMOOTH",
"525 -5 OFFCURVE",
"612 87 OFFCURVE",
"612 271 CURVE SMOOTH",
"612 585 LINE SMOOTH {name = hr00;}"
);
}
);
width = 695;
}
);
leftMetricsKey = U;
unicode = 01AF;
},
{
glyphname = Uogonek;
lastChange = "2018-06-07 15:02:57 +0000";
layers = (
{
components = (
{
name = U;
}
);
layerId = "184835E3-72D9-430C-A639-2454AC4A0BE8";
paths = (
{
closed = 1;
nodes = (
"453 48 LINE",
"379 48 OFFCURVE",
"249 -5 OFFCURVE",
"249 -119 CURVE SMOOTH",
"249 -197 OFFCURVE",
"314 -227 OFFCURVE",
"373 -227 CURVE SMOOTH",
"418 -227 OFFCURVE",
"457 -212 OFFCURVE",
"473 -196 CURVE SMOOTH",
"486 -183 OFFCURVE",
"490 -165 OFFCURVE",
"490 -147 CURVE SMOOTH",
"490 -135 OFFCURVE",
"488 -119 OFFCURVE",
"482 -111 CURVE",
"471 -120 OFFCURVE",
"444 -128 OFFCURVE",
"418 -128 CURVE SMOOTH",
"388 -128 OFFCURVE",
"358 -118 OFFCURVE",
"358 -91 CURVE SMOOTH",
"358 -49 OFFCURVE",
"391 -5 OFFCURVE",
"464 14 CURVE"
);
}
);
width = 695;
}
);
unicode = 0172;
},
{
glyphname = V;
lastChange = "2018-06-07 18:13:40 +0000";
layers = (
{
anchors = (
{
name = btm;
position = "{317, -6}";
},
{
name = top;
position = "{317, 969}";
}
);
layerId = "184835E3-72D9-430C-A639-2454AC4A0BE8";
paths = (
{
closed = 1;
nodes = (
"409 678 OFFCURVE",
"406 659 OFFCURVE",
"406 635 CURVE",
"445 635 OFFCURVE",
"465 617 OFFCURVE",
"465 590 CURVE SMOOTH",
"465 584 OFFCURVE",
"463 577 OFFCURVE",
"461 569 CURVE SMOOTH",
"381 293 LINE",
"351 185 LINE",
"321 295 LINE",
"237 566 LINE SMOOTH",
"234 575 OFFCURVE",
"231 583 OFFCURVE",
"231 590 CURVE SMOOTH",
"231 618 OFFCURVE",
"252 635 OFFCURVE",
"290 635 CURVE",
"290 659 OFFCURVE",
"281 682 OFFCURVE",
"272 698 CURVE",
"-24 698 LINE",
"-36 678 OFFCURVE",
"-40 659 OFFCURVE",
"-40 635 CURVE",
"6 635 OFFCURVE",
"29 623 OFFCURVE",
"43 588 CURVE SMOOTH",
"276 -7 LINE",
"307 -7 LINE SMOOTH",
"367 -7 OFFCURVE",
"393 21 OFFCURVE",
"416 89 CURVE SMOOTH",
"586 588 LINE SMOOTH",
"598 624 OFFCURVE",
"625 635 OFFCURVE",
"670 635 CURVE",
"670 659 OFFCURVE",
"666 679 OFFCURVE",
"654 698 CURVE",
"422 698 LINE {name = hr00;}"
);
}
);
width = 630;
}
);
leftKerningGroup = V;
rightKerningGroup = V;
unicode = 0056;
},
{
glyphname = W;
lastChange = "2018-06-07 16:02:10 +0000";
layers = (
{
anchors = (
{
name = btm;
position = "{515, -2}";
},
{
name = top;
position = "{524, 963}";
}
);
layerId = "184835E3-72D9-430C-A639-2454AC4A0BE8";
paths = (
{
closed = 1;
nodes = (
"657 -7 LINE",
"697 -7 LINE SMOOTH",
"763 -7 OFFCURVE",
"807 36 OFFCURVE",
"833 130 CURVE SMOOTH",
"959 588 LINE SMOOTH",
"969 623 OFFCURVE",
"995 635 OFFCURVE",
"1040 635 CURVE",
"1040 658 OFFCURVE",
"1036 679 OFFCURVE",
"1025 698 CURVE",
"790 698 LINE",
"779 678 OFFCURVE",
"776 658 OFFCURVE",
"776 635 CURVE",
"819 635 OFFCURVE",
"846 612 OFFCURVE",
"846 578 CURVE SMOOTH",
"846 573 OFFCURVE",
"845 565 OFFCURVE",
"843 558 CURVE SMOOTH",
"744 175 LINE",
"627 557 LINE SMOOTH",
"624 567 OFFCURVE",
"622 577 OFFCURVE",
"622 586 CURVE SMOOTH",
"622 616 OFFCURVE",
"642 635 OFFCURVE",
"685 635 CURVE",
"685 658 OFFCURVE",
"676 682 OFFCURVE",
"668 698 CURVE",
"401 698 LINE",
"390 678 OFFCURVE",
"386 658 OFFCURVE",
"386 635 CURVE",
"425 635 OFFCURVE",
"454 616 OFFCURVE",
"454 582 CURVE SMOOTH",
"454 577 OFFCURVE",
"453 569 OFFCURVE",
"451 563 CURVE SMOOTH",
"349 175 LINE",
"235 575 LINE SMOOTH",
"234 580 OFFCURVE",
"232 586 OFFCURVE",
"232 591 CURVE SMOOTH",
"232 614 OFFCURVE",
"247 635 OFFCURVE",
"282 635 CURVE",
"282 658 OFFCURVE",
"273 682 OFFCURVE",
"265 698 CURVE",
"5 698 LINE",
"-7 678 OFFCURVE",
"-10 658 OFFCURVE",
"-10 635 CURVE",
"35 635 OFFCURVE",
"52 623 OFFCURVE",
"63 588 CURVE SMOOTH",
"256 -7 LINE",
"295 -7 LINE SMOOTH",
"362 -7 OFFCURVE",
"404 36 OFFCURVE",
"431 130 CURVE SMOOTH",
"514 416 LINE {name = hr00;}"
);
}
);
width = 1030;
}
);
leftKerningGroup = W;
rightKerningGroup = W;
unicode = 0057;
},
{
glyphname = X;
lastChange = "2018-06-07 16:02:18 +0000";
layers = (
{
anchors = (
{
name = btm;
position = "{357, 0}";
},
{
name = top;
position = "{361, 963}";
}
);
layerId = "184835E3-72D9-430C-A639-2454AC4A0BE8";
paths = (
{
closed = 1;
nodes = (
"400 411 LINE",
"402 326 LINE",
"581 585 LINE SMOOTH",
"605 620 OFFCURVE",
"624 635 OFFCURVE",
"679 635 CURVE",
"679 659 OFFCURVE",
"670 682 OFFCURVE",
"655 698 CURVE",
"427 698 LINE",
"412 682 OFFCURVE",
"404 659 OFFCURVE",
"404 635 CURVE",
"435 635 OFFCURVE",
"452 619 OFFCURVE",
"452 598 CURVE SMOOTH",
"452 590 OFFCURVE",
"451 581 OFFCURVE",
"445 572 CURVE",
"354 403 LINE",
"404 405 LINE",
"295 572 LINE SMOOTH",
"286 585 OFFCURVE",
"279 598 OFFCURVE",
"279 609 CURVE SMOOTH",
"279 624 OFFCURVE",
"293 635 OFFCURVE",
"335 635 CURVE",
"335 659 OFFCURVE",
"326 682 OFFCURVE",
"311 698 CURVE",
"27 698 LINE",
"13 682 OFFCURVE",
"5 659 OFFCURVE",
"5 635 CURVE",
"44 635 OFFCURVE",
"80 617 OFFCURVE",
"109 574 CURVE SMOOTH",
"297 300 LINE",
"298 385 LINE",
"107 113 LINE SMOOTH",
"82 77 OFFCURVE",
"63 64 OFFCURVE",
"9 64 CURVE",
"9 40 OFFCURVE",
"18 16 OFFCURVE",
"33 0 CURVE",
"260 0 LINE",
"275 16 OFFCURVE",
"283 40 OFFCURVE",
"283 64 CURVE",
"252 64 OFFCURVE",
"234 80 OFFCURVE",
"234 101 CURVE SMOOTH",
"234 109 OFFCURVE",
"237 118 OFFCURVE",
"243 127 CURVE SMOOTH",
"355 300 LINE",
"296 299 LINE",
"415 127 LINE SMOOTH",
"424 114 OFFCURVE",
"429 102 OFFCURVE",
"429 91 CURVE SMOOTH",
"429 75 OFFCURVE",
"415 64 OFFCURVE",
"375 64 CURVE",
"375 40 OFFCURVE",
"384 16 OFFCURVE",
"399 0 CURVE",
"683 0 LINE",
"697 16 OFFCURVE",
"705 40 OFFCURVE",
"705 64 CURVE",
"662 64 OFFCURVE",
"622 90 OFFCURVE",
"597 126 CURVE SMOOTH"
);
}
);
width = 710;
}
);
leftKerningGroup = X;
rightKerningGroup = X;
unicode = 0058;
},
{
glyphname = Y;
lastChange = "2018-06-07 16:02:23 +0000";
layers = (
{
anchors = (
{
name = btm;
position = "{330, 0}";
},
{
name = top;
position = "{360, 963}";
}
);
layerId = "184835E3-72D9-430C-A639-2454AC4A0BE8";
paths = (
{
closed = 1;
nodes = (
"438 698 LINE",
"423 682 OFFCURVE",
"415 659 OFFCURVE",
"415 635 CURVE",
"446 635 OFFCURVE",
"474 616 OFFCURVE",
"474 591 CURVE SMOOTH",
"474 585 OFFCURVE",
"472 578 OFFCURVE",
"469 572 CURVE SMOOTH",
"339 336 LINE",
"386 335 LINE",
"279 546 LINE SMOOTH",
"269 566 OFFCURVE",
"263 583 OFFCURVE",
"263 596 CURVE SMOOTH",
"263 622 OFFCURVE",
"282 635 OFFCURVE",
"323 635 CURVE",
"323 659 OFFCURVE",
"315 682 OFFCURVE",
"300 698 CURVE",
"14 698 LINE",
"-1 682 OFFCURVE",
"-10 659 OFFCURVE",
"-10 635 CURVE",
"17 635 OFFCURVE",
"49 617 OFFCURVE",
"64 591 CURVE SMOOTH",
"284 210 LINE",
"263 306 LINE",
"263 114 LINE SMOOTH",
"263 77 OFFCURVE",
"215 64 OFFCURVE",
"171 64 CURVE",
"171 40 OFFCURVE",
"179 16 OFFCURVE",
"193 0 CURVE",
"494 0 LINE",
"508 16 OFFCURVE",
"516 40 OFFCURVE",
"516 64 CURVE",
"469 64 OFFCURVE",
"420 77 OFFCURVE",
"420 114 CURVE SMOOTH",
"420 309 LINE",
"389 213 LINE",
"594 585 LINE SMOOTH {name = hr00;}",
"615 624 OFFCURVE",
"617 635 OFFCURVE",
"671 635 CURVE",
"671 659 OFFCURVE",
"662 682 OFFCURVE",
"647 698 CURVE"
);
}
);
width = 661;
}
);
leftKerningGroup = Y;
rightKerningGroup = Y;
unicode = 0059;
},
{
glyphname = Z;
lastChange = "2018-06-07 15:02:57 +0000";
layers = (
{
anchors = (
{
name = btm;
position = "{343, -12}";
},
{
name = top;
position = "{343, 963}";
}
);
layerId = "184835E3-72D9-430C-A639-2454AC4A0BE8";
paths = (
{
closed = 1;
nodes = (
"628 661 LINE",
"603 698 LINE",
"114 698 LINE",
"92 654 OFFCURVE",
"76 563 OFFCURVE",
"76 473 CURVE",
"170 473 LINE",
"184 572 OFFCURVE",
"236 619 OFFCURVE",
"323 619 CURVE SMOOTH",
"420 619 LINE",
"54 38 LINE",
"79 0 LINE",
"515 0 LINE",
"539 -11 OFFCURVE",
"566 -16 OFFCURVE",
"590 -16 CURVE",
"608 20 OFFCURVE",
"632 200 OFFCURVE",
"632 239 CURVE",
"542 239 LINE",
"523 182 OFFCURVE",
"475 79 OFFCURVE",
"408 79 CURVE",
"274 79 LINE {name = hr00;}"
);
}
);
width = 686;
}
);
leftKerningGroup = Z;
rightKerningGroup = Z;
unicode = 005A;
},
{
glyphname = a;
lastChange = "2018-06-08 16:48:39 +0000";
layers = (
{
anchors = (
{
name = btm;
position = "{310, 0}";
},
{
name = top;
position = "{267, 822}";
}
);
layerId = "184835E3-72D9-430C-A639-2454AC4A0BE8";
paths = (
{
closed = 1;
nodes = (
"20 54 OFFCURVE",
"88 -7 OFFCURVE",
"188 -7 CURVE SMOOTH",
"248 -7 OFFCURVE",
"292 16 OFFCURVE",
"319 40 CURVE",
"337 10 OFFCURVE",
"370 -7 OFFCURVE",
"415 -7 CURVE SMOOTH",
"454 -7 OFFCURVE",
"501 6 OFFCURVE",
"519 31 CURVE",
"519 63 LINE",
"488 70 OFFCURVE",
"473 90 OFFCURVE",
"473 121 CURVE SMOOTH",
"473 386 LINE SMOOTH",
"473 490 OFFCURVE",
"405 545 OFFCURVE",
"272 545 CURVE SMOOTH",
"122 545 OFFCURVE",
"56 477 OFFCURVE",
"56 410 CURVE SMOOTH",
"56 364 OFFCURVE",
"89 329 OFFCURVE",
"140 329 CURVE SMOOTH",
"185 329 OFFCURVE",
"221 359 OFFCURVE",
"221 403 CURVE SMOOTH",
"221 426 OFFCURVE",
"210 449 OFFCURVE",
"183 458 CURVE",
"196 468 OFFCURVE",
"216 474 OFFCURVE",
"237 474 CURVE SMOOTH",
"278 474 OFFCURVE",
"307 453 OFFCURVE",
"307 397 CURVE SMOOTH",
"307 264 LINE",
"280 278 OFFCURVE",
"233 286 OFFCURVE",
"194 286 CURVE SMOOTH",
"75 286 OFFCURVE",
"20 227 OFFCURVE",
"20 141 CURVE SMOOTH {name = hr00;}"
);
},
{
closed = 1;
nodes = (
"294 80 OFFCURVE",
"272 74 OFFCURVE",
"253 74 CURVE SMOOTH",
"213 74 OFFCURVE",
"187 100 OFFCURVE",
"187 136 CURVE SMOOTH",
"187 182 OFFCURVE",
"216 204 OFFCURVE",
"251 204 CURVE SMOOTH",
"271 204 OFFCURVE",
"293 196 OFFCURVE",
"307 187 CURVE",
"307 90 LINE"
);
}
);
width = 535;
}
);
leftKerningGroup = a;
rightKerningGroup = n;
unicode = 0061;
},
{
glyphname = aogonek;
lastChange = "2018-06-07 15:02:57 +0000";
layers = (
{
anchors = (
{
name = btm;
position = "{427.142, 46.484}";
}
);
background = {
paths = (
{
closed = 1;
nodes = (
"488.403 -41.033 LINE",
"530.52 -66.559 LINE",
"497.337 -103.024 OFFCURVE",
"456.496 -110.317 OFFCURVE",
"425.865 -110.317 CURVE SMOOTH",
"388.853 -110.317 OFFCURVE",
"368.433 -99.377 OFFCURVE",
"368.433 -68.99 CURVE SMOOTH",
"368.433 -31.309 OFFCURVE",
"423.313 3.941 OFFCURVE",
"488.403 19.742 CURVE",
"438.628 47.699 LINE",
"387.577 24.604 LINE",
"298.237 2.725 OFFCURVE",
"265.054 -48.326 OFFCURVE",
"265.054 -92.084 CURVE SMOOTH",
"265.054 -154.075 OFFCURVE",
"316.105 -199.049 OFFCURVE",
"411.826 -199.049 CURVE SMOOTH",
"461.601 -199.049 OFFCURVE",
"501.166 -185.678 OFFCURVE",
"511.376 -167.446 CURVE",
"488.403 -233.083 LINE"
);
}
);
};
components = (
{
name = a;
}
);
layerId = "184835E3-72D9-430C-A639-2454AC4A0BE8";
paths = (
{
closed = 1;
nodes = (
"456 37 LINE",
"409 37 OFFCURVE",
"272 -5 OFFCURVE",
"272 -119 CURVE SMOOTH",
"272 -197 OFFCURVE",
"337 -227 OFFCURVE",
"396 -227 CURVE SMOOTH",
"441 -227 OFFCURVE",
"480 -212 OFFCURVE",
"496 -196 CURVE SMOOTH",
"509 -183 OFFCURVE",
"513 -165 OFFCURVE",
"513 -147 CURVE SMOOTH",
"513 -135 OFFCURVE",
"511 -119 OFFCURVE",
"505 -111 CURVE",
"494 -120 OFFCURVE",
"467 -128 OFFCURVE",
"441 -128 CURVE SMOOTH",
"411 -128 OFFCURVE",
"381 -118 OFFCURVE",
"381 -91 CURVE SMOOTH",
"381 -49 OFFCURVE",
"409 -12 OFFCURVE",
"467 3 CURVE"
);
}
);
width = 522;
}
);
unicode = 0105;
},
{
glyphname = ae;
lastChange = "2018-06-07 15:02:57 +0000";
layers = (
{
anchors = (
{
name = btm;
position = "{430, -5}";
},
{
name = top;
position = "{427, 822}";
}
);
layerId = "184835E3-72D9-430C-A639-2454AC4A0BE8";
paths = (
{
closed = 1;
nodes = (
"68 49 OFFCURVE",
"133 -15 OFFCURVE",
"237 -15 CURVE SMOOTH",
"335 -15 OFFCURVE",
"413 43 OFFCURVE",
"462 108 CURVE",
"517 113 LINE",
"517 360 LINE SMOOTH",
"517 465 OFFCURVE",
"456 543 OFFCURVE",
"310 543 CURVE SMOOTH",
"173 543 OFFCURVE",
"103 474 OFFCURVE",
"103 408 CURVE SMOOTH",
"103 363 OFFCURVE",
"136 327 OFFCURVE",
"186 327 CURVE SMOOTH",
"231 327 OFFCURVE",
"267 357 OFFCURVE",
"267 400 CURVE SMOOTH",
"267 424 OFFCURVE",
"257 448 OFFCURVE",
"230 456 CURVE",
"243 466 OFFCURVE",
"263 472 OFFCURVE",
"283 472 CURVE SMOOTH",
"325 472 OFFCURVE",
"352 450 OFFCURVE",
"352 395 CURVE SMOOTH",
"352 263 LINE",
"326 277 OFFCURVE",
"280 285 OFFCURVE",
"241 285 CURVE SMOOTH",
"133 285 OFFCURVE",
"68 222 OFFCURVE",
"68 136 CURVE SMOOTH {name = hr01;}"
);
},
{
closed = 1;
nodes = (
"339 74 OFFCURVE",
"321 66 OFFCURVE",
"297 66 CURVE SMOOTH",
"263 66 OFFCURVE",
"233 90 OFFCURVE",
"233 135 CURVE SMOOTH",
"233 180 OFFCURVE",
"262 203 OFFCURVE",
"298 203 CURVE SMOOTH",
"317 203 OFFCURVE",
"339 195 OFFCURVE",
"352 186 CURVE",
"352 88 LINE"
);
},
{
closed = 1;
nodes = (
"414 35 OFFCURVE",
"491 -15 OFFCURVE",
"592 -15 CURVE SMOOTH",
"707 -15 OFFCURVE",
"778 51 OFFCURVE",
"778 86 CURVE SMOOTH",
"778 97 OFFCURVE",
"770 126 OFFCURVE",
"759 136 CURVE {name = hr02;}",
"724 111 OFFCURVE",
"687 96 OFFCURVE",
"642 96 CURVE SMOOTH",
"566 96 OFFCURVE",
"517 140 OFFCURVE",
"517 265 CURVE SMOOTH",
"517 307 LINE SMOOTH",
"517 439 OFFCURVE",
"555 472 OFFCURVE",
"592 472 CURVE SMOOTH",
"620 472 OFFCURVE",
"646 452 OFFCURVE",
"646 369 CURVE SMOOTH",
"646 342 OFFCURVE",
"643 324 OFFCURVE",
"620 324 CURVE SMOOTH",
"464 324 LINE",
"460 248 LINE",
"727 248 LINE SMOOTH",
"780 248 OFFCURVE",
"792 292 OFFCURVE",
"792 343 CURVE SMOOTH",
"792 470 OFFCURVE",
"718 543 OFFCURVE",
"601 543 CURVE SMOOTH",
"493 543 OFFCURVE",
"414 482 OFFCURVE",
"374 367 CURVE",
"376 121 LINE"
);
}
);
width = 860;
}
);
leftKerningGroup = a;
rightKerningGroup = e;
unicode = 00E6;
userData = {
com.typemytype.robofont.guides = (
{
angle = 90;
isGlobal = 0;
magnetic = 5;
x = 938;
y = 0;
}
);
};
},
{
glyphname = b;
lastChange = "2018-06-08 16:41:50 +0000";
layers = (
{
anchors = (
{
name = btm;
position = "{278, -6}";
},
{
name = top;
position = "{390, 822}";
}
);
layerId = "184835E3-72D9-430C-A639-2454AC4A0BE8";
paths = (
{
closed = 1;
nodes = (
"289 540 OFFCURVE",
"252 529 OFFCURVE",
"225 501 CURVE",
"228 596 LINE",
"228 738 LINE SMOOTH",
"228 771 OFFCURVE",
"216 784 OFFCURVE",
"184 784 CURVE SMOOTH",
"141 784 OFFCURVE",
"51 758 OFFCURVE",
"6 727 CURVE",
"6 695 LINE",
"50 695 OFFCURVE",
"67 676 OFFCURVE",
"67 646 CURVE SMOOTH",
"67 22 LINE",
"114 -1 OFFCURVE",
"214 -13 OFFCURVE",
"273 -13 CURVE SMOOTH",
"422 -13 OFFCURVE",
"541 91 OFFCURVE",
"541 283 CURVE SMOOTH",
"541 458 OFFCURVE",
"445 540 OFFCURVE",
"335 540 CURVE SMOOTH"
);
},
{
closed = 1;
nodes = (
"257 60 OFFCURVE",
"241 66 OFFCURVE",
"228 79 CURVE",
"228 444 LINE",
"238 451 OFFCURVE",
"251 455 OFFCURVE",
"266 455 CURVE SMOOTH",
"327 455 OFFCURVE",
"374 395 OFFCURVE",
"374 249 CURVE SMOOTH",
"374 106 OFFCURVE",
"330 60 OFFCURVE",
"276 60 CURVE SMOOTH"
);
}
);
width = 569;
}
);
leftKerningGroup = h;
rightKerningGroup = o;
unicode = 0062;
},
{
glyphname = c;
lastChange = "2018-06-07 18:18:48 +0000";
layers = (
{
anchors = (
{
name = btm;
position = "{255, 0}";
},
{
name = top;
position = "{270, 822}";
}
);
layerId = "184835E3-72D9-430C-A639-2454AC4A0BE8";
paths = (
{
closed = 1;
nodes = (
"396 107 OFFCURVE",
"356 96 OFFCURVE",
"320 96 CURVE SMOOTH",
"243 96 OFFCURVE",
"195 148 OFFCURVE",
"195 295 CURVE SMOOTH",
"195 431 OFFCURVE",
"243 472 OFFCURVE",
"281 472 CURVE SMOOTH",
"289 472 OFFCURVE",
"296 471 OFFCURVE",
"310 463 CURVE",
"293 450 OFFCURVE",
"280 432 OFFCURVE",
"280 402 CURVE SMOOTH",
"280 359 OFFCURVE",
"311 326 OFFCURVE",
"356 326 CURVE SMOOTH",
"406 326 OFFCURVE",
"442 360 OFFCURVE",
"442 422 CURVE SMOOTH",
"442 490 OFFCURVE",
"387 543 OFFCURVE",
"285 543 CURVE SMOOTH",
"137 543 OFFCURVE",
"25 438 OFFCURVE",
"25 260 CURVE SMOOTH",
"25 88 OFFCURVE",
"126 -15 OFFCURVE",
"272 -15 CURVE SMOOTH",
"365 -15 OFFCURVE",
"440 34 OFFCURVE",
"440 77 CURVE SMOOTH",
"440 91 OFFCURVE",
"432 114 OFFCURVE",
"421 127 CURVE {name = hr00;}"
);
}
);
width = 458;
}
);
leftKerningGroup = o;
leftMetricsKey = o;
rightKerningGroup = c;
unicode = 0063;
},
{
glyphname = d;
lastChange = "2018-06-08 16:47:14 +0000";
layers = (
{
anchors = (
{
name = btm;
position = "{342, 0}";
},
{
name = car;
position = "{569, 712}";
},
{
name = top;
position = "{141, 822}";
}
);
layerId = "184835E3-72D9-430C-A639-2454AC4A0BE8";
paths = (
{
closed = 1;
nodes = (
"526 59 OFFCURVE",
"509 79 OFFCURVE",
"509 111 CURVE SMOOTH",
"509 739 LINE SMOOTH",
"509 772 OFFCURVE",
"496 785 OFFCURVE",
"465 785 CURVE SMOOTH",
"422 785 OFFCURVE",
"330 763 OFFCURVE",
"281 736 CURVE",
"281 695 LINE",
"336 695 OFFCURVE",
"348 676 OFFCURVE",
"348 646 CURVE SMOOTH",
"348 596 LINE",
"351 536 LINE",
"329 538 OFFCURVE",
"307 540 OFFCURVE",
"290 540 CURVE SMOOTH",
"151 540 OFFCURVE",
"30 441 OFFCURVE",
"30 239 CURVE SMOOTH",
"30 69 OFFCURVE",
"123 -13 OFFCURVE",
"232 -13 CURVE SMOOTH",
"286 -13 OFFCURVE",
"327 -3 OFFCURVE",
"355 34 CURVE",
"371 2 OFFCURVE",
"416 -13 OFFCURVE",
"453 -13 CURVE SMOOTH",
"493 -13 OFFCURVE",
"539 0 OFFCURVE",
"558 25 CURVE",
"557 53 LINE"
);
},
{
closed = 1;
nodes = (
"241 72 OFFCURVE",
"195 136 OFFCURVE",
"195 274 CURVE SMOOTH",
"195 420 OFFCURVE",
"238 469 OFFCURVE",
"292 469 CURVE SMOOTH",
"316 469 OFFCURVE",
"334 459 OFFCURVE",
"348 440 CURVE",
"348 90 LINE",
"338 79 OFFCURVE",
"322 72 OFFCURVE",
"301 72 CURVE SMOOTH"
);
}
);
width = 568;
}
);
leftKerningGroup = o;
rightKerningGroup = l;
unicode = 0064;
},
{
glyphname = eth;
lastChange = "2018-06-07 18:18:44 +0000";
layers = (
{
anchors = (
{
name = btm;
position = "{272, -5}";
},
{
name = top;
position = "{272, 970}";
}
);
layerId = "184835E3-72D9-430C-A639-2454AC4A0BE8";
paths = (
{
closed = 1;
nodes = (
"443 789 OFFCURVE",
"427 800 OFFCURVE",
"407 811 CURVE",
"156 646 LINE",
"156 632 OFFCURVE",
"178 599 OFFCURVE",
"202 595 CURVE",
"449 760 LINE {name = hr00;}"
);
},
{
closed = 1;
nodes = (
"237 57 OFFCURVE",
"202 92 OFFCURVE",
"202 248 CURVE SMOOTH",
"202 405 OFFCURVE",
"229 438 OFFCURVE",
"277 438 CURVE SMOOTH",
"314 438 OFFCURVE",
"360 420 OFFCURVE",
"360 339 CURVE",
"388 386 LINE",
"388 461 OFFCURVE",
"331 510 OFFCURVE",
"247 510 CURVE SMOOTH",
"134 510 OFFCURVE",
"25 419 OFFCURVE",
"25 240 CURVE SMOOTH",
"25 80 OFFCURVE",
"128 -15 OFFCURVE",
"275 -15 CURVE SMOOTH",
"425 -15 OFFCURVE",
"520 90 OFFCURVE",
"520 296 CURVE SMOOTH",
"520 604 OFFCURVE",
"333 803 OFFCURVE",
"189 803 CURVE SMOOTH",
"155 803 OFFCURVE",
"140 792 OFFCURVE",
"128 758 CURVE",
"319 669 OFFCURVE",
"360 495 OFFCURVE",
"360 339 CURVE SMOOTH",
"360 92 OFFCURVE",
"336 57 OFFCURVE",
"280 57 CURVE SMOOTH"
);
}
);
width = 545;
}
);
leftKerningGroup = eth;
leftMetricsKey = o;
rightKerningGroup = eth;
rightMetricsKey = o;
unicode = 00F0;
},
{
glyphname = dcroat;
lastChange = "2018-06-08 16:44:34 +0000";
layers = (
{
components = (
{
name = d;
}
);
layerId = "184835E3-72D9-430C-A639-2454AC4A0BE8";
paths = (
{
closed = 1;
nodes = (
"240 631 OFFCURVE",
"238 620 OFFCURVE",
"238 601 CURVE SMOOTH",
"238 585 OFFCURVE",
"240 573 OFFCURVE",
"244 562 CURVE",
"559 562 LINE",
"562 571 OFFCURVE",
"564 584 OFFCURVE",
"564 601 CURVE SMOOTH",
"564 618 OFFCURVE",
"562 629 OFFCURVE",
"558 640 CURVE",
"245 640 LINE {name = hr00;}"
);
}
);
width = 568;
}
);
unicode = 0111;
},
{
glyphname = e;
lastChange = "2018-06-08 16:49:14 +0000";
layers = (
{
anchors = (
{
name = btm;
position = "{254, 0}";
},
{
name = top;
position = "{270, 822}";
}
);
layerId = "184835E3-72D9-430C-A639-2454AC4A0BE8";
paths = (
{
closed = 1;
nodes = (
"245 95 OFFCURVE",
"197 135 OFFCURVE",
"193 247 CURVE",
"407 247 LINE SMOOTH",
"459 247 OFFCURVE",
"471 291 OFFCURVE",
"471 342 CURVE SMOOTH",
"471 469 OFFCURVE",
"394 542 OFFCURVE",
"274 542 CURVE SMOOTH",
"130 542 OFFCURVE",
"25 434 OFFCURVE",
"25 260 CURVE SMOOTH",
"25 91 OFFCURVE",
"119 -16 OFFCURVE",
"268 -16 CURVE SMOOTH",
"383 -16 OFFCURVE",
"454 50 OFFCURVE",
"454 83 CURVE SMOOTH",
"454 97 OFFCURVE",
"446 124 OFFCURVE",
"434 135 CURVE {name = hr00;}",
"400 110 OFFCURVE",
"362 95 OFFCURVE",
"317 95 CURVE SMOOTH"
);
},
{
closed = 1;
nodes = (
"296 473 OFFCURVE",
"320 453 OFFCURVE",
"320 368 CURVE SMOOTH",
"320 342 OFFCURVE",
"317 323 OFFCURVE",
"294 323 CURVE SMOOTH",
"193 323 LINE",
"196 441 OFFCURVE",
"233 473 OFFCURVE",
"268 473 CURVE SMOOTH"
);
}
);
width = 495;
}
);
leftKerningGroup = o;
leftMetricsKey = o;
rightKerningGroup = e;
unicode = 0065;
},
{
glyphname = eogonek;
lastChange = "2018-06-07 15:02:57 +0000";
layers = (
{
components = (
{
name = e;
}
);
layerId = "184835E3-72D9-430C-A639-2454AC4A0BE8";
paths = (
{
closed = 1;
nodes = (
"360 37 LINE",
"313 37 OFFCURVE",
"176 -5 OFFCURVE",
"176 -119 CURVE SMOOTH",
"176 -197 OFFCURVE",
"241 -227 OFFCURVE",
"300 -227 CURVE SMOOTH",
"345 -227 OFFCURVE",
"384 -212 OFFCURVE",
"400 -196 CURVE SMOOTH",
"413 -183 OFFCURVE",
"417 -165 OFFCURVE",
"417 -147 CURVE SMOOTH",
"417 -135 OFFCURVE",
"415 -119 OFFCURVE",
"409 -111 CURVE",
"398 -120 OFFCURVE",
"371 -128 OFFCURVE",
"345 -128 CURVE SMOOTH",
"315 -128 OFFCURVE",
"285 -118 OFFCURVE",
"285 -91 CURVE SMOOTH",
"285 -49 OFFCURVE",
"313 -12 OFFCURVE",
"371 3 CURVE"
);
}
);
width = 494;
}
);
unicode = 0119;
},
{
glyphname = schwa;
lastChange = "2018-06-07 18:18:53 +0000";
layers = (
{
anchors = (
{
name = btm;
position = "{248, -5}";
}
);
layerId = "184835E3-72D9-430C-A639-2454AC4A0BE8";
paths = (
{
closed = 1;
nodes = (
"113 543 OFFCURVE",
"42 476 OFFCURVE",
"42 444 CURVE SMOOTH",
"42 430 OFFCURVE",
"50 403 OFFCURVE",
"62 391 CURVE {name = hr00;}",
"96 417 OFFCURVE",
"134 432 OFFCURVE",
"179 432 CURVE SMOOTH",
"251 432 OFFCURVE",
"299 392 OFFCURVE",
"303 280 CURVE",
"89 280 LINE SMOOTH",
"37 280 OFFCURVE",
"25 236 OFFCURVE",
"25 185 CURVE SMOOTH",
"25 58 OFFCURVE",
"102 -15 OFFCURVE",
"222 -15 CURVE SMOOTH",
"366 -15 OFFCURVE",
"471 93 OFFCURVE",
"471 266 CURVE SMOOTH",
"471 436 OFFCURVE",
"377 543 OFFCURVE",
"228 543 CURVE SMOOTH"
);
},
{
closed = 1;
nodes = (
"200 54 OFFCURVE",
"176 74 OFFCURVE",
"176 159 CURVE SMOOTH",
"176 185 OFFCURVE",
"179 204 OFFCURVE",
"202 204 CURVE SMOOTH",
"303 204 LINE",
"300 86 OFFCURVE",
"263 54 OFFCURVE",
"228 54 CURVE SMOOTH"
);
}
);
width = 496;
}
);
leftKerningGroup = uni0259;
leftMetricsKey = o;
rightKerningGroup = uni0259;
rightMetricsKey = o;
unicode = 0259;
},
{
glyphname = f;
lastChange = "2018-06-08 16:46:20 +0000";
layers = (
{
anchors = (
{
name = btm;
position = "{192, 0}";
},
{
name = top;
position = "{191, 975}";
}
);
layerId = "184835E3-72D9-430C-A639-2454AC4A0BE8";
paths = (
{
closed = 1;
nodes = (
"330 450 LINE",
"345 473 OFFCURVE",
"347 510 OFFCURVE",
"347 540 CURVE",
"251 540 LINE SMOOTH",
"238 540 OFFCURVE",
"218 586 OFFCURVE",
"218 647 CURVE SMOOTH",
"218 703 OFFCURVE",
"246 750 OFFCURVE",
"282 750 CURVE SMOOTH {name = hr02;}",
"291 750 OFFCURVE",
"304 745 OFFCURVE",
"308 737 CURVE",
"279 716 OFFCURVE",
"276 692 OFFCURVE",
"276 674 CURVE SMOOTH",
"276 633 OFFCURVE",
"315 603 OFFCURVE",
"358 603 CURVE SMOOTH",
"406 603 OFFCURVE",
"436 644 OFFCURVE",
"436 697 CURVE SMOOTH",
"436 752 OFFCURVE",
"382 822 OFFCURVE",
"278 822 CURVE SMOOTH",
"158 822 OFFCURVE",
"77 754 OFFCURVE",
"77 615 CURVE SMOOTH",
"77 580 OFFCURVE",
"87 555 OFFCURVE",
"87 506 CURVE",
"98 549 LINE",
"76 532 OFFCURVE",
"63 521 OFFCURVE",
"26 512 CURVE",
"26 450 LINE {name = hr03;}",
"138 450 LINE",
"87 501 LINE",
"87 109 LINE SMOOTH",
"87 70 OFFCURVE",
"72 54 OFFCURVE",
"32 54 CURVE",
"32 33 OFFCURVE",
"40 15 OFFCURVE",
"55 0 CURVE",
"319 0 LINE",
"334 15 OFFCURVE",
"342 33 OFFCURVE",
"342 54 CURVE",
"262 54 OFFCURVE",
"248 73 OFFCURVE",
"248 118 CURVE SMOOTH",
"248 501 LINE {name = hr01;}",
"197 450 LINE {name = hr01;}"
);
}
);
width = 360;
}
);
leftKerningGroup = f;
rightKerningGroup = f;
unicode = 0066;
},
{
glyphname = g;
lastChange = "2018-06-08 16:21:31 +0000";
layers = (
{
anchors = (
{
name = btm;
position = "{267, -133}";
},
{
name = top;
position = "{275, 822}";
}
);
layerId = "184835E3-72D9-430C-A639-2454AC4A0BE8";
paths = (
{
closed = 1;
nodes = (
"396 169 OFFCURVE",
"486 236 OFFCURVE",
"486 361 CURVE SMOOTH",
"486 438 OFFCURVE",
"406 543 OFFCURVE",
"254 543 CURVE SMOOTH",
"253 543 LINE SMOOTH",
"107 543 OFFCURVE",
"32 460 OFFCURVE",
"32 359 CURVE SMOOTH",
"32 257 OFFCURVE",
"114 169 OFFCURVE",
"245 169 CURVE SMOOTH"
);
},
{
closed = 1;
nodes = (
"221 235 OFFCURVE",
"201 275 OFFCURVE",
"201 348 CURVE SMOOTH {name = hr00;}",
"201 428 OFFCURVE",
"218 477 OFFCURVE",
"262 477 CURVE SMOOTH",
"300 477 OFFCURVE",
"324 447 OFFCURVE",
"324 373 CURVE SMOOTH",
"324 282 OFFCURVE",
"306 235 OFFCURVE",
"262 235 CURVE SMOOTH"
);
},
{
closed = 1;
nodes = (
"409 -249 OFFCURVE",
"526 -166 OFFCURVE",
"526 -56 CURVE SMOOTH",
"526 47 OFFCURVE",
"435 83 OFFCURVE",
"278 107 CURVE SMOOTH",
"213 117 OFFCURVE",
"182 124 OFFCURVE",
"182 158 CURVE SMOOTH",
"182 174 OFFCURVE",
"189 189 OFFCURVE",
"201 198 CURVE",
"174 189 LINE",
"109 189 OFFCURVE",
"79 144 OFFCURVE",
"79 115 CURVE SMOOTH",
"79 57 OFFCURVE",
"91 15 OFFCURVE",
"226 -8 CURVE SMOOTH",
"309 -22 OFFCURVE",
"377 -36 OFFCURVE",
"377 -83 CURVE SMOOTH",
"377 -124 OFFCURVE",
"353 -164 OFFCURVE",
"287 -164 CURVE SMOOTH",
"198 -164 OFFCURVE",
"166 -118 OFFCURVE",
"166 -59 CURVE SMOOTH",
"166 -26 OFFCURVE",
"166 15 OFFCURVE",
"218 31 CURVE",
"189 46 LINE",
"77 40 OFFCURVE",
"22 -18 OFFCURVE",
"22 -86 CURVE SMOOTH",
"22 -179 OFFCURVE",
"108 -249 OFFCURVE",
"267 -249 CURVE SMOOTH"
);
},
{
closed = 1;
nodes = (
"545 537 CURVE SMOOTH",
"545 554 OFFCURVE",
"538 569 OFFCURVE",
"524 569 CURVE",
"440 557 OFFCURVE",
"449 539 OFFCURVE",
"274 539 CURVE",
"353 486 LINE",
"392 493 LINE SMOOTH",
"404 495 OFFCURVE",
"489 480 OFFCURVE",
"502 480 CURVE SMOOTH",
"530 480 OFFCURVE",
"545 511 OFFCURVE"
);
}
);
width = 529;
}
);
leftKerningGroup = g;
rightKerningGroup = g;
unicode = 0067;
},
{
glyphname = h;
lastChange = "2018-06-08 16:42:02 +0000";
layers = (
{
anchors = (
{
name = btm;
position = "{328, 0}";
},
{
name = top;
position = "{308, 967}";
}
);
layerId = "184835E3-72D9-430C-A639-2454AC4A0BE8";
paths = (
{
closed = 1;
nodes = (
"545 488 OFFCURVE",
"497 536 OFFCURVE",
"403 536 CURVE SMOOTH",
"326 536 OFFCURVE",
"266 506 OFFCURVE",
"233 457 CURVE",
"235 384 LINE",
"252 417 OFFCURVE",
"285 438 OFFCURVE",
"315 438 CURVE SMOOTH",
"354 438 OFFCURVE",
"383 414 OFFCURVE",
"383 371 CURVE SMOOTH",
"383 30 LINE SMOOTH",
"383 -14 OFFCURVE",
"421 -22 OFFCURVE",
"471 -22 CURVE SMOOTH",
"519 -22 OFFCURVE",
"570 -10 OFFCURVE",
"594 12 CURVE",
"592 40 LINE",
"561 46 OFFCURVE",
"545 65 OFFCURVE",
"545 98 CURVE SMOOTH",
"545 400 LINE SMOOTH {name = hr00;}"
);
},
{
closed = 1;
nodes = (
"85 61 OFFCURVE",
"70 46 OFFCURVE",
"30 46 CURVE",
"30 24 OFFCURVE",
"38 7 OFFCURVE",
"53 -8 CURVE",
"277 -8 LINE",
"292 7 OFFCURVE",
"300 24 OFFCURVE",
"300 46 CURVE",
"260 46 OFFCURVE",
"245 61 OFFCURVE",
"245 100 CURVE SMOOTH",
"245 426 LINE",
"242 441 LINE",
"245 537 LINE",
"245 734 LINE SMOOTH",
"245 767 OFFCURVE",
"232 780 OFFCURVE",
"202 780 CURVE SMOOTH",
"157 780 OFFCURVE",
"67 758 OFFCURVE",
"18 732 CURVE",
"18 691 LINE",
"73 691 OFFCURVE",
"85 672 OFFCURVE",
"85 642 CURVE SMOOTH",
"85 100 LINE SMOOTH"
);
}
);
width = 613;
}
);
leftKerningGroup = h;
rightKerningGroup = n;
rightMetricsKey = n;
unicode = 0068;
},
{
glyphname = hbar;
lastChange = "2018-06-08 16:44:22 +0000";
layers = (
{
anchors = (
{
name = _top;
position = "{179, 744}";
},
{
name = top;
position = "{179, 955}";
}
);
components = (
{
name = h;
}
);
layerId = "184835E3-72D9-430C-A639-2454AC4A0BE8";
paths = (
{
closed = 1;
nodes = (
"18 631 OFFCURVE",
"16 620 OFFCURVE",
"16 601 CURVE SMOOTH",
"16 585 OFFCURVE",
"18 573 OFFCURVE",
"22 562 CURVE",
"337 562 LINE",
"340 571 OFFCURVE",
"342 584 OFFCURVE",
"342 601 CURVE SMOOTH",
"342 618 OFFCURVE",
"340 629 OFFCURVE",
"336 640 CURVE",
"23 640 LINE {name = hr00;}"
);
}
);
width = 611;
}
);
unicode = 0127;
},
{
glyphname = i;
lastChange = "2018-06-08 16:50:33 +0000";
layers = (
{
anchors = (
{
name = btm;
position = "{158, 0}";
},
{
name = top;
position = "{155, 975}";
}
);
layerId = "184835E3-72D9-430C-A639-2454AC4A0BE8";
paths = (
{
closed = 1;
nodes = (
"240 530 OFFCURVE",
"226 543 OFFCURVE",
"195 543 CURVE SMOOTH",
"125 543 OFFCURVE",
"48 518 OFFCURVE",
"15 495 CURVE",
"15 450 LINE",
"71 450 OFFCURVE",
"79 417 OFFCURVE",
"79 386 CURVE SMOOTH",
"79 109 LINE SMOOTH",
"79 69 OFFCURVE",
"61 54 OFFCURVE",
"22 54 CURVE",
"22 31 OFFCURVE",
"30 15 OFFCURVE",
"45 0 CURVE",
"274 0 LINE",
"289 15 OFFCURVE",
"297 31 OFFCURVE",
"297 54 CURVE",
"258 54 OFFCURVE",
"240 68 OFFCURVE",
"240 108 CURVE SMOOTH",
"240 497 LINE SMOOTH {name = hr00;}"
);
},
{
closed = 1;
nodes = (
"254 763 OFFCURVE",
"217 801 OFFCURVE",
"159 801 CURVE SMOOTH",
"101 801 OFFCURVE",
"63 763 OFFCURVE",
"63 707 CURVE SMOOTH",
"63 650 OFFCURVE",
"99 613 OFFCURVE",
"157 613 CURVE SMOOTH",
"215 613 OFFCURVE",
"254 650 OFFCURVE",
"254 707 CURVE SMOOTH"
);
}
);
width = 312;
}
);
leftKerningGroup = i;
rightKerningGroup = i;
unicode = 0069;
},
{
color = 0;
glyphname = idotless;
lastChange = "2018-06-08 16:50:54 +0000";
layers = (
{
anchors = (
{
name = btm;
position = "{254, 0}";
},
{
name = top;
position = "{258, 822}";
}
);
layerId = "184835E3-72D9-430C-A639-2454AC4A0BE8";
paths = (
{
closed = 1;
nodes = (
"337 530 OFFCURVE",
"323 543 OFFCURVE",
"292 543 CURVE SMOOTH",
"248 543 OFFCURVE",
"166 522 OFFCURVE",
"117 495 CURVE",
"117 450 LINE",
"172 450 OFFCURVE",
"175 432 OFFCURVE",
"175 401 CURVE SMOOTH",
"175 109 LINE SMOOTH",
"175 69 OFFCURVE",
"160 54 OFFCURVE",
"121 54 CURVE",
"121 31 OFFCURVE",
"129 15 OFFCURVE",
"144 0 CURVE",
"368 0 LINE",
"383 15 OFFCURVE",
"391 31 OFFCURVE",
"391 54 CURVE",
"352 54 OFFCURVE",
"337 68 OFFCURVE",
"337 108 CURVE SMOOTH",
"337 497 LINE SMOOTH {name = hr00;}"
);
}
);
width = 500;
}
);
leftKerningGroup = idotless;
rightKerningGroup = idotless;
unicode = 0131;
},
{
glyphname = iogonek;
lastChange = "2018-06-07 15:02:57 +0000";
layers = (
{
components = (
{
name = idotless;
},
{
name = dotaccentcomb;
transform = "{1, 0, 0, 1, 258, 0}";
}
);
layerId = "184835E3-72D9-430C-A639-2454AC4A0BE8";
paths = (
{
closed = 1;
nodes = (
"340 37 LINE",
"293 37 OFFCURVE",
"156 -5 OFFCURVE",
"156 -119 CURVE SMOOTH",
"156 -197 OFFCURVE",
"221 -227 OFFCURVE",
"280 -227 CURVE SMOOTH",
"325 -227 OFFCURVE",
"364 -212 OFFCURVE",
"380 -196 CURVE SMOOTH",
"393 -183 OFFCURVE",
"397 -165 OFFCURVE",
"397 -147 CURVE SMOOTH",
"397 -135 OFFCURVE",
"395 -119 OFFCURVE",
"389 -111 CURVE",
"378 -120 OFFCURVE",
"351 -128 OFFCURVE",
"325 -128 CURVE SMOOTH",
"295 -128 OFFCURVE",
"265 -118 OFFCURVE",
"265 -91 CURVE SMOOTH",
"265 -49 OFFCURVE",
"293 -12 OFFCURVE",
"351 3 CURVE"
);
}
);
width = 500;
}
);
unicode = 012F;
},
{
glyphname = j;
lastChange = "2018-06-08 17:13:32 +0000";
layers = (
{
anchors = (
{
name = btm;
position = "{159, -97}";
},
{
name = top;
position = "{159, 878}";
}
);
background = {
paths = (
{
closed = 1;
nodes = (
"247 530 OFFCURVE",
"233 543 OFFCURVE",
"202 543 CURVE SMOOTH",
"158 543 OFFCURVE",
"76 522 OFFCURVE",
"27 495 CURVE",
"27 450 LINE",
"82 450 OFFCURVE",
"85 432 OFFCURVE",
"85 401 CURVE SMOOTH",
"85 109 LINE SMOOTH",
"85 69 OFFCURVE",
"70 54 OFFCURVE",
"31 54 CURVE",
"31 31 OFFCURVE",
"39 15 OFFCURVE",
"54 0 CURVE",
"278 0 LINE",
"293 15 OFFCURVE",
"301 31 OFFCURVE",
"301 54 CURVE",
"262 54 OFFCURVE",
"247 68 OFFCURVE",
"247 108 CURVE SMOOTH",
"247 497 LINE SMOOTH {name = hr00;}"
);
}
);
};
layerId = "184835E3-72D9-430C-A639-2454AC4A0BE8";
paths = (
{
closed = 1;
nodes = (
"255 749 OFFCURVE",
"218 783 OFFCURVE",
"164 783 CURVE SMOOTH",
"109 783 OFFCURVE",
"74 749 OFFCURVE",
"74 695 CURVE SMOOTH",
"74 643 OFFCURVE",
"109 606 OFFCURVE",
"164 606 CURVE SMOOTH",
"218 606 OFFCURVE",
"255 643 OFFCURVE",
"255 695 CURVE SMOOTH {name = hr00;}"
);
},
{
closed = 1;
nodes = (
"171 -188 OFFCURVE",
"245 -129 OFFCURVE",
"245 -3 CURVE SMOOTH",
"245 498 LINE SMOOTH",
"245 531 OFFCURVE",
"234 543 OFFCURVE",
"202 543 CURVE SMOOTH",
"160 543 OFFCURVE",
"69 521 OFFCURVE",
"20 496 CURVE",
"20 451 LINE",
"74 451 OFFCURVE",
"86 433 OFFCURVE",
"86 402 CURVE SMOOTH",
"86 4 LINE SMOOTH",
"86 -79 OFFCURVE",
"56 -105 OFFCURVE",
"4 -105 CURVE",
"0 -111 OFFCURVE",
"-5 -125 OFFCURVE",
"-5 -134 CURVE SMOOTH",
"-5 -159 OFFCURVE",
"22 -188 OFFCURVE",
"84 -188 CURVE SMOOTH"
);
}
);
width = 300;
}
);
unicode = 006A;
},
{
color = 0;
glyphname = jdotless;
lastChange = "2018-06-08 16:50:54 +0000";
layers = (
{
anchors = (
{
name = top;
position = "{196, 822}";
}
);
layerId = "184835E3-72D9-430C-A639-2454AC4A0BE8";
paths = (
{
closed = 1;
nodes = (
"196 -188 OFFCURVE",
"270 -129 OFFCURVE",
"270 -3 CURVE SMOOTH",
"270 498 LINE SMOOTH",
"270 531 OFFCURVE",
"259 543 OFFCURVE",
"227 543 CURVE SMOOTH",
"185 543 OFFCURVE",
"94 521 OFFCURVE",
"45 496 CURVE",
"45 451 LINE",
"99 451 OFFCURVE",
"111 433 OFFCURVE",
"111 402 CURVE SMOOTH",
"111 4 LINE SMOOTH",
"111 -79 OFFCURVE",
"81 -105 OFFCURVE",
"29 -105 CURVE",
"25 -111 OFFCURVE",
"20 -125 OFFCURVE",
"20 -134 CURVE SMOOTH",
"20 -159 OFFCURVE",
"47 -188 OFFCURVE",
"109 -188 CURVE SMOOTH"
);
}
);
width = 297;
}
);
unicode = 0237;
},
{
glyphname = k;
lastChange = "2018-06-08 16:42:15 +0000";
layers = (
{
anchors = (
{
name = btm;
position = "{330, 0}";
},
{
name = top;
position = "{303, 972}";
}
);
layerId = "184835E3-72D9-430C-A639-2454AC4A0BE8";
paths = (
{
closed = 1;
nodes = (
"345 225 OFFCURVE",
"304 -10 OFFCURVE",
"494 -10 CURVE SMOOTH",
"543 -10 OFFCURVE",
"589 6 OFFCURVE",
"593 34 CURVE",
"593 58 LINE",
"541 76 OFFCURVE",
"538 101 OFFCURVE",
"470 211 CURVE SMOOTH",
"427 279 OFFCURVE",
"386 296 OFFCURVE",
"301 296 CURVE",
"237 260 LINE {name = hr00;}"
);
},
{
closed = 1;
nodes = (
"85 65 OFFCURVE",
"70 50 OFFCURVE",
"30 50 CURVE",
"30 28 OFFCURVE",
"38 11 OFFCURVE",
"54 -3 CURVE",
"277 -3 LINE",
"292 11 OFFCURVE",
"301 28 OFFCURVE",
"301 50 CURVE",
"260 50 OFFCURVE",
"245 65 OFFCURVE",
"245 104 CURVE SMOOTH",
"245 738 LINE SMOOTH",
"245 772 OFFCURVE",
"232 785 OFFCURVE",
"200 785 CURVE SMOOTH",
"158 785 OFFCURVE",
"67 762 OFFCURVE",
"18 736 CURVE",
"18 696 LINE",
"73 696 OFFCURVE",
"85 677 OFFCURVE",
"85 646 CURVE SMOOTH",
"85 104 LINE SMOOTH"
);
},
{
closed = 1;
nodes = (
"528 461 OFFCURVE",
"542 475 OFFCURVE",
"578 475 CURVE",
"578 497 OFFCURVE",
"575 520 OFFCURVE",
"559 536 CURVE",
"334 536 LINE",
"319 520 OFFCURVE",
"311 497 OFFCURVE",
"311 475 CURVE",
"338 475 OFFCURVE",
"360 463 OFFCURVE",
"373 442 CURVE SMOOTH",
"379 433 OFFCURVE",
"364 416 OFFCURVE",
"355 407 CURVE SMOOTH",
"242 290 LINE",
"242 262 LINE",
"347 284 LINE",
"514 448 LINE SMOOTH"
);
}
);
width = 593;
}
);
leftKerningGroup = h;
leftMetricsKey = l;
rightKerningGroup = k;
unicode = 006B;
},
{
glyphname = kgreenlandic;
lastChange = "2018-06-07 15:02:57 +0000";
layers = (
{
layerId = "184835E3-72D9-430C-A639-2454AC4A0BE8";
paths = (
{
closed = 1;
nodes = (
"384 219 OFFCURVE",
"353 -13 OFFCURVE",
"541 -13 CURVE SMOOTH",
"590 -13 OFFCURVE",
"636 2 OFFCURVE",
"640 31 CURVE",
"640 59 LINE",
"588 78 OFFCURVE",
"575 98 OFFCURVE",
"506 204 CURVE SMOOTH",
"462 272 OFFCURVE",
"423 289 OFFCURVE",
"338 289 CURVE",
"277 254 LINE {name = hr00;}"
);
},
{
closed = 1;
nodes = (
"121 73 OFFCURVE",
"106 58 OFFCURVE",
"65 58 CURVE",
"65 36 OFFCURVE",
"74 15 OFFCURVE",
"89 0 CURVE",
"316 0 LINE",
"331 15 OFFCURVE",
"339 36 OFFCURVE",
"339 58 CURVE",
"299 58 OFFCURVE",
"284 73 OFFCURVE",
"284 112 CURVE SMOOTH",
"284 494 LINE SMOOTH",
"284 527 OFFCURVE",
"271 540 OFFCURVE",
"239 540 CURVE SMOOTH",
"197 540 OFFCURVE",
"102 518 OFFCURVE",
"54 492 CURVE",
"54 451 LINE",
"109 451 OFFCURVE",
"121 432 OFFCURVE",
"121 401 CURVE SMOOTH",
"121 113 LINE SMOOTH"
);
},
{
closed = 1;
nodes = (
"565 453 OFFCURVE",
"578 469 OFFCURVE",
"611 469 CURVE",
"611 490 OFFCURVE",
"607 514 OFFCURVE",
"592 529 CURVE",
"389 529 LINE",
"373 514 OFFCURVE",
"366 490 OFFCURVE",
"366 469 CURVE",
"392 469 OFFCURVE",
"410 450 OFFCURVE",
"410 430 CURVE SMOOTH",
"410 420 OFFCURVE",
"405 410 OFFCURVE",
"396 401 CURVE SMOOTH",
"281 288 LINE",
"281 255 LINE",
"384 278 LINE",
"552 441 LINE SMOOTH"
);
}
);
width = 689;
}
);
leftKerningGroup = h;
rightKerningGroup = k;
unicode = 0138;
},
{
glyphname = l;
lastChange = "2018-06-08 16:33:29 +0000";
layers = (
{
anchors = (
{
name = btm;
position = "{167, 0}";
},
{
name = car;
position = "{325, 712}";
},
{
name = top;
position = "{161, 1003}";
}
);
layerId = "184835E3-72D9-430C-A639-2454AC4A0BE8";
paths = (
{
closed = 1;
nodes = (
"86 69 OFFCURVE",
"70 54 OFFCURVE",
"31 54 CURVE",
"31 32 OFFCURVE",
"39 16 OFFCURVE",
"54 0 CURVE",
"278 0 LINE",
"293 16 OFFCURVE",
"302 32 OFFCURVE",
"302 54 CURVE",
"262 54 OFFCURVE",
"247 68 OFFCURVE",
"247 109 CURVE SMOOTH",
"247 733 LINE SMOOTH",
"247 766 OFFCURVE",
"234 778 OFFCURVE",
"203 778 CURVE SMOOTH",
"159 778 OFFCURVE",
"68 757 OFFCURVE",
"18 730 CURVE",
"18 690 LINE",
"74 690 OFFCURVE",
"86 670 OFFCURVE",
"86 640 CURVE SMOOTH",
"86 109 LINE SMOOTH {name = hr00;}"
);
}
);
width = 325;
}
);
leftKerningGroup = h;
rightKerningGroup = l;
unicode = 006C;
},
{
glyphname = lslash;
lastChange = "2018-06-07 15:02:57 +0000";
layers = (
{
components = (
{
name = l;
transform = "{1, 0, 0, 1, 17, 0}";
}
);
layerId = "184835E3-72D9-430C-A639-2454AC4A0BE8";
paths = (
{
closed = 1;
nodes = (
"53 200 LINE",
"373 486 LINE",
"321 540 LINE",
"0 255 LINE"
);
}
);
width = 373;
}
);
unicode = 0142;
},
{
glyphname = m;
lastChange = "2018-06-08 16:03:42 +0000";
layers = (
{
anchors = (
{
name = btm;
position = "{467, -8}";
},
{
name = top;
position = "{451, 822}";
}
);
layerId = "184835E3-72D9-430C-A639-2454AC4A0BE8";
paths = (
{
closed = 1;
nodes = (
"832 399 LINE SMOOTH {name = hr01;}",
"832 488 OFFCURVE",
"785 536 OFFCURVE",
"689 536 CURVE SMOOTH",
"621 536 OFFCURVE",
"567 511 OFFCURVE",
"533 469 CURVE",
"513 513 OFFCURVE",
"469 536 OFFCURVE",
"403 536 CURVE SMOOTH",
"336 536 OFFCURVE",
"284 511 OFFCURVE",
"250 472 CURVE",
"245 524 OFFCURVE",
"226 536 OFFCURVE",
"199 536 CURVE SMOOTH",
"163 536 OFFCURVE",
"66 514 OFFCURVE",
"20 487 CURVE",
"20 443 LINE",
"71 443 OFFCURVE",
"87 428 OFFCURVE",
"87 393 CURVE SMOOTH",
"87 100 LINE SMOOTH",
"87 61 OFFCURVE",
"71 46 OFFCURVE",
"31 46 CURVE",
"31 24 OFFCURVE",
"40 7 OFFCURVE",
"55 -8 CURVE",
"272 -8 LINE",
"288 7 OFFCURVE",
"296 24 OFFCURVE",
"296 46 CURVE",
"263 46 OFFCURVE",
"250 61 OFFCURVE",
"250 100 CURVE SMOOTH",
"251 403 LINE",
"269 425 OFFCURVE",
"295 438 OFFCURVE",
"321 438 CURVE SMOOTH",
"356 438 OFFCURVE",
"384 414 OFFCURVE",
"384 371 CURVE SMOOTH",
"384 100 LINE SMOOTH",
"384 61 OFFCURVE",
"371 46 OFFCURVE",
"337 46 CURVE {name = hr03;}",
"337 24 OFFCURVE",
"346 7 OFFCURVE",
"360 -8 CURVE",
"573 -8 LINE",
"588 7 OFFCURVE",
"597 24 OFFCURVE",
"597 46 CURVE",
"562 46 OFFCURVE",
"547 61 OFFCURVE",
"547 100 CURVE SMOOTH",
"547 399 LINE SMOOTH",
"547 404 OFFCURVE",
"547 409 OFFCURVE",
"546 414 CURVE",
"563 430 OFFCURVE",
"584 438 OFFCURVE",
"606 438 CURVE SMOOTH {name = hr02;}",
"642 438 OFFCURVE",
"668 414 OFFCURVE",
"668 371 CURVE SMOOTH",
"668 30 LINE SMOOTH",
"668 -12 OFFCURVE",
"709 -22 OFFCURVE",
"758 -22 CURVE SMOOTH",
"820 -22 OFFCURVE",
"857 -10 OFFCURVE",
"881 11 CURVE",
"881 40 LINE",
"850 46 OFFCURVE",
"832 61 OFFCURVE",
"832 92 CURVE SMOOTH"
);
}
);
width = 900;
}
);
leftKerningGroup = n;
leftMetricsKey = n;
rightKerningGroup = n;
rightMetricsKey = n;
unicode = 006D;
},
{
glyphname = n;
lastChange = "2018-06-08 16:47:35 +0000";
layers = (
{
anchors = (
{
name = btm;
position = "{325, -3}";
},
{
name = top;
position = "{319, 822}";
}
);
layerId = "184835E3-72D9-430C-A639-2454AC4A0BE8";
paths = (
{
closed = 1;
nodes = (
"543 497 OFFCURVE",
"495 540 OFFCURVE",
"402 540 CURVE SMOOTH",
"326 540 OFFCURVE",
"269 504 OFFCURVE",
"238 455 CURVE",
"241 397 LINE",
"258 425 OFFCURVE",
"286 443 OFFCURVE",
"319 443 CURVE SMOOTH",
"353 443 OFFCURVE",
"379 425 OFFCURVE",
"379 370 CURVE SMOOTH",
"379 58 LINE SMOOTH",
"379 11 OFFCURVE",
"417 -9 OFFCURVE",
"474 -9 CURVE SMOOTH",
"517 -9 OFFCURVE",
"571 3 OFFCURVE",
"592 24 CURVE",
"591 53 LINE",
"560 59 OFFCURVE",
"543 78 OFFCURVE",
"543 111 CURVE SMOOTH",
"543 384 LINE SMOOTH {name = hr00;}"
);
},
{
closed = 1;
nodes = (
"297 12 OFFCURVE",
"305 29 OFFCURVE",
"305 50 CURVE",
"265 50 OFFCURVE",
"250 66 OFFCURVE",
"250 105 CURVE SMOOTH",
"250 452 LINE SMOOTH",
"250 525 OFFCURVE",
"230 540 OFFCURVE",
"199 540 CURVE SMOOTH",
"163 540 OFFCURVE",
"66 518 OFFCURVE",
"20 492 CURVE",
"20 447 LINE",
"71 447 OFFCURVE",
"87 432 OFFCURVE",
"87 397 CURVE SMOOTH",
"87 105 LINE SMOOTH",
"87 66 OFFCURVE",
"71 50 OFFCURVE",
"31 50 CURVE",
"31 29 OFFCURVE",
"40 12 OFFCURVE",
"55 -3 CURVE",
"282 -3 LINE"
);
}
);
width = 611;
}
);
leftKerningGroup = n;
rightKerningGroup = n;
unicode = 006E;
},
{
glyphname = eng;
lastChange = "2018-06-07 18:18:58 +0000";
layers = (
{
layerId = "184835E3-72D9-430C-A639-2454AC4A0BE8";
paths = (
{
closed = 1;
nodes = (
"297 -90 OFFCURVE",
"305 -68 OFFCURVE",
"305 -47 CURVE",
"266 -47 OFFCURVE",
"250 -32 OFFCURVE",
"250 8 CURVE SMOOTH",
"250 350 LINE SMOOTH",
"250 423 OFFCURVE",
"231 439 OFFCURVE",
"199 439 CURVE SMOOTH",
"163 439 OFFCURVE",
"67 417 OFFCURVE",
"20 391 CURVE",
"20 346 LINE",
"71 346 OFFCURVE",
"87 331 OFFCURVE",
"87 296 CURVE SMOOTH",
"87 8 LINE SMOOTH",
"87 -31 OFFCURVE",
"71 -47 OFFCURVE",
"32 -47 CURVE",
"32 -68 OFFCURVE",
"40 -90 OFFCURVE",
"55 -105 CURVE",
"282 -105 LINE {name = hr00;}"
);
},
{
closed = 1;
nodes = (
"467 -301 OFFCURVE",
"544 -242 OFFCURVE",
"544 -114 CURVE SMOOTH",
"543 303 LINE SMOOTH",
"543 391 OFFCURVE",
"496 439 OFFCURVE",
"402 439 CURVE SMOOTH",
"327 439 OFFCURVE",
"270 409 OFFCURVE",
"238 359 CURVE",
"240 296 LINE",
"257 322 OFFCURVE",
"286 341 OFFCURVE",
"320 341 CURVE SMOOTH",
"353 341 OFFCURVE",
"379 317 OFFCURVE",
"379 274 CURVE SMOOTH",
"380 -107 LINE SMOOTH",
"380 -190 OFFCURVE",
"351 -217 OFFCURVE",
"299 -217 CURVE",
"293 -224 OFFCURVE",
"290 -238 OFFCURVE",
"290 -247 CURVE SMOOTH",
"290 -271 OFFCURVE",
"317 -301 OFFCURVE",
"379 -301 CURVE SMOOTH"
);
}
);
width = 562;
}
);
leftKerningGroup = n;
leftMetricsKey = n;
rightKerningGroup = j;
unicode = 014B;
},
{
glyphname = o;
lastChange = "2018-06-08 16:57:31 +0000";
layers = (
{
anchors = (
{
name = btm;
position = "{278, -5}";
},
{
name = top;
position = "{270, 822}";
}
);
layerId = "184835E3-72D9-430C-A639-2454AC4A0BE8";
paths = (
{
closed = 1;
nodes = (
"416 -13 OFFCURVE",
"521 84 OFFCURVE",
"521 271 CURVE SMOOTH",
"521 448 OFFCURVE",
"421 543 OFFCURVE",
"278 543 CURVE SMOOTH",
"129 543 OFFCURVE",
"25 443 OFFCURVE",
"25 255 CURVE SMOOTH",
"25 79 OFFCURVE",
"125 -13 OFFCURVE",
"268 -13 CURVE SMOOTH"
);
},
{
closed = 1;
nodes = (
"230 59 OFFCURVE",
"200 96 OFFCURVE",
"200 282 CURVE SMOOTH {name = hr00;}",
"200 438 OFFCURVE",
"227 472 OFFCURVE",
"270 472 CURVE SMOOTH",
"316 472 OFFCURVE",
"345 435 OFFCURVE",
"345 247 CURVE SMOOTH",
"345 93 OFFCURVE",
"318 59 OFFCURVE",
"276 59 CURVE SMOOTH"
);
}
);
width = 546;
}
);
leftKerningGroup = o;
rightKerningGroup = o;
unicode = 006F;
},
{
glyphname = ohorn;
lastChange = "2018-06-07 15:02:57 +0000";
layers = (
{
components = (
{
name = o;
}
);
layerId = "184835E3-72D9-430C-A639-2454AC4A0BE8";
paths = (
{
closed = 1;
nodes = (
"310 540 LINE",
"398 470 LINE",
"455 470 LINE SMOOTH {name = hr01;}",
"497 470 OFFCURVE",
"558 494 OFFCURVE",
"558 563 CURVE SMOOTH",
"558 597 OFFCURVE",
"550 620 OFFCURVE",
"522 642 CURVE",
"461 642 LINE",
"475 553 OFFCURVE",
"438 539 OFFCURVE",
"391 539 CURVE"
);
}
);
width = 548;
}
);
unicode = 01A1;
},
{
glyphname = oogonek;
lastChange = "2018-06-07 15:02:57 +0000";
layers = (
{
components = (
{
name = o;
}
);
layerId = "184835E3-72D9-430C-A639-2454AC4A0BE8";
paths = (
{
closed = 1;
nodes = (
"356 37 LINE",
"309 37 OFFCURVE",
"172 -5 OFFCURVE",
"172 -119 CURVE SMOOTH",
"172 -197 OFFCURVE",
"237 -227 OFFCURVE",
"296 -227 CURVE SMOOTH",
"341 -227 OFFCURVE",
"380 -212 OFFCURVE",
"396 -196 CURVE SMOOTH",
"409 -183 OFFCURVE",
"413 -165 OFFCURVE",
"413 -147 CURVE SMOOTH",
"413 -135 OFFCURVE",
"411 -119 OFFCURVE",
"405 -111 CURVE",
"394 -120 OFFCURVE",
"367 -128 OFFCURVE",
"341 -128 CURVE SMOOTH",
"311 -128 OFFCURVE",
"281 -118 OFFCURVE",
"281 -91 CURVE SMOOTH",
"281 -49 OFFCURVE",
"309 -12 OFFCURVE",
"367 3 CURVE"
);
}
);
width = 548;
}
);
unicode = 01EB;
},
{
color = 0;
glyphname = oslash;
lastChange = "2018-06-08 17:06:06 +0000";
layers = (
{
anchors = (
{
name = _vslash;
position = "{41, 224}";
},
{
name = top;
position = "{284, 822}";
}
);
components = (
{
name = o;
transform = "{1, 0, 0, 1, 14, 0}";
}
);
layerId = "184835E3-72D9-430C-A639-2454AC4A0BE8";
paths = (
{
closed = 1;
nodes = (
"109 -16 LINE",
"194 85 LINE",
"215 113 LINE",
"385 376 LINE",
"419 407 LINE",
"534 546 LINE",
"459 546 LINE",
"385 458 LINE",
"357 426 LINE",
"181 153 LINE",
"146 120 LINE",
"35 -16 LINE"
);
}
);
width = 560;
}
);
leftMetricsKey = o;
rightMetricsKey = o;
unicode = 00F8;
},
{
glyphname = oe;
lastChange = "2018-06-08 16:51:03 +0000";
layers = (
{
anchors = (
{
name = btm;
position = "{409, -5}";
},
{
name = top;
position = "{409, 970}";
}
);
layerId = "184835E3-72D9-430C-A639-2454AC4A0BE8";
paths = (
{
closed = 1;
nodes = (
"407 -15 OFFCURVE",
"492 84 OFFCURVE",
"492 271 CURVE SMOOTH",
"492 448 OFFCURVE",
"422 543 OFFCURVE",
"279 543 CURVE SMOOTH",
"129 543 OFFCURVE",
"25 443 OFFCURVE",
"25 255 CURVE SMOOTH",
"25 79 OFFCURVE",
"125 -15 OFFCURVE",
"268 -15 CURVE SMOOTH"
);
},
{
closed = 1;
nodes = (
"231 57 OFFCURVE",
"202 94 OFFCURVE",
"202 282 CURVE SMOOTH {name = hr00;}",
"202 438 OFFCURVE",
"228 472 OFFCURVE",
"270 472 CURVE SMOOTH",
"316 472 OFFCURVE",
"345 435 OFFCURVE",
"345 247 CURVE SMOOTH",
"345 91 OFFCURVE",
"319 57 OFFCURVE",
"277 57 CURVE SMOOTH"
);
},
{
closed = 1;
nodes = (
"727 111 OFFCURVE",
"690 96 OFFCURVE",
"645 96 CURVE SMOOTH",
"570 96 OFFCURVE",
"519 140 OFFCURVE",
"519 265 CURVE SMOOTH",
"519 307 LINE SMOOTH",
"519 439 OFFCURVE",
"556 474 OFFCURVE",
"593 474 CURVE SMOOTH",
"622 474 OFFCURVE",
"647 454 OFFCURVE",
"647 369 CURVE SMOOTH",
"647 343 OFFCURVE",
"644 324 OFFCURVE",
"621 324 CURVE SMOOTH",
"466 324 LINE",
"463 248 LINE",
"730 248 LINE SMOOTH",
"783 248 OFFCURVE",
"795 292 OFFCURVE",
"795 343 CURVE SMOOTH",
"795 470 OFFCURVE",
"722 543 OFFCURVE",
"603 543 CURVE SMOOTH",
"458 543 OFFCURVE",
"352 436 OFFCURVE",
"352 261 CURVE SMOOTH",
"352 92 OFFCURVE",
"447 -15 OFFCURVE",
"596 -15 CURVE SMOOTH",
"711 -15 OFFCURVE",
"781 51 OFFCURVE",
"781 84 CURVE SMOOTH",
"781 98 OFFCURVE",
"773 125 OFFCURVE",
"762 136 CURVE {name = hr00;}"
);
}
);
width = 819;
}
);
leftKerningGroup = o;
leftMetricsKey = o;
rightKerningGroup = e;
rightMetricsKey = e;
unicode = 0153;
},
{
glyphname = p;
lastChange = "2018-06-08 16:51:41 +0000";
layers = (
{
anchors = (
{
name = btm;
position = "{276, -100}";
},
{
name = top;
position = "{320, 822}";
}
);
background = {
paths = (
{
closed = 1;
nodes = (
"266 542 OFFCURVE",
"229 531 OFFCURVE",
"202 503 CURVE",
"205 598 LINE",
"205 730 LINE SMOOTH",
"205 763 OFFCURVE",
"193 776 OFFCURVE",
"161 776 CURVE SMOOTH",
"118 776 OFFCURVE",
"28 750 OFFCURVE",
"-17 719 CURVE",
"-17 687 LINE",
"27 687 OFFCURVE",
"44 668 OFFCURVE",
"44 638 CURVE SMOOTH",
"44 24 LINE",
"91 1 OFFCURVE",
"191 -16 OFFCURVE",
"250 -16 CURVE SMOOTH",
"399 -16 OFFCURVE",
"518 93 OFFCURVE",
"518 285 CURVE SMOOTH",
"518 460 OFFCURVE",
"422 542 OFFCURVE",
"312 542 CURVE SMOOTH"
);
},
{
closed = 1;
nodes = (
"234 57 OFFCURVE",
"218 63 OFFCURVE",
"205 76 CURVE",
"205 446 LINE",
"215 453 OFFCURVE",
"228 457 OFFCURVE",
"243 457 CURVE SMOOTH",
"304 457 OFFCURVE",
"351 397 OFFCURVE",
"351 251 CURVE SMOOTH",
"351 108 OFFCURVE",
"307 57 OFFCURVE",
"253 57 CURVE SMOOTH"
);
}
);
};
layerId = "184835E3-72D9-430C-A639-2454AC4A0BE8";
paths = (
{
closed = 1;
nodes = (
"420 -11 OFFCURVE",
"537 99 OFFCURVE",
"537 290 CURVE SMOOTH",
"537 459 OFFCURVE",
"446 540 OFFCURVE",
"340 540 CURVE SMOOTH",
"293 540 OFFCURVE",
"249 529 OFFCURVE",
"219 500 CURVE",
"211 532 OFFCURVE",
"192 540 OFFCURVE",
"166 540 CURVE SMOOTH",
"131 540 OFFCURVE",
"50 518 OFFCURVE",
"6 492 CURVE",
"6 447 LINE",
"57 447 OFFCURVE",
"73 432 OFFCURVE",
"73 397 CURVE SMOOTH",
"73 -82 LINE SMOOTH",
"73 -121 OFFCURVE",
"66 -137 OFFCURVE",
"26 -137 CURVE",
"26 -159 OFFCURVE",
"35 -175 OFFCURVE",
"50 -190 CURVE",
"273 -190 LINE",
"288 -175 OFFCURVE",
"296 -159 OFFCURVE",
"296 -137 CURVE",
"266 -137 OFFCURVE",
"232 -121 OFFCURVE",
"232 -82 CURVE SMOOTH",
"232 -9 LINE",
"247 -10 OFFCURVE",
"260 -11 OFFCURVE",
"271 -11 CURVE SMOOTH"
);
},
{
closed = 1;
nodes = (
"369 122 OFFCURVE",
"324 62 OFFCURVE",
"270 62 CURVE SMOOTH",
"256 62 OFFCURVE",
"244 65 OFFCURVE",
"232 72 CURVE",
"232 445 LINE",
"240 449 OFFCURVE",
"250 451 OFFCURVE",
"260 451 CURVE SMOOTH",
"320 451 OFFCURVE",
"369 404 OFFCURVE",
"369 266 CURVE SMOOTH"
);
}
);
width = 565;
}
);
leftKerningGroup = p;
leftMetricsKey = b;
rightKerningGroup = o;
rightMetricsKey = b;
unicode = 0070;
},
{
color = 0;
glyphname = thorn;
lastChange = "2018-06-07 16:07:15 +0000";
layers = (
{
anchors = (
{
name = btm;
position = "{462, -270}";
},
{
name = top;
position = "{462, 664}";
}
);
components = (
{
name = b;
}
);
layerId = "184835E3-72D9-430C-A639-2454AC4A0BE8";
paths = (
{
closed = 1;
nodes = (
"69 -82 LINE SMOOTH",
"69 -121 OFFCURVE",
"62 -137 OFFCURVE",
"22 -137 CURVE",
"22 -159 OFFCURVE",
"31 -175 OFFCURVE",
"46 -190 CURVE",
"269 -190 LINE",
"284 -175 OFFCURVE",
"292 -159 OFFCURVE",
"292 -137 CURVE",
"262 -137 OFFCURVE",
"228 -121 OFFCURVE",
"228 -82 CURVE SMOOTH",
"228 -9 LINE",
"243 -10 OFFCURVE",
"58 45 OFFCURVE",
"69 45 CURVE"
);
}
);
width = 569;
}
);
leftKerningGroup = h;
leftMetricsKey = b;
rightKerningGroup = o;
rightMetricsKey = b;
unicode = 00FE;
},
{
glyphname = q;
lastChange = "2018-06-08 16:51:08 +0000";
layers = (
{
anchors = (
{
name = btm;
position = "{288, -112}";
},
{
name = top;
position = "{288, 863}";
}
);
layerId = "184835E3-72D9-430C-A639-2454AC4A0BE8";
paths = (
{
closed = 1;
nodes = (
"501 409 LINE SMOOTH {name = hr00;}",
"501 449 OFFCURVE",
"503 465 OFFCURVE",
"543 465 CURVE",
"543 487 OFFCURVE",
"535 510 OFFCURVE",
"519 525 CURVE",
"454 525 LINE SMOOTH",
"438 525 OFFCURVE",
"425 523 OFFCURVE",
"411 520 CURVE",
"374 532 OFFCURVE",
"333 540 OFFCURVE",
"293 540 CURVE SMOOTH",
"144 540 OFFCURVE",
"30 430 OFFCURVE",
"30 239 CURVE SMOOTH",
"30 68 OFFCURVE",
"125 -13 OFFCURVE",
"235 -13 CURVE SMOOTH",
"278 -13 OFFCURVE",
"314 -2 OFFCURVE",
"340 24 CURVE",
"340 -166 LINE SMOOTH",
"340 -208 OFFCURVE",
"378 -218 OFFCURVE",
"427 -218 CURVE SMOOTH",
"489 -218 OFFCURVE",
"526 -206 OFFCURVE",
"550 -184 CURVE",
"550 -157 LINE",
"519 -150 OFFCURVE",
"501 -135 OFFCURVE",
"501 -103 CURVE SMOOTH"
);
},
{
closed = 1;
nodes = (
"244 74 OFFCURVE",
"197 135 OFFCURVE",
"197 273 CURVE SMOOTH",
"197 420 OFFCURVE",
"240 468 OFFCURVE",
"294 468 CURVE SMOOTH",
"311 468 OFFCURVE",
"327 464 OFFCURVE",
"340 455 CURVE",
"340 83 LINE",
"331 78 OFFCURVE",
"319 74 OFFCURVE",
"304 74 CURVE SMOOTH"
);
}
);
width = 560;
}
);
leftKerningGroup = o;
leftMetricsKey = d;
rightKerningGroup = q;
rightMetricsKey = d;
unicode = 0071;
},
{
glyphname = r;
lastChange = "2018-06-08 16:52:41 +0000";
layers = (
{
anchors = (
{
name = btm;
position = "{181, 0}";
},
{
name = top;
position = "{263, 822}";
}
);
layerId = "184835E3-72D9-430C-A639-2454AC4A0BE8";
paths = (
{
closed = 1;
nodes = (
"303 460 OFFCURVE",
"291 451 OFFCURVE",
"291 424 CURVE SMOOTH",
"291 391 OFFCURVE",
"319 360 OFFCURVE",
"365 360 CURVE SMOOTH",
"417 360 OFFCURVE",
"455 400 OFFCURVE",
"455 457 CURVE SMOOTH",
"455 508 OFFCURVE",
"429 543 OFFCURVE",
"363 543 CURVE SMOOTH",
"294 543 OFFCURVE",
"239 489 OFFCURVE",
"222 444 CURVE",
"202 362 LINE",
"249 442 OFFCURVE",
"285 449 OFFCURVE",
"335 453 CURVE",
"317 468 LINE {name = hr00;}"
);
},
{
closed = 1;
nodes = (
"236 453 LINE",
"236 525 OFFCURVE",
"223 540 OFFCURVE",
"192 540 CURVE SMOOTH",
"155 540 OFFCURVE",
"62 519 OFFCURVE",
"15 492 CURVE",
"15 447 LINE",
"66 447 OFFCURVE",
"81 433 OFFCURVE",
"81 398 CURVE SMOOTH",
"81 109 LINE SMOOTH",
"81 69 OFFCURVE",
"66 54 OFFCURVE",
"27 54 CURVE",
"27 31 OFFCURVE",
"35 15 OFFCURVE",
"50 0 CURVE",
"313 0 LINE",
"328 15 OFFCURVE",
"336 31 OFFCURVE",
"336 54 CURVE",
"256 54 OFFCURVE",
"245 72 OFFCURVE",
"245 118 CURVE SMOOTH",
"245 437 LINE"
);
}
);
width = 450;
}
);
leftKerningGroup = n;
rightKerningGroup = r;
unicode = 0072;
},
{
glyphname = s;
lastChange = "2018-06-08 16:25:35 +0000";
layers = (
{
anchors = (
{
name = btm;
position = "{238, 0}";
},
{
name = top;
position = "{247, 822}";
}
);
layerId = "184835E3-72D9-430C-A639-2454AC4A0BE8";
paths = (
{
closed = 1;
nodes = (
"343 -15 OFFCURVE",
"452 31 OFFCURVE",
"452 143 CURVE SMOOTH",
"452 246 OFFCURVE",
"369 286 OFFCURVE",
"296 324 CURVE SMOOTH",
"242 352 OFFCURVE",
"191 377 OFFCURVE",
"191 423 CURVE SMOOTH",
"191 452 OFFCURVE",
"215 479 OFFCURVE",
"259 479 CURVE SMOOTH",
"285 479 OFFCURVE",
"304 472 OFFCURVE",
"319 460 CURVE",
"309 448 OFFCURVE",
"304 427 OFFCURVE",
"304 411 CURVE SMOOTH",
"304 377 OFFCURVE",
"333 355 OFFCURVE",
"367 355 CURVE SMOOTH",
"404 355 OFFCURVE",
"434 382 OFFCURVE",
"434 423 CURVE SMOOTH",
"434 480 OFFCURVE",
"382 543 OFFCURVE",
"242 543 CURVE SMOOTH",
"107 543 OFFCURVE",
"31 476 OFFCURVE",
"31 388 CURVE SMOOTH",
"31 283 OFFCURVE",
"116 243 OFFCURVE",
"190 203 CURVE SMOOTH",
"244 174 OFFCURVE",
"295 148 OFFCURVE",
"295 108 CURVE SMOOTH",
"295 82 OFFCURVE",
"268 58 OFFCURVE",
"222 58 CURVE SMOOTH",
"192 58 OFFCURVE",
"157 68 OFFCURVE",
"145 80 CURVE",
"156 94 OFFCURVE",
"161 105 OFFCURVE",
"161 123 CURVE SMOOTH",
"161 162 OFFCURVE",
"131 188 OFFCURVE",
"94 188 CURVE SMOOTH",
"53 188 OFFCURVE",
"23 157 OFFCURVE",
"23 110 CURVE SMOOTH",
"23 33 OFFCURVE",
"136 -15 OFFCURVE",
"231 -15 CURVE SMOOTH {name = hr00;}"
);
}
);
width = 475;
}
);
leftKerningGroup = s;
rightKerningGroup = s;
unicode = 0073;
},
{
glyphname = germandbls;
lastChange = "2018-06-07 18:19:07 +0000";
layers = (
{
anchors = (
{
name = btm;
position = "{327, -5}";
},
{
name = top;
position = "{327, 970}";
}
);
layerId = "184835E3-72D9-430C-A639-2454AC4A0BE8";
paths = (
{
closed = 1;
nodes = (
"102 539 LINE",
"80 522 OFFCURVE",
"57 506 OFFCURVE",
"20 496 CURVE",
"20 434 LINE",
"81 434 LINE",
"81 108 LINE SMOOTH",
"81 68 OFFCURVE",
"65 53 OFFCURVE",
"26 53 CURVE",
"26 31 OFFCURVE",
"34 10 OFFCURVE",
"50 -5 CURVE",
"243 -5 LINE",
"243 592 LINE SMOOTH",
"243 682 OFFCURVE",
"297 711 OFFCURVE",
"335 711 CURVE SMOOTH",
"377 711 OFFCURVE",
"407 692 OFFCURVE",
"407 645 CURVE SMOOTH {name = hr02;}",
"407 546 OFFCURVE",
"328 523 OFFCURVE",
"328 426 CURVE SMOOTH",
"328 251 OFFCURVE",
"494 230 OFFCURVE",
"494 103 CURVE SMOOTH {name = hr03;}",
"494 72 OFFCURVE",
"478 54 OFFCURVE",
"444 54 CURVE SMOOTH",
"422 54 OFFCURVE",
"407 62 OFFCURVE",
"397 73 CURVE",
"407 84 OFFCURVE",
"414 101 OFFCURVE",
"414 119 CURVE SMOOTH",
"414 155 OFFCURVE",
"390 181 OFFCURVE",
"358 181 CURVE SMOOTH",
"315 181 OFFCURVE",
"288 146 OFFCURVE",
"288 103 CURVE SMOOTH",
"288 42 OFFCURVE",
"341 -15 OFFCURVE",
"447 -15 CURVE SMOOTH",
"543 -15 OFFCURVE",
"639 26 OFFCURVE",
"639 151 CURVE SMOOTH",
"639 337 OFFCURVE",
"486 342 OFFCURVE",
"486 469 CURVE SMOOTH",
"486 526 OFFCURVE",
"548 553 OFFCURVE",
"545 636 CURVE SMOOTH {name = hr04;}",
"542 738 OFFCURVE",
"471 782 OFFCURVE",
"355 782 CURVE SMOOTH",
"210 782 OFFCURVE",
"91 679 OFFCURVE",
"91 489 CURVE",
"119 495 LINE {name = hr01;}"
);
}
);
width = 657;
}
);
leftKerningGroup = h;
leftMetricsKey = n;
rightKerningGroup = germandbls;
unicode = 00DF;
},
{
glyphname = t;
lastChange = "2018-06-08 16:33:13 +0000";
layers = (
{
anchors = (
{
name = btm;
position = "{222, 0}";
},
{
name = car;
position = "{314, 712}";
},
{
name = top;
position = "{170, 939}";
}
);
background = {
paths = (
{
closed = 1;
nodes = (
"516 978 LINE",
"551 1031 OFFCURVE",
"554 1111 OFFCURVE",
"554 1177 CURVE",
"349 1177 LINE SMOOTH",
"301 1177 OFFCURVE",
"273 1281 OFFCURVE",
"273 1416 CURVE SMOOTH",
"273 1541 OFFCURVE",
"334 1612 OFFCURVE",
"409 1612 CURVE SMOOTH {name = hr02;}",
"432 1612 OFFCURVE",
"441 1601 OFFCURVE",
"444 1589 CURVE",
"410 1566 OFFCURVE",
"397 1518 OFFCURVE",
"397 1478 CURVE SMOOTH",
"397 1385 OFFCURVE",
"483 1326 OFFCURVE",
"572 1326 CURVE SMOOTH",
"680 1326 OFFCURVE",
"754 1417 OFFCURVE",
"754 1536 CURVE SMOOTH",
"754 1656 OFFCURVE",
"636 1805 OFFCURVE",
"402 1805 CURVE SMOOTH",
"134 1805 OFFCURVE",
"-48 1655 OFFCURVE",
"-48 1345 CURVE SMOOTH",
"-48 1268 OFFCURVE",
"-26 1212 OFFCURVE",
"-26 1103 CURVE",
"-1 1200 LINE",
"-49 1162 OFFCURVE",
"-78 1136 OFFCURVE",
"-162 1115 CURVE",
"-162 978 LINE {name = hr03;}",
"88 978 LINE",
"-26 1092 LINE",
"-26 242 LINE SMOOTH",
"-26 154 OFFCURVE",
"-60 120 OFFCURVE",
"-148 120 CURVE",
"-148 71 OFFCURVE",
"-130 34 OFFCURVE",
"-96 0 CURVE",
"492 0 LINE",
"525 34 OFFCURVE",
"544 71 OFFCURVE",
"544 120 CURVE",
"366 120 OFFCURVE",
"335 162 OFFCURVE",
"335 262 CURVE SMOOTH",
"335 1092 LINE {name = hr01;}",
"221 978 LINE {name = hr01;}"
);
}
);
};
layerId = "184835E3-72D9-430C-A639-2454AC4A0BE8";
paths = (
{
closed = 1;
nodes = (
"344 475 OFFCURVE",
"345 508 OFFCURVE",
"345 540 CURVE",
"226 540 LINE",
"227 642 LINE SMOOTH",
"227 674 OFFCURVE",
"174 695 OFFCURVE",
"125 685 CURVE",
"125 658 OFFCURVE",
"122 633 OFFCURVE",
"118 609 CURVE SMOOTH",
"109 555 OFFCURVE",
"77 519 OFFCURVE",
"10 512 CURVE",
"10 451 LINE",
"71 451 LINE",
"71 166 LINE SMOOTH",
"71 33 OFFCURVE",
"144 -7 OFFCURVE",
"228 -7 CURVE SMOOTH",
"324 -7 OFFCURVE",
"369 44 OFFCURVE",
"369 88 CURVE SMOOTH",
"369 100 OFFCURVE",
"365 129 OFFCURVE",
"350 141 CURVE",
"334 122 OFFCURVE",
"303 106 OFFCURVE",
"277 106 CURVE SMOOTH",
"250 106 OFFCURVE",
"228 116 OFFCURVE",
"228 159 CURVE SMOOTH",
"228 451 LINE",
"329 451 LINE {name = hr00;}"
);
}
);
width = 377;
}
);
leftKerningGroup = t;
rightKerningGroup = t;
unicode = 0074;
userData = {
com.typemytype.robofont.guides = (
{
angle = 0;
isGlobal = 0;
magnetic = 5;
x = 0;
y = -31;
}
);
};
},
{
glyphname = tbar;
lastChange = "2018-06-08 16:26:59 +0000";
layers = (
{
components = (
{
name = t;
}
);
guideLines = (
{
angle = 270;
position = "{350, 389}";
}
);
layerId = "184835E3-72D9-430C-A639-2454AC4A0BE8";
paths = (
{
closed = 1;
nodes = (
"12 335 OFFCURVE",
"10 317 OFFCURVE",
"10 298 CURVE SMOOTH",
"10 282 OFFCURVE",
"12 265 OFFCURVE",
"17 254 CURVE",
"336 254 LINE",
"348 273 OFFCURVE",
"350 318 OFFCURVE",
"350 344 CURVE",
"17 344 LINE {name = hr00;}"
);
}
);
width = 377;
}
);
leftMetricsKey = t;
rightMetricsKey = t;
unicode = 0167;
},
{
color = 4;
glyphname = u;
lastChange = "2018-06-08 16:54:03 +0000";
layers = (
{
anchors = (
{
name = btm;
position = "{319, 0}";
},
{
name = top;
position = "{292, 822}";
}
);
layerId = "184835E3-72D9-430C-A639-2454AC4A0BE8";
paths = (
{
closed = 1;
nodes = (
"349 26 OFFCURVE",
"389 -10 OFFCURVE",
"443 -10 CURVE SMOOTH",
"486 -10 OFFCURVE",
"538 3 OFFCURVE",
"560 28 CURVE",
"560 56 LINE",
"529 59 OFFCURVE",
"512 82 OFFCURVE",
"512 114 CURVE SMOOTH",
"512 482 LINE SMOOTH",
"512 529 OFFCURVE",
"497 539 OFFCURVE",
"445 539 CURVE SMOOTH",
"370 539 OFFCURVE",
"311 513 OFFCURVE",
"293 499 CURVE",
"293 455 LINE",
"328 455 OFFCURVE",
"349 447 OFFCURVE",
"349 424 CURVE",
"349 91 LINE SMOOTH {name = hr01;}"
);
},
{
closed = 1;
nodes = (
"68 52 OFFCURVE",
"122 -10 OFFCURVE",
"216 -10 CURVE SMOOTH",
"278 -10 OFFCURVE",
"328 17 OFFCURVE",
"360 69 CURVE",
"358 141 LINE",
"342 112 OFFCURVE",
"310 84 OFFCURVE",
"276 84 CURVE SMOOTH {name = hr02;}",
"243 84 OFFCURVE",
"231 106 OFFCURVE",
"231 146 CURVE SMOOTH",
"231 482 LINE SMOOTH",
"231 529 OFFCURVE",
"219 539 OFFCURVE",
"167 539 CURVE SMOOTH",
"97 539 OFFCURVE",
"36 513 OFFCURVE",
"19 499 CURVE",
"19 455 LINE",
"50 455 OFFCURVE",
"68 447 OFFCURVE",
"68 424 CURVE",
"68 149 LINE"
);
}
);
width = 572;
}
);
leftKerningGroup = u;
rightKerningGroup = u;
unicode = 0075;
},
{
glyphname = uhorn;
lastChange = "2018-06-07 15:02:57 +0000";
layers = (
{
components = (
{
name = u;
}
);
layerId = "184835E3-72D9-430C-A639-2454AC4A0BE8";
paths = (
{
closed = 1;
nodes = (
"434 470 LINE",
"491 470 LINE SMOOTH {name = hr01;}",
"533 470 OFFCURVE",
"594 494 OFFCURVE",
"594 563 CURVE SMOOTH",
"594 597 OFFCURVE",
"586 620 OFFCURVE",
"558 642 CURVE",
"497 642 LINE",
"511 553 OFFCURVE",
"481 539 OFFCURVE",
"434 539 CURVE"
);
}
);
width = 574;
}
);
unicode = 01B0;
},
{
glyphname = uogonek;
lastChange = "2018-06-07 15:02:57 +0000";
layers = (
{
components = (
{
name = u;
}
);
layerId = "184835E3-72D9-430C-A639-2454AC4A0BE8";
paths = (
{
closed = 1;
nodes = (
"494 37 LINE",
"447 37 OFFCURVE",
"310 -5 OFFCURVE",
"310 -119 CURVE SMOOTH",
"310 -197 OFFCURVE",
"375 -227 OFFCURVE",
"434 -227 CURVE SMOOTH",
"479 -227 OFFCURVE",
"518 -212 OFFCURVE",
"534 -196 CURVE SMOOTH",
"547 -183 OFFCURVE",
"551 -165 OFFCURVE",
"551 -147 CURVE SMOOTH",
"551 -135 OFFCURVE",
"549 -119 OFFCURVE",
"543 -111 CURVE",
"532 -120 OFFCURVE",
"505 -128 OFFCURVE",
"479 -128 CURVE SMOOTH",
"449 -128 OFFCURVE",
"419 -118 OFFCURVE",
"419 -91 CURVE SMOOTH",
"419 -49 OFFCURVE",
"447 -12 OFFCURVE",
"505 3 CURVE"
);
}
);
width = 574;
}
);
unicode = 0173;
},
{
color = 4;
glyphname = v;
lastChange = "2018-06-08 17:06:30 +0000";
layers = (
{
anchors = (
{
name = btm;
position = "{265, -2}";
},
{
name = top;
position = "{265, 973}";
}
);
layerId = "184835E3-72D9-430C-A639-2454AC4A0BE8";
paths = (
{
closed = 1;
nodes = (
"202 412 OFFCURVE",
"200 420 OFFCURVE",
"200 426 CURVE SMOOTH",
"200 457 OFFCURVE",
"220 471 OFFCURVE",
"247 471 CURVE",
"247 492 OFFCURVE",
"239 516 OFFCURVE",
"224 531 CURVE",
"-4 531 LINE",
"-19 516 OFFCURVE",
"-25 492 OFFCURVE",
"-25 471 CURVE",
"10 471 OFFCURVE",
"19 455 OFFCURVE",
"33 419 CURVE SMOOTH",
"194 -7 LINE",
"292 -7 LINE SMOOTH",
"352 -7 OFFCURVE",
"373 26 OFFCURVE",
"394 100 CURVE",
"501 419 LINE SMOOTH",
"513 455 OFFCURVE",
"526 471 OFFCURVE",
"561 471 CURVE",
"561 492 OFFCURVE",
"556 516 OFFCURVE",
"541 531 CURVE",
"347 531 LINE",
"332 516 OFFCURVE",
"328 492 OFFCURVE",
"328 471 CURVE",
"360 471 OFFCURVE",
"380 457 OFFCURVE",
"380 429 CURVE SMOOTH",
"380 422 OFFCURVE",
"378 413 OFFCURVE",
"376 405 CURVE SMOOTH",
"337 269 LINE",
"291 94 LINE",
"245 269 LINE",
"204 405 LINE SMOOTH {name = hr00;}"
);
}
);
width = 536;
}
);
leftKerningGroup = v;
rightKerningGroup = v;
unicode = 0076;
},
{
color = 0;
glyphname = w;
lastChange = "2018-06-08 17:06:37 +0000";
layers = (
{
anchors = (
{
name = btm;
position = "{409, -2}";
},
{
name = top;
position = "{426, 822}";
}
);
layerId = "184835E3-72D9-430C-A639-2454AC4A0BE8";
paths = (
{
closed = 1;
nodes = (
"271 -7 LINE SMOOTH",
"334 -7 OFFCURVE",
"346 24 OFFCURVE",
"366 100 CURVE SMOOTH",
"475 514 LINE",
"377 514 LINE",
"257 60 LINE",
"280 61 LINE",
"187 411 LINE SMOOTH",
"184 422 OFFCURVE",
"184 430 OFFCURVE",
"184 438 CURVE SMOOTH",
"184 462 OFFCURVE",
"197 471 OFFCURVE",
"223 471 CURVE",
"223 492 OFFCURVE",
"219 516 OFFCURVE",
"203 531 CURVE",
"-16 531 LINE",
"-31 516 OFFCURVE",
"-35 492 OFFCURVE",
"-35 471 CURVE",
"2 471 OFFCURVE",
"21 461 OFFCURVE",
"32 425 CURVE SMOOTH",
"168 -7 LINE {name = hr00;}"
);
},
{
closed = 1;
nodes = (
"509 421 OFFCURVE",
"508 430 OFFCURVE",
"508 437 CURVE SMOOTH",
"508 462 OFFCURVE",
"521 471 OFFCURVE",
"548 471 CURVE",
"548 492 OFFCURVE",
"544 516 OFFCURVE",
"529 531 CURVE",
"314 531 LINE",
"297 516 OFFCURVE",
"294 492 OFFCURVE",
"294 471 CURVE",
"330 471 OFFCURVE",
"350 462 OFFCURVE",
"361 425 CURVE SMOOTH",
"494 -7 LINE",
"593 -7 LINE SMOOTH",
"658 -7 OFFCURVE",
"671 26 OFFCURVE",
"693 102 CURVE SMOOTH",
"785 425 LINE SMOOTH",
"795 461 OFFCURVE",
"815 471 OFFCURVE",
"852 471 CURVE",
"852 492 OFFCURVE",
"848 516 OFFCURVE",
"832 531 CURVE",
"651 531 LINE",
"636 516 OFFCURVE",
"632 492 OFFCURVE",
"632 471 CURVE",
"658 471 OFFCURVE",
"672 462 OFFCURVE",
"672 438 CURVE SMOOTH",
"672 430 OFFCURVE",
"671 422 OFFCURVE",
"668 411 CURVE SMOOTH",
"585 60 LINE",
"606 60 LINE",
"512 411 LINE SMOOTH"
);
}
);
width = 817;
}
);
leftKerningGroup = w;
rightKerningGroup = w;
unicode = 0077;
},
{
glyphname = x;
lastChange = "2018-06-08 17:06:47 +0000";
layers = (
{
anchors = (
{
name = btm;
position = "{277, 6}";
},
{
name = top;
position = "{277, 981}";
}
);
layerId = "184835E3-72D9-430C-A639-2454AC4A0BE8";
paths = (
{
closed = 1;
nodes = (
"240 429 OFFCURVE",
"235 441 OFFCURVE",
"235 450 CURVE SMOOTH",
"235 464 OFFCURVE",
"247 471 OFFCURVE",
"268 471 CURVE",
"268 493 OFFCURVE",
"265 517 OFFCURVE",
"248 531 CURVE",
"33 531 LINE",
"16 517 OFFCURVE",
"12 493 OFFCURVE",
"12 471 CURVE",
"49 471 OFFCURVE",
"56 442 OFFCURVE",
"78 410 CURVE",
"198 254 LINE",
"216 224 LINE",
"292 118 LINE",
"300 106 OFFCURVE",
"303 96 OFFCURVE",
"303 86 CURVE SMOOTH",
"303 70 OFFCURVE",
"290 58 OFFCURVE",
"263 58 CURVE",
"263 36 OFFCURVE",
"268 15 OFFCURVE",
"284 0 CURVE",
"518 0 LINE",
"533 15 OFFCURVE",
"543 36 OFFCURVE",
"543 58 CURVE",
"514 58 OFFCURVE",
"489 82 OFFCURVE",
"462 122 CURVE",
"334 299 LINE",
"307 330 LINE",
"249 414 LINE {name = hr00;}"
);
},
{
closed = 1;
nodes = (
"481 457 OFFCURVE",
"505 471 OFFCURVE",
"539 471 CURVE",
"539 493 OFFCURVE",
"535 517 OFFCURVE",
"518 531 CURVE",
"345 531 LINE",
"329 517 OFFCURVE",
"325 493 OFFCURVE",
"325 471 CURVE",
"339 471 OFFCURVE",
"356 463 OFFCURVE",
"356 444 CURVE SMOOTH",
"356 435 OFFCURVE",
"352 424 OFFCURVE",
"342 397 CURVE",
"262 298 LINE",
"302 239 LINE",
"452 420 LINE"
);
},
{
closed = 1;
nodes = (
"53 86 OFFCURVE",
"19 62 OFFCURVE",
"-10 58 CURVE",
"-10 36 OFFCURVE",
"0 15 OFFCURVE",
"15 0 CURVE",
"197 0 LINE",
"212 15 OFFCURVE",
"217 36 OFFCURVE",
"217 58 CURVE",
"188 58 OFFCURVE",
"171 73 OFFCURVE",
"171 94 CURVE SMOOTH",
"171 103 OFFCURVE",
"174 112 OFFCURVE",
"182 123 CURVE SMOOTH",
"297 283 LINE",
"237 320 LINE",
"72 112 LINE"
);
}
);
width = 541;
}
);
leftKerningGroup = x;
rightKerningGroup = x;
unicode = 0078;
},
{
glyphname = y;
lastChange = "2018-06-08 17:06:55 +0000";
layers = (
{
anchors = (
{
name = btm;
position = "{482, 59}";
},
{
name = top;
position = "{291, 822}";
}
);
layerId = "184835E3-72D9-430C-A639-2454AC4A0BE8";
paths = (
{
closed = 1;
nodes = (
"211 403 OFFCURVE",
"210 415 OFFCURVE",
"210 424 CURVE SMOOTH",
"210 451 OFFCURVE",
"223 470 OFFCURVE",
"256 470 CURVE",
"256 493 OFFCURVE",
"247 515 OFFCURVE",
"232 531 CURVE",
"-4 531 LINE",
"-19 515 OFFCURVE",
"-25 493 OFFCURVE",
"-25 470 CURVE",
"16 470 OFFCURVE",
"20 449 OFFCURVE",
"36 411 CURVE SMOOTH",
"190 37 LINE",
"336 37 LINE",
"215 391 LINE {name = hr00;}"
);
},
{
closed = 1;
nodes = (
"511 455 OFFCURVE",
"527 470 OFFCURVE",
"560 470 CURVE",
"560 493 OFFCURVE",
"555 515 OFFCURVE",
"540 531 CURVE",
"347 531 LINE",
"332 515 OFFCURVE",
"328 493 OFFCURVE",
"328 470 CURVE",
"361 470 OFFCURVE",
"377 456 OFFCURVE",
"377 428 CURVE SMOOTH",
"377 422 OFFCURVE",
"376 413 OFFCURVE",
"374 404 CURVE",
"295 65 LINE",
"277 55 LINE",
"250 -42 OFFCURVE",
"201 -66 OFFCURVE",
"158 -66 CURVE SMOOTH",
"123 -66 OFFCURVE",
"96 -55 OFFCURVE",
"78 -34 CURVE",
"54 -45 OFFCURVE",
"37 -72 OFFCURVE",
"37 -104 CURVE SMOOTH",
"37 -152 OFFCURVE",
"78 -192 OFFCURVE",
"161 -192 CURVE SMOOTH",
"261 -192 OFFCURVE",
"326 -126 OFFCURVE",
"385 63 CURVE",
"499 418 LINE"
);
}
);
width = 530;
}
);
leftKerningGroup = y;
rightKerningGroup = y;
unicode = 0079;
},
{
glyphname = z;
lastChange = "2018-06-08 17:07:05 +0000";
layers = (
{
anchors = (
{
name = btm;
position = "{267, 0}";
},
{
name = top;
position = "{264, 822}";
}
);
layerId = "184835E3-72D9-430C-A639-2454AC4A0BE8";
paths = (
{
closed = 1;
nodes = (
"143 68 LINE",
"160 32 LINE",
"247 131 LINE",
"484 489 LINE {name = hr02;}",
"454 530 LINE {name = hr03;}",
"29 530 LINE",
"30 465 OFFCURVE",
"29 399 OFFCURVE",
"46 351 CURVE",
"126 351 LINE",
"126 431 OFFCURVE",
"152 463 OFFCURVE",
"215 463 CURVE SMOOTH",
"340 463 LINE",
"323 498 LINE",
"243 410 LINE",
"3 38 LINE",
"31 0 LINE {name = hr01;}",
"455 0 LINE",
"479 47 OFFCURVE",
"481 109 OFFCURVE",
"481 161 CURVE SMOOTH",
"481 196 LINE",
"406 196 LINE",
"386 118 OFFCURVE",
"363 68 OFFCURVE",
"261 68 CURVE SMOOTH"
);
}
);
width = 507;
}
);
leftKerningGroup = z;
rightKerningGroup = z;
unicode = 007A;
},
{
color = 4;
glyphname = f_f;
lastChange = "2018-06-08 17:00:32 +0000";
layers = (
{
anchors = (
{
name = btm;
position = "{198, 0}";
},
{
name = top;
position = "{197, 975}";
}
);
background = {
paths = (
{
closed = 1;
nodes = (
"330 450 LINE",
"345 473 OFFCURVE",
"347 510 OFFCURVE",
"347 540 CURVE",
"251 540 LINE SMOOTH",
"238 540 OFFCURVE",
"218 586 OFFCURVE",
"218 647 CURVE SMOOTH",
"218 703 OFFCURVE",
"246 750 OFFCURVE",
"282 750 CURVE SMOOTH {name = hr02;}",
"291 750 OFFCURVE",
"304 745 OFFCURVE",
"308 737 CURVE",
"279 716 OFFCURVE",
"276 692 OFFCURVE",
"276 674 CURVE SMOOTH",
"276 633 OFFCURVE",
"315 603 OFFCURVE",
"358 603 CURVE SMOOTH",
"406 603 OFFCURVE",
"436 644 OFFCURVE",
"436 697 CURVE SMOOTH",
"436 752 OFFCURVE",
"382 822 OFFCURVE",
"278 822 CURVE SMOOTH",
"158 822 OFFCURVE",
"77 754 OFFCURVE",
"77 615 CURVE SMOOTH",
"77 580 OFFCURVE",
"87 555 OFFCURVE",
"87 506 CURVE",
"98 549 LINE",
"76 532 OFFCURVE",
"63 521 OFFCURVE",
"26 512 CURVE",
"26 450 LINE {name = hr03;}",
"138 450 LINE",
"87 501 LINE",
"87 109 LINE SMOOTH",
"87 70 OFFCURVE",
"72 54 OFFCURVE",
"32 54 CURVE",
"32 33 OFFCURVE",
"40 15 OFFCURVE",
"55 0 CURVE",
"319 0 LINE",
"334 15 OFFCURVE",
"342 33 OFFCURVE",
"342 54 CURVE",
"262 54 OFFCURVE",
"248 73 OFFCURVE",
"248 118 CURVE SMOOTH",
"248 501 LINE {name = hr01;}",
"197 450 LINE {name = hr01;}"
);
}
);
};
layerId = "184835E3-72D9-430C-A639-2454AC4A0BE8";
paths = (
{
closed = 1;
nodes = (
"448 450 LINE",
"448 109 LINE SMOOTH",
"448 70 OFFCURVE",
"433 54 OFFCURVE",
"393 54 CURVE",
"393 33 OFFCURVE",
"402 16 OFFCURVE",
"416 0 CURVE",
"690 0 LINE",
"704 16 OFFCURVE",
"714 33 OFFCURVE",
"714 54 CURVE",
"634 54 OFFCURVE",
"611 73 OFFCURVE",
"611 118 CURVE SMOOTH",
"611 450 LINE",
"714 450 LINE",
"730 473 OFFCURVE",
"731 510 OFFCURVE",
"731 540 CURVE",
"617 540 LINE SMOOTH",
"571 540 OFFCURVE",
"570 591 OFFCURVE",
"570 651 CURVE SMOOTH",
"570 708 OFFCURVE",
"605 745 OFFCURVE",
"632 745 CURVE SMOOTH",
"640 745 OFFCURVE",
"644 743 OFFCURVE",
"652 738 CURVE",
"636 727 OFFCURVE",
"629 704 OFFCURVE",
"629 685 CURVE SMOOTH",
"629 641 OFFCURVE",
"675 617 OFFCURVE",
"716 617 CURVE SMOOTH",
"767 617 OFFCURVE",
"802 660 OFFCURVE",
"802 716 CURVE SMOOTH",
"802 773 OFFCURVE",
"749 822 OFFCURVE",
"654 822 CURVE SMOOTH",
"535 822 OFFCURVE",
"437 729 OFFCURVE",
"437 602 CURVE SMOOTH",
"437 585 OFFCURVE",
"439 557 OFFCURVE",
"442 540 CURVE",
"257 540 LINE SMOOTH",
"211 540 OFFCURVE",
"201 578 OFFCURVE",
"201 641 CURVE SMOOTH",
"201 700 OFFCURVE",
"233 738 OFFCURVE",
"263 738 CURVE SMOOTH",
"271 738 OFFCURVE",
"275 736 OFFCURVE",
"282 731 CURVE",
"267 720 OFFCURVE",
"260 697 OFFCURVE",
"260 678 CURVE SMOOTH",
"260 634 OFFCURVE",
"304 606 OFFCURVE",
"346 606 CURVE SMOOTH",
"398 606 OFFCURVE",
"429 647 OFFCURVE",
"429 704 CURVE SMOOTH",
"429 760 OFFCURVE",
"380 811 OFFCURVE",
"285 811 CURVE SMOOTH",
"160 811 OFFCURVE",
"77 749 OFFCURVE",
"77 595 CURVE SMOOTH",
"77 587 OFFCURVE",
"78 555 OFFCURVE",
"82 537 CURVE",
"68 526 OFFCURVE",
"54 518 OFFCURVE",
"26 512 CURVE",
"26 450 LINE",
"87 450 LINE",
"87 109 LINE SMOOTH",
"87 70 OFFCURVE",
"72 54 OFFCURVE",
"33 54 CURVE",
"33 33 OFFCURVE",
"41 16 OFFCURVE",
"56 0 CURVE",
"319 0 LINE",
"335 16 OFFCURVE",
"343 33 OFFCURVE",
"343 54 CURVE",
"263 54 OFFCURVE",
"248 73 OFFCURVE",
"248 118 CURVE SMOOTH",
"248 450 LINE {name = hr00;}"
);
}
);
width = 726;
}
);
leftKerningGroup = f;
leftMetricsKey = f;
rightKerningGroup = f;
rightMetricsKey = f;
unicode = FB00;
},
{
color = 4;
glyphname = ordfeminine;
lastChange = "2018-06-07 17:15:19 +0000";
layers = (
{
layerId = "184835E3-72D9-430C-A639-2454AC4A0BE8";
paths = (
{
closed = 1;
nodes = (
"40 435 OFFCURVE",
"92 387 OFFCURVE",
"167 387 CURVE SMOOTH",
"210 387 OFFCURVE",
"239 402 OFFCURVE",
"261 422 CURVE",
"275 399 OFFCURVE",
"301 387 OFFCURVE",
"336 387 CURVE SMOOTH",
"368 387 OFFCURVE",
"404 397 OFFCURVE",
"419 415 CURVE",
"418 439 LINE",
"395 444 OFFCURVE",
"383 459 OFFCURVE",
"383 482 CURVE SMOOTH",
"383 682 LINE SMOOTH",
"383 760 OFFCURVE",
"332 800 OFFCURVE",
"230 800 CURVE SMOOTH",
"117 800 OFFCURVE",
"66 750 OFFCURVE",
"66 702 CURVE SMOOTH",
"66 667 OFFCURVE",
"92 640 OFFCURVE",
"132 640 CURVE SMOOTH",
"167 640 OFFCURVE",
"193 660 OFFCURVE",
"193 691 CURVE SMOOTH",
"193 708 OFFCURVE",
"184 723 OFFCURVE",
"165 731 CURVE",
"175 740 OFFCURVE",
"190 743 OFFCURVE",
"205 743 CURVE SMOOTH",
"233 743 OFFCURVE",
"251 729 OFFCURVE",
"251 691 CURVE SMOOTH",
"251 593 LINE",
"232 603 OFFCURVE",
"201 609 OFFCURVE",
"172 609 CURVE SMOOTH",
"91 609 OFFCURVE",
"40 562 OFFCURVE",
"40 499 CURVE SMOOTH {name = hr00;}"
);
},
{
closed = 1;
nodes = (
"243 456 OFFCURVE",
"229 452 OFFCURVE",
"216 452 CURVE SMOOTH",
"190 452 OFFCURVE",
"172 469 OFFCURVE",
"172 499 CURVE SMOOTH",
"172 529 OFFCURVE",
"192 544 OFFCURVE",
"214 544 CURVE SMOOTH",
"229 544 OFFCURVE",
"242 537 OFFCURVE",
"251 531 CURVE",
"251 464 LINE"
);
}
);
width = 459;
}
);
leftKerningGroup = ordfeminine;
rightKerningGroup = ordfeminine;
unicode = 00AA;
},
{
color = 4;
glyphname = ordmasculine;
lastChange = "2018-06-07 17:16:42 +0000";
layers = (
{
layerId = "184835E3-72D9-430C-A639-2454AC4A0BE8";
paths = (
{
closed = 1;
nodes = (
"331 384 OFFCURVE",
"407 474 OFFCURVE",
"407 606 CURVE SMOOTH",
"407 731 OFFCURVE",
"334 800 OFFCURVE",
"227 800 CURVE SMOOTH",
"116 800 OFFCURVE",
"40 715 OFFCURVE",
"40 582 CURVE SMOOTH",
"40 457 OFFCURVE",
"113 384 OFFCURVE",
"220 384 CURVE SMOOTH"
);
},
{
closed = 1;
nodes = (
"193 439 OFFCURVE",
"175 472 OFFCURVE",
"175 600 CURVE SMOOTH {name = hr00;}",
"175 707 OFFCURVE",
"191 746 OFFCURVE",
"221 746 CURVE SMOOTH",
"254 746 OFFCURVE",
"272 718 OFFCURVE",
"272 589 CURVE SMOOTH",
"272 481 OFFCURVE",
"256 439 OFFCURVE",
"226 439 CURVE SMOOTH"
);
}
);
width = 447;
}
);
leftKerningGroup = ordmasculine;
rightKerningGroup = ordmasculine;
unicode = 00BA;
},
{
glyphname = Delta;
lastChange = "2018-06-08 04:21:26 +0000";
layers = (
{
layerId = "184835E3-72D9-430C-A639-2454AC4A0BE8";
paths = (
{
closed = 1;
nodes = (
"515 697 LINE",
"349 697 LINE",
"148 129 LINE SMOOTH",
"132 85 OFFCURVE",
"100 64 OFFCURVE",
"64 64 CURVE",
"64 40 OFFCURVE",
"72 16 OFFCURVE",
"87 0 CURVE",
"768 0 LINE",
"783 16 OFFCURVE",
"791 40 OFFCURVE",
"791 64 CURVE",
"757 64 OFFCURVE",
"721 85 OFFCURVE",
"706 129 CURVE SMOOTH"
);
},
{
closed = 1;
nodes = (
"332 79 LINE",
"293 79 OFFCURVE",
"269 79 OFFCURVE",
"269 115 CURVE SMOOTH",
"269 127 OFFCURVE",
"272 142 OFFCURVE",
"277 159 CURVE SMOOTH",
"395 552 LINE",
"404 539 OFFCURVE",
"412 523 OFFCURVE",
"417 506 CURVE SMOOTH",
"520 159 LINE SMOOTH",
"526 140 OFFCURVE",
"528 124 OFFCURVE",
"528 112 CURVE SMOOTH",
"528 78 OFFCURVE",
"509 79 OFFCURVE",
"474 79 CURVE",
"474 78 LINE",
"332 78 LINE"
);
}
);
width = 855;
}
);
leftKerningGroup = A;
rightKerningGroup = A;
unicode = 0394;
},
{
glyphname = Omega;
lastChange = "2018-06-07 15:02:57 +0000";
layers = (
{
layerId = "184835E3-72D9-430C-A639-2454AC4A0BE8";
paths = (
{
closed = 1;
nodes = (
"750 203 LINE",
"750 122 OFFCURVE",
"716 76 OFFCURVE",
"585 86 CURVE",
"585 109 OFFCURVE",
"767 220 OFFCURVE",
"767 399 CURVE SMOOTH",
"767 592 OFFCURVE",
"652 703 OFFCURVE",
"448 703 CURVE SMOOTH",
"244 703 OFFCURVE",
"129 592 OFFCURVE",
"129 399 CURVE SMOOTH",
"129 217 OFFCURVE",
"311 112 OFFCURVE",
"311 86 CURVE",
"147 86 OFFCURVE",
"146 122 OFFCURVE",
"146 203 CURVE",
"98 203 LINE",
"76 185 OFFCURVE",
"70 151 OFFCURVE",
"70 109 CURVE SMOOTH",
"70 53 OFFCURVE",
"92 0 OFFCURVE",
"176 0 CURVE SMOOTH {name = hr01;}",
"382 0 LINE",
"410 73 LINE",
"386 136 OFFCURVE",
"317 188 OFFCURVE",
"317 395 CURVE SMOOTH",
"317 559 OFFCURVE",
"357 629 OFFCURVE",
"450 629 CURVE SMOOTH",
"512 629 OFFCURVE",
"579 598 OFFCURVE",
"579 395 CURVE SMOOTH",
"579 188 OFFCURVE",
"510 136 OFFCURVE",
"486 73 CURVE",
"514 0 LINE",
"720 0 LINE SMOOTH {name = hr01;}",
"804 0 OFFCURVE",
"826 53 OFFCURVE",
"826 109 CURVE SMOOTH",
"826 151 OFFCURVE",
"820 185 OFFCURVE",
"798 203 CURVE"
);
}
);
width = 896;
}
);
leftKerningGroup = Omega;
rightKerningGroup = Omega;
unicode = 03A9;
},
{
glyphname = mu;
lastChange = "2018-06-07 19:07:30 +0000";
layers = (
{
layerId = "184835E3-72D9-430C-A639-2454AC4A0BE8";
paths = (
{
closed = 1;
nodes = (
"350 23 OFFCURVE",
"407 -13 OFFCURVE",
"467 -13 CURVE SMOOTH",
"503 -13 OFFCURVE",
"548 0 OFFCURVE",
"587 54 CURVE",
"560 87 LINE {name = hr02;}",
"551 82 OFFCURVE",
"543 80 OFFCURVE",
"537 80 CURVE SMOOTH",
"522 80 OFFCURVE",
"512 92 OFFCURVE",
"512 115 CURVE SMOOTH",
"512 502 LINE SMOOTH",
"512 533 OFFCURVE",
"471 548 OFFCURVE",
"430 548 CURVE SMOOTH",
"390 548 OFFCURVE",
"350 533 OFFCURVE",
"350 504 CURVE SMOOTH",
"350 88 LINE SMOOTH {name = hr01;}"
);
},
{
closed = 1;
nodes = (
"147 19 OFFCURVE",
"179 -13 OFFCURVE",
"231 -13 CURVE SMOOTH",
"276 -13 OFFCURVE",
"326 12 OFFCURVE",
"361 66 CURVE",
"359 139 LINE",
"341 108 OFFCURVE",
"311 82 OFFCURVE",
"276 82 CURVE SMOOTH",
"244 82 OFFCURVE",
"219 104 OFFCURVE",
"219 143 CURVE SMOOTH",
"219 502 LINE SMOOTH",
"219 533 OFFCURVE",
"178 548 OFFCURVE",
"138 548 CURVE SMOOTH",
"97 548 OFFCURVE",
"57 533 OFFCURVE",
"57 504 CURVE SMOOTH",
"57 154 LINE",
"54 -192 LINE",
"109 -192 LINE SMOOTH",
"149 -192 OFFCURVE",
"173 -169 OFFCURVE",
"173 -132 CURVE SMOOTH",
"173 -128 OFFCURVE",
"174 -125 OFFCURVE",
"173 -120 CURVE SMOOTH",
"145 108 LINE",
"126 45 LINE"
);
}
);
width = 597;
}
);
leftKerningGroup = uni03BC;
rightKerningGroup = uni03BC;
rightMetricsKey = u;
unicode = 03BC;
},
{
glyphname = pi;
lastChange = "2018-06-07 19:07:13 +0000";
layers = (
{
layerId = "184835E3-72D9-430C-A639-2454AC4A0BE8";
paths = (
{
closed = 1;
nodes = (
"389 468 LINE",
"409 31 LINE SMOOTH",
"411 -9 OFFCURVE",
"441 -12 OFFCURVE",
"498 -12 CURVE SMOOTH",
"541 -12 OFFCURVE",
"600 0 OFFCURVE",
"621 21 CURVE",
"620 49 LINE",
"589 55 OFFCURVE",
"576 75 OFFCURVE",
"572 107 CURVE SMOOTH",
"530 468 LINE {name = hr00;}"
);
},
{
closed = 1;
nodes = (
"252 0 OFFCURVE",
"254 60 OFFCURVE",
"258 108 CURVE SMOOTH",
"288 474 LINE",
"138 474 LINE",
"94 109 LINE SMOOTH",
"89 69 OFFCURVE",
"78 54 OFFCURVE",
"39 54 CURVE",
"39 32 OFFCURVE",
"47 15 OFFCURVE",
"62 0 CURVE",
"216 0 LINE"
);
},
{
closed = 1;
nodes = (
"58 402 LINE",
"633 402 LINE",
"633 540 LINE",
"58 540 LINE"
);
}
);
width = 688;
}
);
leftKerningGroup = pi;
rightKerningGroup = pi;
unicode = 03C0;
},
{
glyphname = zero;
lastChange = "2018-06-08 04:08:22 +0000";
layers = (
{
layerId = "184835E3-72D9-430C-A639-2454AC4A0BE8";
paths = (
{
closed = 1;
nodes = (
"514 -13 OFFCURVE",
"629 81 OFFCURVE",
"629 338 CURVE SMOOTH",
"629 607 OFFCURVE",
"517 712 OFFCURVE",
"343 712 CURVE SMOOTH",
"171 712 OFFCURVE",
"56 609 OFFCURVE",
"56 339 CURVE SMOOTH",
"56 84 OFFCURVE",
"168 -13 OFFCURVE",
"341 -13 CURVE SMOOTH"
);
},
{
closed = 1;
nodes = (
"284 57 OFFCURVE",
"237 100 OFFCURVE",
"237 337 CURVE SMOOTH",
"237 597 OFFCURVE",
"285 642 OFFCURVE",
"343 642 CURVE SMOOTH",
"401 642 OFFCURVE",
"447 597 OFFCURVE",
"447 340 CURVE SMOOTH",
"447 100 OFFCURVE",
"400 57 OFFCURVE",
"341 57 CURVE SMOOTH {name = hr00;}"
);
}
);
width = 685;
}
);
leftKerningGroup = zero;
rightKerningGroup = zero;
unicode = 0030;
userData = {
com.typemytype.robofont.guides = (
{
angle = 0;
isGlobal = 0;
magnetic = 5;
x = 0;
y = -27;
}
);
};
},
{
glyphname = one;
lastChange = "2018-06-07 15:02:57 +0000";
layers = (
{
layerId = "184835E3-72D9-430C-A639-2454AC4A0BE8";
paths = (
{
closed = 1;
nodes = (
"338 679 OFFCURVE",
"323 710 OFFCURVE",
"279 710 CURVE SMOOTH",
"261 710 OFFCURVE",
"239 705 OFFCURVE",
"194 679 CURVE SMOOTH",
"38 588 LINE",
"65 538 LINE",
"83 546 OFFCURVE",
"109 551 OFFCURVE",
"128 551 CURVE SMOOTH",
"158 551 OFFCURVE",
"173 540 OFFCURVE",
"173 519 CURVE SMOOTH",
"173 155 LINE SMOOTH",
"173 85 OFFCURVE",
"128 55 OFFCURVE",
"63 55 CURVE",
"63 35 OFFCURVE",
"72 14 OFFCURVE",
"87 0 CURVE",
"419 0 LINE",
"434 14 OFFCURVE",
"442 35 OFFCURVE",
"442 55 CURVE",
"373 55 OFFCURVE",
"338 84 OFFCURVE",
"338 155 CURVE SMOOTH",
"338 656 LINE SMOOTH {name = hr00;}"
);
}
);
width = 480;
}
);
leftKerningGroup = one;
rightKerningGroup = one;
unicode = 0031;
},
{
glyphname = two;
lastChange = "2018-06-08 04:07:24 +0000";
layers = (
{
layerId = "184835E3-72D9-430C-A639-2454AC4A0BE8";
paths = (
{
closed = 1;
nodes = (
"140 33 LINE",
"169 235 OFFCURVE",
"546 260 OFFCURVE",
"546 511 CURVE SMOOTH",
"546 647 OFFCURVE",
"436 712 OFFCURVE",
"299 712 CURVE SMOOTH",
"147 712 OFFCURVE",
"51 631 OFFCURVE",
"51 540 CURVE SMOOTH",
"51 478 OFFCURVE",
"94 443 OFFCURVE",
"142 443 CURVE SMOOTH",
"188 443 OFFCURVE",
"232 474 OFFCURVE",
"232 521 CURVE SMOOTH",
"232 552 OFFCURVE",
"210 585 OFFCURVE",
"177 595 CURVE",
"199 625 OFFCURVE",
"229 642 OFFCURVE",
"268 642 CURVE SMOOTH",
"324 642 OFFCURVE",
"368 608 OFFCURVE",
"368 528 CURVE SMOOTH",
"368 330 OFFCURVE",
"95 249 OFFCURVE",
"51 14 CURVE",
"83 -11 LINE {name = hr01;}"
);
},
{
closed = 1;
nodes = (
"120 4 OFFCURVE",
"164 10 OFFCURVE",
"207 10 CURVE SMOOTH",
"286 10 OFFCURVE",
"330 -10 OFFCURVE",
"400 -10 CURVE SMOOTH {name = hr02;}",
"533 -10 OFFCURVE",
"572 66 OFFCURVE",
"572 129 CURVE SMOOTH",
"572 168 OFFCURVE",
"557 205 OFFCURVE",
"536 224 CURVE",
"513 224 LINE",
"498 170 OFFCURVE",
"442 139 OFFCURVE",
"378 139 CURVE SMOOTH {name = hr03;}",
"310 139 LINE SMOOTH",
"253 139 OFFCURVE",
"202 126 OFFCURVE",
"148 98 CURVE",
"84 -11 LINE"
);
}
);
width = 623;
}
);
leftKerningGroup = two;
rightKerningGroup = two;
unicode = 0032;
},
{
glyphname = three;
lastChange = "2018-06-08 04:08:37 +0000";
layers = (
{
background = {
paths = (
{
closed = 1;
nodes = (
"539 667 OFFCURVE",
"439 726 OFFCURVE",
"301 726 CURVE SMOOTH",
"172 726 OFFCURVE",
"67 673 OFFCURVE",
"67 582 CURVE SMOOTH",
"67 535 OFFCURVE",
"95 502 OFFCURVE",
"145 502 CURVE SMOOTH",
"194 502 OFFCURVE",
"219 535 OFFCURVE",
"219 564 CURVE SMOOTH",
"219 590 OFFCURVE",
"200 612 OFFCURVE",
"183 619 CURVE",
"203 644 OFFCURVE",
"233 656 OFFCURVE",
"265 656 CURVE SMOOTH",
"328 656 OFFCURVE",
"362 615 OFFCURVE",
"362 549 CURVE SMOOTH",
"362 488 OFFCURVE",
"332 429 OFFCURVE",
"206 396 CURVE",
"339 372 LINE",
"472 407 OFFCURVE",
"539 479 OFFCURVE",
"539 566 CURVE SMOOTH {name = hr00;}"
);
}
);
};
layerId = "184835E3-72D9-430C-A639-2454AC4A0BE8";
paths = (
{
closed = 1;
nodes = (
"539 653 OFFCURVE",
"439 712 OFFCURVE",
"301 712 CURVE SMOOTH",
"172 712 OFFCURVE",
"67 659 OFFCURVE",
"67 568 CURVE SMOOTH",
"67 521 OFFCURVE",
"94 485 OFFCURVE",
"144 485 CURVE SMOOTH",
"193 485 OFFCURVE",
"219 521 OFFCURVE",
"219 550 CURVE SMOOTH",
"219 576 OFFCURVE",
"200 598 OFFCURVE",
"183 605 CURVE",
"203 630 OFFCURVE",
"233 642 OFFCURVE",
"265 642 CURVE SMOOTH",
"328 642 OFFCURVE",
"362 601 OFFCURVE",
"362 535 CURVE SMOOTH",
"362 474 OFFCURVE",
"332 415 OFFCURVE",
"206 382 CURVE",
"226 322 LINE",
"478 376 OFFCURVE",
"539 465 OFFCURVE",
"539 552 CURVE SMOOTH {name = hr00;}"
);
},
{
closed = 1;
nodes = (
"589 327 OFFCURVE",
"491 382 OFFCURVE",
"367 367 CURVE",
"206 382 LINE",
"231 336 LINE",
"283 336 LINE SMOOTH",
"372 336 OFFCURVE",
"407 259 OFFCURVE",
"407 190 CURVE SMOOTH",
"407 121 OFFCURVE",
"353 67 OFFCURVE",
"275 67 CURVE SMOOTH",
"236 67 OFFCURVE",
"196 79 OFFCURVE",
"180 93 CURVE",
"200 110 OFFCURVE",
"207 138 OFFCURVE",
"207 156 CURVE SMOOTH",
"207 192 OFFCURVE",
"178 222 OFFCURVE",
"133 222 CURVE SMOOTH",
"88 222 OFFCURVE",
"53 193 OFFCURVE",
"53 138 CURVE SMOOTH",
"53 44 OFFCURVE",
"154 -13 OFFCURVE",
"293 -13 CURVE SMOOTH",
"465 -13 OFFCURVE",
"589 73 OFFCURVE",
"589 196 CURVE SMOOTH"
);
}
);
width = 640;
}
);
leftKerningGroup = three;
rightKerningGroup = three;
unicode = 0033;
},
{
color = 5;
glyphname = four;
lastChange = "2018-06-08 16:00:58 +0000";
layers = (
{
layerId = "184835E3-72D9-430C-A639-2454AC4A0BE8";
paths = (
{
closed = 1;
nodes = (
"572 294 OFFCURVE",
"548 274 OFFCURVE",
"495 274 CURVE SMOOTH",
"138 274 LINE",
"342 629 LINE",
"402 698 LINE",
"268 698 LINE",
"5 225 LINE",
"28 192 LINE",
"479 192 LINE SMOOTH",
"629 192 OFFCURVE",
"653 224 OFFCURVE",
"653 280 CURVE SMOOTH",
"653 309 OFFCURVE",
"635 334 OFFCURVE",
"613 341 CURVE",
"590 341 LINE {name = hr00;}"
);
},
{
closed = 1;
nodes = (
"325 72 OFFCURVE",
"279 59 OFFCURVE",
"216 59 CURVE",
"216 39 OFFCURVE",
"223 14 OFFCURVE",
"238 0 CURVE",
"559 0 LINE",
"574 14 OFFCURVE",
"583 39 OFFCURVE",
"583 59 CURVE",
"514 59 OFFCURVE",
"479 72 OFFCURVE",
"479 113 CURVE SMOOTH",
"479 698 LINE",
"369 698 LINE",
"325 621 LINE",
"325 114 LINE SMOOTH"
);
}
);
width = 663;
}
);
leftKerningGroup = four;
rightKerningGroup = four;
unicode = 0034;
},
{
glyphname = five;
lastChange = "2018-06-08 04:16:26 +0000";
layers = (
{
layerId = "184835E3-72D9-430C-A639-2454AC4A0BE8";
paths = (
{
closed = 1;
nodes = (
"200 94 OFFCURVE",
"217 116 OFFCURVE",
"217 146 CURVE SMOOTH",
"217 189 OFFCURVE",
"183 220 OFFCURVE",
"137 220 CURVE SMOOTH",
"90 220 OFFCURVE",
"51 187 OFFCURVE",
"51 131 CURVE SMOOTH",
"51 47 OFFCURVE",
"144 -13 OFFCURVE",
"285 -13 CURVE SMOOTH",
"473 -13 OFFCURVE",
"574 100 OFFCURVE",
"574 222 CURVE SMOOTH",
"574 345 OFFCURVE",
"475 433 OFFCURVE",
"329 433 CURVE SMOOTH",
"259 433 OFFCURVE",
"210 414 OFFCURVE",
"175 395 CURVE",
"198 360 LINE",
"229 645 LINE",
"122 645 LINE",
"118 590 LINE",
"138 590 OFFCURVE",
"179 634 OFFCURVE",
"191 634 CURVE SMOOTH",
"274 634 OFFCURVE",
"335 577 OFFCURVE",
"430 577 CURVE SMOOTH",
"491 577 OFFCURVE",
"541 608 OFFCURVE",
"541 656 CURVE SMOOTH",
"541 687 OFFCURVE",
"530 715 OFFCURVE",
"512 728 CURVE",
"489 728 LINE",
"457 707 OFFCURVE",
"409 698 OFFCURVE",
"335 698 CURVE SMOOTH",
"107 698 LINE",
"93 367 LINE",
"132 322 LINE",
"162 336 OFFCURVE",
"208 344 OFFCURVE",
"245 344 CURVE SMOOTH",
"328 344 OFFCURVE",
"391 295 OFFCURVE",
"391 209 CURVE SMOOTH",
"391 133 OFFCURVE",
"340 71 OFFCURVE",
"249 71 CURVE SMOOTH",
"209 71 OFFCURVE",
"175 82 OFFCURVE",
"165 91 CURVE",
"153 74 LINE {name = hr00;}"
);
}
);
width = 624;
}
);
leftKerningGroup = five;
rightKerningGroup = five;
unicode = 0035;
},
{
color = 1;
glyphname = six;
lastChange = "2018-06-08 04:04:29 +0000";
layers = (
{
layerId = "184835E3-72D9-430C-A639-2454AC4A0BE8";
paths = (
{
closed = 1;
nodes = (
"318 427 OFFCURVE",
"263 408 OFFCURVE",
"228 375 CURVE",
"227 378 OFFCURVE",
"227 382 OFFCURVE",
"227 386 CURVE SMOOTH",
"227 569 OFFCURVE",
"288 635 OFFCURVE",
"361 635 CURVE SMOOTH {name = hr00;}",
"394 635 OFFCURVE",
"424 622 OFFCURVE",
"442 601 CURVE",
"418 589 OFFCURVE",
"403 563 OFFCURVE",
"403 536 CURVE SMOOTH",
"403 492 OFFCURVE",
"440 459 OFFCURVE",
"490 459 CURVE SMOOTH",
"545 459 OFFCURVE",
"577 500 OFFCURVE",
"577 553 CURVE SMOOTH",
"577 647 OFFCURVE",
"478 705 OFFCURVE",
"361 705 CURVE SMOOTH",
"193 705 OFFCURVE",
"53 572 OFFCURVE",
"53 316 CURVE SMOOTH",
"53 78 OFFCURVE",
"168 -20 OFFCURVE",
"333 -20 CURVE SMOOTH",
"495 -20 OFFCURVE",
"597 98 OFFCURVE",
"597 230 CURVE SMOOTH",
"597 357 OFFCURVE",
"503 427 OFFCURVE",
"379 427 CURVE SMOOTH"
);
},
{
closed = 1;
nodes = (
"281 55 OFFCURVE",
"226 105 OFFCURVE",
"226 252 CURVE SMOOTH",
"226 265 OFFCURVE",
"226 279 OFFCURVE",
"227 293 CURVE",
"245 328 OFFCURVE",
"281 345 OFFCURVE",
"327 345 CURVE SMOOTH",
"385 345 OFFCURVE",
"430 312 OFFCURVE",
"430 206 CURVE SMOOTH",
"430 100 OFFCURVE",
"387 55 OFFCURVE",
"336 55 CURVE SMOOTH"
);
}
);
width = 650;
}
);
leftKerningGroup = six;
rightKerningGroup = six;
unicode = 0036;
},
{
glyphname = seven;
lastChange = "2018-06-07 15:02:57 +0000";
layers = (
{
layerId = "184835E3-72D9-430C-A639-2454AC4A0BE8";
paths = (
{
closed = 1;
nodes = (
"507 684 OFFCURVE",
"458 674 OFFCURVE",
"412 674 CURVE SMOOTH",
"324 674 OFFCURVE",
"262 711 OFFCURVE",
"169 711 CURVE SMOOTH {name = hr02;}",
"61 711 OFFCURVE",
"20 661 OFFCURVE",
"20 594 CURVE SMOOTH",
"20 543 OFFCURVE",
"44 508 OFFCURVE",
"71 488 CURVE",
"99 488 LINE",
"124 532 OFFCURVE",
"169 558 OFFCURVE",
"239 558 CURVE SMOOTH",
"280 558 LINE SMOOTH",
"374 558 OFFCURVE",
"442 575 OFFCURVE",
"488 601 CURVE",
"544 711 LINE {name = hr01;}"
);
},
{
closed = 1;
nodes = (
"200 -15 OFFCURVE",
"241 -18 OFFCURVE",
"268 -18 CURVE SMOOTH",
"371 -18 OFFCURVE",
"375 26 OFFCURVE",
"378 60 CURVE SMOOTH",
"393 237 OFFCURVE",
"378 406 OFFCURVE",
"580 662 CURVE",
"544 711 LINE",
"516 670 LINE",
"292 418 OFFCURVE",
"206 223 OFFCURVE",
"178 1 CURVE"
);
}
);
width = 590;
}
);
leftKerningGroup = seven;
rightKerningGroup = seven;
unicode = 0037;
userData = {
com.typemytype.robofont.guides = (
{
angle = 0;
isGlobal = 0;
magnetic = 5;
x = 0;
y = -32;
}
);
};
},
{
color = 5;
glyphname = eight;
lastChange = "2018-06-07 19:05:23 +0000";
layers = (
{
layerId = "184835E3-72D9-430C-A639-2454AC4A0BE8";
paths = (
{
closed = 1;
nodes = (
"499 453 OFFCURVE",
"549 505 OFFCURVE",
"549 569 CURVE SMOOTH",
"549 642 OFFCURVE",
"490 726 OFFCURVE",
"326 726 CURVE SMOOTH",
"160 726 OFFCURVE",
"74 643 OFFCURVE",
"74 539 CURVE SMOOTH",
"74 464 OFFCURVE",
"121 412 OFFCURVE",
"179 368 CURVE",
"98 335 OFFCURVE",
"44 266 OFFCURVE",
"44 188 CURVE SMOOTH",
"44 94 OFFCURVE",
"121 1 OFFCURVE",
"302 1 CURVE SMOOTH",
"481 1 OFFCURVE",
"586 93 OFFCURVE",
"586 211 CURVE SMOOTH",
"586 292 OFFCURVE",
"540 361 OFFCURVE",
"433 418 CURVE"
);
},
{
closed = 1;
nodes = (
"401 659 OFFCURVE",
"431 616 OFFCURVE",
"431 567 CURVE SMOOTH",
"431 523 OFFCURVE",
"407 482 OFFCURVE",
"361 451 CURVE",
"263 496 OFFCURVE",
"229 538 OFFCURVE",
"229 578 CURVE SMOOTH",
"229 625 OFFCURVE",
"274 659 OFFCURVE",
"334 659 CURVE SMOOTH"
);
},
{
closed = 1;
nodes = (
"221 75 OFFCURVE",
"172 133 OFFCURVE",
"172 203 CURVE SMOOTH",
"172 253 OFFCURVE",
"198 300 OFFCURVE",
"247 325 CURVE",
"381 276 OFFCURVE",
"419 230 OFFCURVE",
"419 176 CURVE SMOOTH",
"419 119 OFFCURVE",
"371 75 OFFCURVE",
"301 75 CURVE SMOOTH"
);
}
);
width = 630;
}
);
leftKerningGroup = eight;
rightKerningGroup = eight;
unicode = 0038;
},
{
color = 1;
glyphname = nine;
lastChange = "2018-06-08 04:04:29 +0000";
layers = (
{
layerId = "184835E3-72D9-430C-A639-2454AC4A0BE8";
paths = (
{
closed = 1;
nodes = (
"254 75 OFFCURVE",
"223 85 OFFCURVE",
"202 111 CURVE",
"236 124 OFFCURVE",
"248 149 OFFCURVE",
"248 177 CURVE SMOOTH",
"248 226 OFFCURVE",
"208 250 OFFCURVE",
"165 250 CURVE SMOOTH",
"110 250 OFFCURVE",
"77 213 OFFCURVE",
"77 156 CURVE SMOOTH",
"77 62 OFFCURVE",
"168 1 OFFCURVE",
"301 1 CURVE SMOOTH",
"463 1 OFFCURVE",
"593 149 OFFCURVE",
"593 373 CURVE SMOOTH",
"593 378 OFFCURVE",
"593 384 OFFCURVE",
"593 389 CURVE SMOOTH",
"593 610 OFFCURVE",
"487 726 OFFCURVE",
"319 726 CURVE SMOOTH",
"155 726 OFFCURVE",
"52 619 OFFCURVE",
"52 489 CURVE SMOOTH",
"52 357 OFFCURVE",
"144 280 OFFCURVE",
"271 280 CURVE SMOOTH",
"383 280 OFFCURVE",
"468 340 OFFCURVE",
"474 426 CURVE",
"431 443 LINE",
"431 390 OFFCURVE",
"385 362 OFFCURVE",
"330 362 CURVE SMOOTH",
"265 362 OFFCURVE",
"214 404 OFFCURVE",
"214 507 CURVE SMOOTH",
"214 619 OFFCURVE",
"270 652 OFFCURVE",
"318 652 CURVE SMOOTH",
"366 652 OFFCURVE",
"419 615 OFFCURVE",
"419 437 CURVE SMOOTH",
"419 412 OFFCURVE",
"418 386 OFFCURVE",
"416 357 CURVE",
"416 316 LINE",
"416 310 OFFCURVE",
"416 305 OFFCURVE",
"416 301 CURVE SMOOTH",
"416 154 OFFCURVE",
"370 75 OFFCURVE",
"290 75 CURVE SMOOTH {name = hr00;}"
);
}
);
width = 646;
}
);
leftKerningGroup = nine;
rightKerningGroup = nine;
unicode = 0039;
},
{
glyphname = zero.osf;
lastChange = "2018-06-07 15:02:57 +0000";
layers = (
{
layerId = "184835E3-72D9-430C-A639-2454AC4A0BE8";
paths = (
{
closed = 1;
nodes = (
"514 -11 OFFCURVE",
"629 70 OFFCURVE",
"629 298 CURVE SMOOTH",
"629 523 OFFCURVE",
"517 617 OFFCURVE",
"343 617 CURVE SMOOTH",
"171 617 OFFCURVE",
"56 525 OFFCURVE",
"56 298 CURVE SMOOTH",
"56 72 OFFCURVE",
"168 -11 OFFCURVE",
"341 -11 CURVE SMOOTH"
);
},
{
closed = 1;
nodes = (
"284 51 OFFCURVE",
"237 87 OFFCURVE",
"237 296 CURVE SMOOTH",
"237 515 OFFCURVE",
"285 556 OFFCURVE",
"343 556 CURVE SMOOTH",
"401 556 OFFCURVE",
"447 515 OFFCURVE",
"447 299 CURVE SMOOTH",
"447 87 OFFCURVE",
"400 51 OFFCURVE",
"341 51 CURVE SMOOTH {name = hr00;}"
);
}
);
width = 685;
}
);
leftKerningGroup = zero.osf;
rightKerningGroup = zero.osf;
},
{
glyphname = one.osf;
lastChange = "2018-06-07 15:02:57 +0000";
layers = (
{
layerId = "184835E3-72D9-430C-A639-2454AC4A0BE8";
paths = (
{
closed = 1;
nodes = (
"338 590 OFFCURVE",
"323 617 OFFCURVE",
"279 617 CURVE SMOOTH",
"261 617 OFFCURVE",
"239 613 OFFCURVE",
"194 590 CURVE SMOOTH",
"38 511 LINE",
"65 467 LINE",
"83 475 OFFCURVE",
"109 479 OFFCURVE",
"128 479 CURVE SMOOTH",
"158 479 OFFCURVE",
"173 468 OFFCURVE",
"173 450 CURVE SMOOTH",
"173 129 LINE SMOOTH",
"173 67 OFFCURVE",
"128 41 OFFCURVE",
"63 41 CURVE",
"63 23 OFFCURVE",
"72 4 OFFCURVE",
"87 -8 CURVE",
"419 -8 LINE",
"434 4 OFFCURVE",
"442 23 OFFCURVE",
"442 41 CURVE",
"373 41 OFFCURVE",
"338 66 OFFCURVE",
"338 129 CURVE SMOOTH",
"338 569 LINE SMOOTH {name = hr00;}"
);
}
);
width = 480;
}
);
leftKerningGroup = one.osf;
rightKerningGroup = one.osf;
},
{
glyphname = two.osf;
lastChange = "2018-06-07 15:02:57 +0000";
layers = (
{
layerId = "184835E3-72D9-430C-A639-2454AC4A0BE8";
paths = (
{
closed = 1;
nodes = (
"140 35 LINE",
"169 210 OFFCURVE",
"546 212 OFFCURVE",
"546 429 CURVE SMOOTH",
"546 546 OFFCURVE",
"436 617 OFFCURVE",
"299 617 CURVE SMOOTH",
"126 617 OFFCURVE",
"51 533 OFFCURVE",
"51 454 CURVE SMOOTH",
"51 401 OFFCURVE",
"94 361 OFFCURVE",
"142 361 CURVE SMOOTH",
"188 361 OFFCURVE",
"232 388 OFFCURVE",
"232 427 CURVE SMOOTH",
"232 455 OFFCURVE",
"210 493 OFFCURVE",
"177 501 CURVE",
"199 527 OFFCURVE",
"218 557 OFFCURVE",
"268 557 CURVE SMOOTH",
"324 557 OFFCURVE",
"368 513 OFFCURVE",
"368 444 CURVE SMOOTH",
"368 271 OFFCURVE",
"95 223 OFFCURVE",
"51 18 CURVE",
"83 -3 LINE {name = hr01;}"
);
},
{
closed = 1;
nodes = (
"120 10 OFFCURVE",
"164 16 OFFCURVE",
"207 16 CURVE SMOOTH",
"286 16 OFFCURVE",
"330 -2 OFFCURVE",
"400 -2 CURVE SMOOTH {name = hr02;}",
"533 -2 OFFCURVE",
"572 65 OFFCURVE",
"572 119 CURVE SMOOTH",
"572 152 OFFCURVE",
"557 184 OFFCURVE",
"536 200 CURVE",
"513 200 LINE",
"498 153 OFFCURVE",
"442 127 OFFCURVE",
"378 127 CURVE SMOOTH {name = hr03;}",
"310 127 LINE SMOOTH",
"253 127 OFFCURVE",
"202 115 OFFCURVE",
"148 92 CURVE",
"84 -3 LINE"
);
}
);
width = 623;
}
);
leftKerningGroup = two.osf;
rightKerningGroup = two.osf;
},
{
glyphname = three.osf;
lastChange = "2018-06-07 15:02:57 +0000";
layers = (
{
layerId = "184835E3-72D9-430C-A639-2454AC4A0BE8";
paths = (
{
closed = 1;
nodes = (
"539 557 OFFCURVE",
"439 617 OFFCURVE",
"301 617 CURVE SMOOTH",
"172 617 OFFCURVE",
"67 564 OFFCURVE",
"67 473 CURVE SMOOTH",
"67 426 OFFCURVE",
"95 392 OFFCURVE",
"145 392 CURVE SMOOTH",
"194 392 OFFCURVE",
"219 425 OFFCURVE",
"219 455 CURVE SMOOTH",
"219 481 OFFCURVE",
"200 503 OFFCURVE",
"183 510 CURVE",
"203 535 OFFCURVE",
"233 546 OFFCURVE",
"265 546 CURVE SMOOTH",
"328 546 OFFCURVE",
"362 506 OFFCURVE",
"362 440 CURVE SMOOTH",
"362 379 OFFCURVE",
"332 301 OFFCURVE",
"206 268 CURVE",
"339 264 LINE",
"472 299 OFFCURVE",
"539 355 OFFCURVE",
"539 457 CURVE SMOOTH {name = hr00;}"
);
},
{
closed = 1;
nodes = (
"589 195 OFFCURVE",
"501 275 OFFCURVE",
"375 282 CURVE",
"206 268 LINE",
"225 217 LINE",
"266 217 LINE SMOOTH",
"353 217 OFFCURVE",
"407 154 OFFCURVE",
"407 85 CURVE SMOOTH",
"407 15 OFFCURVE",
"353 -30 OFFCURVE",
"275 -30 CURVE SMOOTH",
"236 -30 OFFCURVE",
"196 -18 OFFCURVE",
"180 -3 CURVE",
"200 14 OFFCURVE",
"207 33 OFFCURVE",
"207 51 CURVE SMOOTH",
"207 87 OFFCURVE",
"178 115 OFFCURVE",
"133 115 CURVE SMOOTH",
"88 115 OFFCURVE",
"53 88 OFFCURVE",
"53 33 CURVE SMOOTH",
"53 -61 OFFCURVE",
"154 -118 OFFCURVE",
"293 -118 CURVE SMOOTH",
"465 -118 OFFCURVE",
"589 -32 OFFCURVE",
"589 91 CURVE SMOOTH"
);
}
);
width = 640;
}
);
leftKerningGroup = three.osf;
rightKerningGroup = three.osf;
},
{
glyphname = four.osf;
lastChange = "2018-06-07 15:02:57 +0000";
layers = (
{
layerId = "184835E3-72D9-430C-A639-2454AC4A0BE8";
paths = (
{
closed = 1;
nodes = (
"621 301 OFFCURVE",
"584 274 OFFCURVE",
"531 274 CURVE SMOOTH",
"200 274 LINE",
"424 641 LINE",
"480 710 LINE",
"382 710 LINE",
"60 240 LINE",
"86 192 LINE",
"506 192 LINE SMOOTH",
"656 192 OFFCURVE",
"702 231 OFFCURVE",
"702 287 CURVE SMOOTH",
"702 316 OFFCURVE",
"684 341 OFFCURVE",
"662 348 CURVE",
"639 348 LINE {name = hr00;}"
);
},
{
closed = 1;
nodes = (
"366 72 OFFCURVE",
"320 59 OFFCURVE",
"257 59 CURVE",
"257 39 OFFCURVE",
"264 14 OFFCURVE",
"279 0 CURVE",
"611 0 LINE",
"626 14 OFFCURVE",
"635 39 OFFCURVE",
"635 59 CURVE",
"566 59 OFFCURVE",
"531 72 OFFCURVE",
"531 113 CURVE SMOOTH",
"531 710 LINE",
"480 710 LINE",
"366 633 LINE",
"366 114 LINE SMOOTH"
);
}
);
width = 761;
}
);
leftKerningGroup = four.osf;
rightKerningGroup = four.osf;
},
{
glyphname = five.osf;
lastChange = "2018-06-07 15:02:57 +0000";
layers = (
{
layerId = "184835E3-72D9-430C-A639-2454AC4A0BE8";
paths = (
{
closed = 1;
nodes = (
"200 -14 OFFCURVE",
"217 8 OFFCURVE",
"217 38 CURVE SMOOTH",
"217 81 OFFCURVE",
"183 112 OFFCURVE",
"137 112 CURVE SMOOTH",
"90 112 OFFCURVE",
"51 79 OFFCURVE",
"51 23 CURVE SMOOTH",
"51 -61 OFFCURVE",
"144 -121 OFFCURVE",
"285 -121 CURVE SMOOTH",
"473 -121 OFFCURVE",
"574 -14 OFFCURVE",
"574 108 CURVE SMOOTH",
"574 231 OFFCURVE",
"475 334 OFFCURVE",
"329 334 CURVE SMOOTH",
"259 334 OFFCURVE",
"210 315 OFFCURVE",
"175 296 CURVE",
"198 261 LINE",
"229 551 LINE",
"112 491 LINE",
"113 490 OFFCURVE",
"115 489 OFFCURVE",
"118 489 CURVE SMOOTH",
"138 489 OFFCURVE",
"199 516 OFFCURVE",
"211 516 CURVE SMOOTH",
"294 516 OFFCURVE",
"314 454 OFFCURVE",
"409 454 CURVE SMOOTH",
"492 454 OFFCURVE",
"541 502 OFFCURVE",
"541 563 CURVE SMOOTH",
"541 594 OFFCURVE",
"530 621 OFFCURVE",
"512 635 CURVE",
"489 635 LINE",
"457 614 OFFCURVE",
"409 604 OFFCURVE",
"335 604 CURVE SMOOTH",
"107 604 LINE",
"93 268 LINE",
"132 224 LINE",
"162 237 OFFCURVE",
"208 245 OFFCURVE",
"245 245 CURVE SMOOTH",
"328 245 OFFCURVE",
"391 181 OFFCURVE",
"391 95 CURVE SMOOTH",
"391 18 OFFCURVE",
"340 -37 OFFCURVE",
"249 -37 CURVE SMOOTH",
"209 -37 OFFCURVE",
"175 -27 OFFCURVE",
"165 -17 CURVE",
"153 -35 LINE {name = hr00;}"
);
}
);
width = 624;
}
);
leftKerningGroup = five.osf;
rightKerningGroup = five.osf;
},
{
glyphname = six.osf;
lastChange = "2018-06-07 15:02:57 +0000";
layers = (
{
layerId = "184835E3-72D9-430C-A639-2454AC4A0BE8";
paths = (
{
closed = 1;
nodes = (
"398 632 OFFCURVE",
"426 620 OFFCURVE",
"443 601 CURVE",
"420 588 OFFCURVE",
"406 564 OFFCURVE",
"406 538 CURVE SMOOTH",
"406 496 OFFCURVE",
"441 464 OFFCURVE",
"489 464 CURVE SMOOTH",
"541 464 OFFCURVE",
"572 503 OFFCURVE",
"572 554 CURVE SMOOTH",
"572 644 OFFCURVE",
"478 702 OFFCURVE",
"361 702 CURVE SMOOTH",
"193 702 OFFCURVE",
"53 586 OFFCURVE",
"53 330 CURVE SMOOTH",
"53 93 OFFCURVE",
"168 -13 OFFCURVE",
"333 -13 CURVE SMOOTH",
"495 -13 OFFCURVE",
"597 96 OFFCURVE",
"597 228 CURVE SMOOTH",
"597 348 OFFCURVE",
"503 427 OFFCURVE",
"379 427 CURVE SMOOTH",
"262 427 OFFCURVE",
"181 358 OFFCURVE",
"174 254 CURVE",
"217 238 LINE",
"217 308 OFFCURVE",
"264 345 OFFCURVE",
"327 345 CURVE SMOOTH",
"385 345 OFFCURVE",
"428 312 OFFCURVE",
"428 213 CURVE SMOOTH",
"428 107 OFFCURVE",
"387 62 OFFCURVE",
"336 62 CURVE SMOOTH",
"281 62 OFFCURVE",
"229 105 OFFCURVE",
"229 252 CURVE SMOOTH",
"229 274 OFFCURVE",
"229 298 OFFCURVE",
"232 324 CURVE",
"231 365 LINE",
"231 372 OFFCURVE",
"230 379 OFFCURVE",
"230 386 CURVE SMOOTH",
"230 568 OFFCURVE",
"293 632 OFFCURVE",
"366 632 CURVE SMOOTH {name = hr00;}"
);
}
);
width = 650;
}
);
leftKerningGroup = six.osf;
rightKerningGroup = six.osf;
},
{
glyphname = seven.osf;
lastChange = "2018-06-07 15:02:57 +0000";
layers = (
{
layerId = "184835E3-72D9-430C-A639-2454AC4A0BE8";
paths = (
{
closed = 1;
nodes = (
"539 589 OFFCURVE",
"490 579 OFFCURVE",
"444 579 CURVE SMOOTH",
"356 579 OFFCURVE",
"294 617 OFFCURVE",
"201 617 CURVE SMOOTH {name = hr02;}",
"93 617 OFFCURVE",
"52 566 OFFCURVE",
"52 500 CURVE SMOOTH",
"52 449 OFFCURVE",
"76 414 OFFCURVE",
"103 394 CURVE",
"131 394 LINE",
"156 437 OFFCURVE",
"201 463 OFFCURVE",
"271 463 CURVE SMOOTH",
"312 463 LINE SMOOTH",
"406 463 OFFCURVE",
"474 480 OFFCURVE",
"520 507 CURVE",
"576 616 LINE {name = hr01;}"
);
},
{
closed = 1;
nodes = (
"220 -115 OFFCURVE",
"260 -118 OFFCURVE",
"287 -118 CURVE SMOOTH",
"390 -118 OFFCURVE",
"394 -74 OFFCURVE",
"398 -40 CURVE SMOOTH",
"419 136 OFFCURVE",
"410 312 OFFCURVE",
"612 567 CURVE",
"576 617 LINE",
"548 575 LINE",
"324 324 OFFCURVE",
"225 123 OFFCURVE",
"197 -100 CURVE"
);
}
);
width = 662;
}
);
leftKerningGroup = seven.osf;
rightKerningGroup = seven.osf;
},
{
glyphname = eight.osf;
lastChange = "2018-06-07 15:02:57 +0000";
layers = (
{
layerId = "184835E3-72D9-430C-A639-2454AC4A0BE8";
paths = (
{
closed = 1;
nodes = (
"490 424 OFFCURVE",
"533 477 OFFCURVE",
"533 541 CURVE SMOOTH",
"533 614 OFFCURVE",
"476 698 OFFCURVE",
"319 698 CURVE SMOOTH",
"162 698 OFFCURVE",
"76 613 OFFCURVE",
"76 509 CURVE SMOOTH",
"76 434 OFFCURVE",
"121 381 OFFCURVE",
"182 348 CURVE",
"105 315 OFFCURVE",
"53 249 OFFCURVE",
"53 171 CURVE SMOOTH",
"53 77 OFFCURVE",
"130 -16 OFFCURVE",
"302 -16 CURVE SMOOTH",
"473 -16 OFFCURVE",
"577 76 OFFCURVE",
"577 194 CURVE SMOOTH",
"577 275 OFFCURVE",
"529 330 OFFCURVE",
"427 389 CURVE"
);
},
{
closed = 1;
nodes = (
"391 628 OFFCURVE",
"420 586 OFFCURVE",
"420 537 CURVE SMOOTH",
"420 492 OFFCURVE",
"397 455 OFFCURVE",
"353 424 CURVE",
"260 468 OFFCURVE",
"235 507 OFFCURVE",
"235 547 CURVE SMOOTH",
"235 595 OFFCURVE",
"271 628 OFFCURVE",
"327 628 CURVE SMOOTH"
);
},
{
closed = 1;
nodes = (
"226 58 OFFCURVE",
"179 116 OFFCURVE",
"179 186 CURVE SMOOTH",
"179 236 OFFCURVE",
"204 280 OFFCURVE",
"250 305 CURVE",
"371 259 OFFCURVE",
"408 213 OFFCURVE",
"408 159 CURVE SMOOTH",
"408 102 OFFCURVE",
"369 58 OFFCURVE",
"302 58 CURVE SMOOTH"
);
}
);
width = 628;
}
);
leftKerningGroup = eight.osf;
rightKerningGroup = eight.osf;
},
{
glyphname = nine.osf;
lastChange = "2018-06-07 15:02:57 +0000";
layers = (
{
layerId = "184835E3-72D9-430C-A639-2454AC4A0BE8";
paths = (
{
closed = 1;
nodes = (
"247 -150 OFFCURVE",
"223 -140 OFFCURVE",
"203 -115 CURVE",
"235 -103 OFFCURVE",
"247 -79 OFFCURVE",
"247 -53 CURVE SMOOTH",
"247 -6 OFFCURVE",
"209 17 OFFCURVE",
"168 17 CURVE SMOOTH",
"115 17 OFFCURVE",
"82 -20 OFFCURVE",
"82 -74 CURVE SMOOTH",
"82 -164 OFFCURVE",
"179 -227 OFFCURVE",
"298 -227 CURVE SMOOTH",
"460 -227 OFFCURVE",
"593 -107 OFFCURVE",
"593 153 CURVE SMOOTH",
"593 158 OFFCURVE",
"593 164 OFFCURVE",
"593 170 CURVE SMOOTH",
"588 402 OFFCURVE",
"477 506 OFFCURVE",
"309 506 CURVE SMOOTH",
"141 506 OFFCURVE",
"52 400 OFFCURVE",
"52 270 CURVE SMOOTH",
"52 138 OFFCURVE",
"144 61 OFFCURVE",
"271 61 CURVE SMOOTH",
"383 61 OFFCURVE",
"466 121 OFFCURVE",
"472 207 CURVE",
"429 223 LINE",
"429 171 OFFCURVE",
"383 143 OFFCURVE",
"330 143 CURVE SMOOTH",
"265 143 OFFCURVE",
"216 184 OFFCURVE",
"216 288 CURVE SMOOTH",
"216 400 OFFCURVE",
"273 433 OFFCURVE",
"318 433 CURVE SMOOTH",
"366 433 OFFCURVE",
"417 395 OFFCURVE",
"417 217 CURVE SMOOTH",
"417 194 OFFCURVE",
"416 167 OFFCURVE",
"414 137 CURVE",
"416 97 LINE",
"416 92 OFFCURVE",
"416 86 OFFCURVE",
"416 81 CURVE SMOOTH",
"416 -92 OFFCURVE",
"361 -150 OFFCURVE",
"281 -150 CURVE SMOOTH {name = hr00;}"
);
}
);
width = 646;
}
);
leftKerningGroup = nine.osf;
rightKerningGroup = nine.osf;
},
{
glyphname = zero.osf.zero;
lastChange = "2018-06-07 15:02:57 +0000";
layers = (
{
components = (
{
name = zero.osf;
}
);
layerId = "184835E3-72D9-430C-A639-2454AC4A0BE8";
paths = (
{
closed = 1;
nodes = (
"265 -7 LINE",
"492 572 LINE",
"412 604 LINE",
"185 25 LINE"
);
}
);
width = 685;
}
);
leftMetricsKey = zero.osf;
widthMetricsKey = zero.osf;
},
{
glyphname = zero.tf;
lastChange = "2018-06-07 15:02:57 +0000";
layers = (
{
layerId = "184835E3-72D9-430C-A639-2454AC4A0BE8";
paths = (
{
closed = 1;
nodes = (
"497 -13 OFFCURVE",
"611 79 OFFCURVE",
"611 336 CURVE SMOOTH",
"611 592 OFFCURVE",
"500 698 OFFCURVE",
"326 698 CURVE SMOOTH",
"154 698 OFFCURVE",
"39 594 OFFCURVE",
"39 337 CURVE SMOOTH",
"39 82 OFFCURVE",
"151 -13 OFFCURVE",
"325 -13 CURVE SMOOTH"
);
},
{
closed = 1;
nodes = (
"267 57 OFFCURVE",
"221 98 OFFCURVE",
"221 335 CURVE SMOOTH",
"221 582 OFFCURVE",
"268 628 OFFCURVE",
"326 628 CURVE SMOOTH",
"384 628 OFFCURVE",
"430 582 OFFCURVE",
"430 338 CURVE SMOOTH",
"430 98 OFFCURVE",
"383 57 OFFCURVE",
"325 57 CURVE SMOOTH {name = hr00;}"
);
}
);
width = 650;
}
);
leftKerningGroup = zero.tf;
rightKerningGroup = zero.tf;
},
{
glyphname = one.tf;
lastChange = "2018-06-07 15:02:57 +0000";
layers = (
{
layerId = "184835E3-72D9-430C-A639-2454AC4A0BE8";
paths = (
{
closed = 1;
nodes = (
"422 679 OFFCURVE",
"401 707 OFFCURVE",
"358 707 CURVE SMOOTH",
"339 707 OFFCURVE",
"323 698 OFFCURVE",
"299 684 CURVE SMOOTH",
"280 673 OFFCURVE",
"256 659 OFFCURVE",
"224 647 CURVE SMOOTH",
"51 580 LINE",
"78 501 LINE",
"96 509 OFFCURVE",
"167 521 OFFCURVE",
"215 521 CURVE SMOOTH",
"245 521 OFFCURVE",
"259 509 OFFCURVE",
"259 489 CURVE SMOOTH",
"259 151 LINE SMOOTH",
"259 80 OFFCURVE",
"179 67 OFFCURVE",
"60 67 CURVE",
"60 47 OFFCURVE",
"69 14 OFFCURVE",
"84 0 CURVE",
"574 0 LINE",
"589 14 OFFCURVE",
"597 47 OFFCURVE",
"597 67 CURVE",
"471 67 OFFCURVE",
"422 79 OFFCURVE",
"422 150 CURVE SMOOTH",
"422 656 LINE SMOOTH {name = hr00;}"
);
}
);
width = 650;
}
);
leftKerningGroup = one.tf;
rightKerningGroup = one.tf;
},
{
glyphname = two.tf;
lastChange = "2018-06-07 15:02:57 +0000";
layers = (
{
layerId = "184835E3-72D9-430C-A639-2454AC4A0BE8";
paths = (
{
closed = 1;
nodes = (
"522 221 LINE",
"507 167 OFFCURVE",
"452 136 OFFCURVE",
"387 136 CURVE SMOOTH",
"319 136 LINE SMOOTH",
"270 136 OFFCURVE",
"226 126 OFFCURVE",
"180 106 CURVE",
"216 157 OFFCURVE",
"277 196 OFFCURVE",
"339 235 CURVE SMOOTH",
"446 303 OFFCURVE",
"556 372 OFFCURVE",
"556 508 CURVE SMOOTH",
"556 644 OFFCURVE",
"445 709 OFFCURVE",
"309 709 CURVE SMOOTH",
"156 709 OFFCURVE",
"60 628 OFFCURVE",
"60 537 CURVE SMOOTH",
"60 475 OFFCURVE",
"103 440 OFFCURVE",
"152 440 CURVE SMOOTH",
"197 440 OFFCURVE",
"241 471 OFFCURVE",
"241 518 CURVE SMOOTH",
"241 549 OFFCURVE",
"220 582 OFFCURVE",
"187 592 CURVE",
"208 622 OFFCURVE",
"238 639 OFFCURVE",
"277 639 CURVE SMOOTH",
"333 639 OFFCURVE",
"377 605 OFFCURVE",
"377 525 CURVE SMOOTH",
"377 424 OFFCURVE",
"309 355 OFFCURVE",
"233 279 CURVE SMOOTH",
"160 206 OFFCURVE",
"82 127 OFFCURVE",
"60 11 CURVE",
"92 -14 LINE",
"93 -13 LINE",
"93 -14 LINE",
"129 1 OFFCURVE",
"173 7 OFFCURVE",
"216 7 CURVE SMOOTH",
"257 7 OFFCURVE",
"288 2 OFFCURVE",
"318 -3 CURVE SMOOTH",
"347 -8 OFFCURVE",
"374 -13 OFFCURVE",
"409 -13 CURVE SMOOTH",
"542 -13 OFFCURVE",
"582 63 OFFCURVE",
"582 126 CURVE SMOOTH",
"582 165 OFFCURVE",
"566 202 OFFCURVE",
"546 221 CURVE"
);
}
);
width = 650;
}
);
leftKerningGroup = two.tf;
rightKerningGroup = two.tf;
},
{
glyphname = three.tf;
lastChange = "2018-06-07 15:02:57 +0000";
layers = (
{
layerId = "184835E3-72D9-430C-A639-2454AC4A0BE8";
paths = (
{
closed = 1;
nodes = (
"506 415 OFFCURVE",
"551 468 OFFCURVE",
"551 552 CURVE SMOOTH",
"551 653 OFFCURVE",
"450 712 OFFCURVE",
"313 712 CURVE SMOOTH",
"183 712 OFFCURVE",
"78 659 OFFCURVE",
"78 568 CURVE SMOOTH",
"78 521 OFFCURVE",
"106 488 OFFCURVE",
"156 488 CURVE SMOOTH",
"205 488 OFFCURVE",
"230 521 OFFCURVE",
"230 550 CURVE SMOOTH",
"230 576 OFFCURVE",
"212 598 OFFCURVE",
"194 605 CURVE",
"215 630 OFFCURVE",
"244 642 OFFCURVE",
"277 642 CURVE SMOOTH",
"339 642 OFFCURVE",
"373 601 OFFCURVE",
"373 535 CURVE SMOOTH",
"373 474 OFFCURVE",
"344 402 OFFCURVE",
"218 369 CURVE",
"236 318 LINE",
"278 318 LINE SMOOTH",
"365 318 OFFCURVE",
"418 259 OFFCURVE",
"418 190 CURVE SMOOTH",
"418 121 OFFCURVE",
"364 76 OFFCURVE",
"287 76 CURVE SMOOTH",
"247 76 OFFCURVE",
"207 88 OFFCURVE",
"192 102 CURVE",
"211 119 OFFCURVE",
"218 138 OFFCURVE",
"218 156 CURVE SMOOTH",
"218 192 OFFCURVE",
"189 220 OFFCURVE",
"144 220 CURVE SMOOTH",
"99 220 OFFCURVE",
"64 193 OFFCURVE",
"64 138 CURVE SMOOTH",
"64 44 OFFCURVE",
"166 -13 OFFCURVE",
"305 -13 CURVE SMOOTH",
"476 -13 OFFCURVE",
"600 73 OFFCURVE",
"600 196 CURVE SMOOTH",
"600 292 OFFCURVE",
"526 362 OFFCURVE",
"416 379 CURVE"
);
}
);
width = 650;
}
);
leftKerningGroup = three.tf;
rightKerningGroup = three.tf;
},
{
glyphname = four.tf;
lastChange = "2018-06-07 15:02:57 +0000";
layers = (
{
layerId = "184835E3-72D9-430C-A639-2454AC4A0BE8";
paths = (
{
closed = 1;
nodes = (
"535 266 OFFCURVE",
"498 239 OFFCURVE",
"454 239 CURVE SMOOTH",
"158 239 LINE",
"333 640 LINE",
"413 710 LINE",
"263 710 LINE",
"17 205 LINE",
"43 157 LINE",
"429 157 LINE SMOOTH",
"570 157 OFFCURVE",
"616 196 OFFCURVE",
"616 252 CURVE SMOOTH",
"616 281 OFFCURVE",
"598 306 OFFCURVE",
"576 313 CURVE",
"552 313 LINE {name = hr00;}"
);
},
{
closed = 1;
nodes = (
"299 72 OFFCURVE",
"253 59 OFFCURVE",
"189 59 CURVE",
"189 39 OFFCURVE",
"197 14 OFFCURVE",
"212 0 CURVE",
"544 0 LINE",
"559 14 OFFCURVE",
"568 39 OFFCURVE",
"568 59 CURVE",
"499 59 OFFCURVE",
"464 71 OFFCURVE",
"464 113 CURVE SMOOTH",
"464 710 LINE",
"413 710 LINE",
"299 633 LINE",
"299 113 LINE SMOOTH"
);
}
);
width = 650;
}
);
leftKerningGroup = four.tf;
rightKerningGroup = four.tf;
},
{
glyphname = five.tf;
lastChange = "2018-06-07 15:02:57 +0000";
layers = (
{
layerId = "184835E3-72D9-430C-A639-2454AC4A0BE8";
paths = (
{
closed = 1;
nodes = (
"222 94 OFFCURVE",
"239 116 OFFCURVE",
"239 146 CURVE SMOOTH",
"239 189 OFFCURVE",
"205 220 OFFCURVE",
"159 220 CURVE SMOOTH",
"112 220 OFFCURVE",
"73 187 OFFCURVE",
"73 131 CURVE SMOOTH",
"73 47 OFFCURVE",
"166 -13 OFFCURVE",
"307 -13 CURVE SMOOTH",
"496 -13 OFFCURVE",
"596 94 OFFCURVE",
"596 216 CURVE SMOOTH",
"596 339 OFFCURVE",
"498 422 OFFCURVE",
"351 422 CURVE SMOOTH",
"281 422 OFFCURVE",
"233 403 OFFCURVE",
"197 384 CURVE",
"221 349 LINE",
"252 640 LINE",
"134 579 LINE",
"135 578 OFFCURVE",
"137 577 OFFCURVE",
"140 577 CURVE SMOOTH",
"160 577 OFFCURVE",
"221 604 OFFCURVE",
"233 604 CURVE SMOOTH",
"316 604 OFFCURVE",
"336 542 OFFCURVE",
"431 542 CURVE SMOOTH",
"514 542 OFFCURVE",
"564 590 OFFCURVE",
"564 651 CURVE SMOOTH",
"564 682 OFFCURVE",
"552 710 OFFCURVE",
"535 723 CURVE",
"511 723 LINE",
"479 702 OFFCURVE",
"431 692 OFFCURVE",
"357 692 CURVE SMOOTH",
"129 692 LINE",
"115 356 LINE",
"154 311 LINE",
"184 325 OFFCURVE",
"230 333 OFFCURVE",
"267 333 CURVE SMOOTH",
"350 333 OFFCURVE",
"414 289 OFFCURVE",
"414 203 CURVE SMOOTH",
"414 127 OFFCURVE",
"362 71 OFFCURVE",
"271 71 CURVE SMOOTH",
"231 71 OFFCURVE",
"197 82 OFFCURVE",
"187 91 CURVE",
"175 74 LINE {name = hr00;}"
);
}
);
width = 650;
}
);
leftKerningGroup = five.tf;
rightKerningGroup = five.tf;
},
{
glyphname = eight.tf;
lastChange = "2018-06-07 15:02:57 +0000";
layers = (
{
layerId = "184835E3-72D9-430C-A639-2454AC4A0BE8";
paths = (
{
closed = 1;
nodes = (
"502 436 OFFCURVE",
"545 490 OFFCURVE",
"545 554 CURVE SMOOTH",
"545 627 OFFCURVE",
"488 711 OFFCURVE",
"331 711 CURVE SMOOTH",
"173 711 OFFCURVE",
"88 626 OFFCURVE",
"88 522 CURVE SMOOTH",
"88 447 OFFCURVE",
"133 394 OFFCURVE",
"194 350 CURVE",
"116 317 OFFCURVE",
"64 251 OFFCURVE",
"64 173 CURVE SMOOTH",
"64 79 OFFCURVE",
"142 -14 OFFCURVE",
"314 -14 CURVE SMOOTH",
"485 -14 OFFCURVE",
"589 78 OFFCURVE",
"589 196 CURVE SMOOTH",
"589 277 OFFCURVE",
"541 344 OFFCURVE",
"438 401 CURVE"
);
},
{
closed = 1;
nodes = (
"403 641 OFFCURVE",
"432 598 OFFCURVE",
"432 549 CURVE SMOOTH",
"432 505 OFFCURVE",
"409 467 OFFCURVE",
"365 436 CURVE",
"271 481 OFFCURVE",
"247 520 OFFCURVE",
"247 560 CURVE SMOOTH",
"247 607 OFFCURVE",
"282 641 OFFCURVE",
"339 641 CURVE SMOOTH"
);
},
{
closed = 1;
nodes = (
"242 60 OFFCURVE",
"196 118 OFFCURVE",
"196 188 CURVE SMOOTH",
"196 238 OFFCURVE",
"220 282 OFFCURVE",
"266 307 CURVE",
"387 261 OFFCURVE",
"424 215 OFFCURVE",
"424 161 CURVE SMOOTH",
"424 104 OFFCURVE",
"385 60 OFFCURVE",
"318 60 CURVE SMOOTH"
);
}
);
width = 650;
}
);
leftKerningGroup = eight.tf;
rightKerningGroup = eight.tf;
},
{
glyphname = zero.tf.zero;
lastChange = "2018-06-07 15:02:57 +0000";
layers = (
{
components = (
{
name = zero.tf;
transform = "{1, 0, 0, 1, 17, 20}";
}
);
layerId = "184835E3-72D9-430C-A639-2454AC4A0BE8";
paths = (
{
closed = 1;
nodes = (
"260 27 LINE",
"507 662 LINE",
"427 694 LINE",
"180 59 LINE"
);
}
);
width = 685;
}
);
leftMetricsKey = zero;
widthMetricsKey = zero;
},
{
glyphname = zero.tosf;
lastChange = "2018-06-07 15:02:57 +0000";
layers = (
{
layerId = "184835E3-72D9-430C-A639-2454AC4A0BE8";
paths = (
{
closed = 1;
nodes = (
"510 -11 OFFCURVE",
"625 70 OFFCURVE",
"625 298 CURVE SMOOTH",
"625 523 OFFCURVE",
"514 617 OFFCURVE",
"339 617 CURVE SMOOTH",
"167 617 OFFCURVE",
"53 525 OFFCURVE",
"53 298 CURVE SMOOTH",
"53 72 OFFCURVE",
"164 -11 OFFCURVE",
"338 -11 CURVE SMOOTH"
);
},
{
closed = 1;
nodes = (
"280 51 OFFCURVE",
"234 87 OFFCURVE",
"234 296 CURVE SMOOTH",
"234 515 OFFCURVE",
"282 556 OFFCURVE",
"339 556 CURVE SMOOTH",
"397 556 OFFCURVE",
"444 515 OFFCURVE",
"444 299 CURVE SMOOTH",
"444 87 OFFCURVE",
"397 51 OFFCURVE",
"339 51 CURVE SMOOTH {name = hr00;}"
);
}
);
width = 678;
}
);
leftKerningGroup = zero.tosf;
rightKerningGroup = zero.tosf;
},
{
glyphname = one.tosf;
lastChange = "2018-06-07 15:02:57 +0000";
layers = (
{
layerId = "184835E3-72D9-430C-A639-2454AC4A0BE8";
paths = (
{
closed = 1;
nodes = (
"421 552 OFFCURVE",
"400 580 OFFCURVE",
"357 580 CURVE SMOOTH",
"337 580 OFFCURVE",
"321 571 OFFCURVE",
"298 558 CURVE SMOOTH",
"278 547 OFFCURVE",
"255 534 OFFCURVE",
"222 521 CURVE SMOOTH",
"53 454 LINE",
"80 374 LINE",
"97 382 OFFCURVE",
"166 394 OFFCURVE",
"213 394 CURVE SMOOTH",
"244 394 OFFCURVE",
"257 382 OFFCURVE",
"257 362 CURVE SMOOTH",
"257 151 LINE SMOOTH",
"257 80 OFFCURVE",
"180 67 OFFCURVE",
"62 67 CURVE",
"62 47 OFFCURVE",
"70 14 OFFCURVE",
"85 0 CURVE",
"575 0 LINE",
"591 14 OFFCURVE",
"599 47 OFFCURVE",
"599 67 CURVE",
"469 67 OFFCURVE",
"421 79 OFFCURVE",
"421 150 CURVE SMOOTH",
"421 529 LINE SMOOTH {name = hr00;}"
);
}
);
width = 650;
}
);
leftKerningGroup = one.tosf;
rightKerningGroup = one.tosf;
},
{
glyphname = two.tosf;
lastChange = "2018-06-07 15:02:57 +0000";
layers = (
{
layerId = "184835E3-72D9-430C-A639-2454AC4A0BE8";
paths = (
{
closed = 1;
nodes = (
"140 43 LINE",
"171 218 OFFCURVE",
"547 220 OFFCURVE",
"547 437 CURVE SMOOTH",
"547 554 OFFCURVE",
"437 625 OFFCURVE",
"300 625 CURVE SMOOTH",
"127 625 OFFCURVE",
"52 541 OFFCURVE",
"52 462 CURVE SMOOTH",
"52 409 OFFCURVE",
"96 369 OFFCURVE",
"144 369 CURVE SMOOTH",
"189 369 OFFCURVE",
"233 396 OFFCURVE",
"233 435 CURVE SMOOTH",
"233 463 OFFCURVE",
"212 501 OFFCURVE",
"179 509 CURVE",
"200 535 OFFCURVE",
"218 565 OFFCURVE",
"269 565 CURVE SMOOTH",
"324 565 OFFCURVE",
"369 521 OFFCURVE",
"369 452 CURVE SMOOTH",
"369 279 OFFCURVE",
"97 231 OFFCURVE",
"53 26 CURVE",
"84 5 LINE {name = hr01;}"
);
},
{
closed = 1;
nodes = (
"121 18 OFFCURVE",
"164 24 OFFCURVE",
"209 24 CURVE SMOOTH",
"288 24 OFFCURVE",
"331 6 OFFCURVE",
"400 6 CURVE SMOOTH {name = hr02;}",
"534 6 OFFCURVE",
"573 73 OFFCURVE",
"573 127 CURVE SMOOTH",
"573 160 OFFCURVE",
"558 192 OFFCURVE",
"538 208 CURVE",
"513 208 LINE",
"499 161 OFFCURVE",
"444 135 OFFCURVE",
"379 135 CURVE SMOOTH {name = hr03;}",
"311 135 LINE SMOOTH",
"253 135 OFFCURVE",
"203 123 OFFCURVE",
"149 100 CURVE",
"84 5 LINE"
);
}
);
width = 624;
}
);
leftKerningGroup = two.tosf;
rightKerningGroup = two.tosf;
},
{
glyphname = three.tosf;
lastChange = "2018-06-07 15:02:57 +0000";
layers = (
{
layerId = "184835E3-72D9-430C-A639-2454AC4A0BE8";
paths = (
{
closed = 1;
nodes = (
"539 446 OFFCURVE",
"439 506 OFFCURVE",
"301 506 CURVE SMOOTH",
"172 506 OFFCURVE",
"67 453 OFFCURVE",
"67 362 CURVE SMOOTH",
"67 315 OFFCURVE",
"94 281 OFFCURVE",
"145 281 CURVE SMOOTH",
"194 281 OFFCURVE",
"219 314 OFFCURVE",
"219 344 CURVE SMOOTH",
"219 370 OFFCURVE",
"200 392 OFFCURVE",
"183 399 CURVE",
"203 424 OFFCURVE",
"233 435 OFFCURVE",
"265 435 CURVE SMOOTH",
"328 435 OFFCURVE",
"362 395 OFFCURVE",
"362 329 CURVE SMOOTH",
"362 268 OFFCURVE",
"332 190 OFFCURVE",
"206 157 CURVE",
"339 153 LINE",
"472 188 OFFCURVE",
"539 244 OFFCURVE",
"539 346 CURVE SMOOTH {name = hr00;}"
);
},
{
closed = 1;
nodes = (
"589 84 OFFCURVE",
"501 164 OFFCURVE",
"375 171 CURVE",
"206 157 LINE",
"224 106 LINE",
"266 106 LINE SMOOTH",
"353 106 OFFCURVE",
"406 43 OFFCURVE",
"406 -26 CURVE SMOOTH",
"406 -96 OFFCURVE",
"353 -141 OFFCURVE",
"275 -141 CURVE SMOOTH",
"236 -141 OFFCURVE",
"196 -129 OFFCURVE",
"180 -114 CURVE",
"200 -97 OFFCURVE",
"207 -78 OFFCURVE",
"207 -60 CURVE SMOOTH",
"207 -24 OFFCURVE",
"178 4 OFFCURVE",
"133 4 CURVE SMOOTH",
"88 4 OFFCURVE",
"53 -23 OFFCURVE",
"53 -78 CURVE SMOOTH",
"53 -172 OFFCURVE",
"154 -229 OFFCURVE",
"293 -229 CURVE SMOOTH",
"465 -229 OFFCURVE",
"589 -143 OFFCURVE",
"589 -20 CURVE SMOOTH"
);
}
);
width = 639;
}
);
leftKerningGroup = three.tosf;
rightKerningGroup = three.tosf;
},
{
glyphname = four.tosf;
lastChange = "2018-06-07 15:02:57 +0000";
layers = (
{
layerId = "184835E3-72D9-430C-A639-2454AC4A0BE8";
paths = (
{
closed = 1;
nodes = (
"598 300 OFFCURVE",
"561 273 OFFCURVE",
"507 273 CURVE SMOOTH",
"197 273 LINE",
"380 640 LINE",
"457 710 LINE",
"340 710 LINE",
"56 240 LINE",
"82 191 LINE",
"482 191 LINE SMOOTH",
"633 191 OFFCURVE",
"679 231 OFFCURVE",
"679 287 CURVE SMOOTH",
"679 316 OFFCURVE",
"661 341 OFFCURVE",
"639 348 CURVE",
"616 348 LINE {name = hr00;}"
);
},
{
closed = 1;
nodes = (
"343 72 OFFCURVE",
"297 59 OFFCURVE",
"234 59 CURVE",
"234 39 OFFCURVE",
"241 14 OFFCURVE",
"256 0 CURVE",
"588 0 LINE",
"603 14 OFFCURVE",
"612 39 OFFCURVE",
"612 59 CURVE",
"542 59 OFFCURVE",
"507 71 OFFCURVE",
"507 113 CURVE SMOOTH",
"507 710 LINE",
"457 710 LINE",
"343 633 LINE",
"343 113 LINE SMOOTH"
);
}
);
width = 734;
}
);
leftKerningGroup = four.tosf;
rightKerningGroup = four.tosf;
},
{
glyphname = five.tosf;
lastChange = "2018-06-07 15:02:57 +0000";
layers = (
{
layerId = "184835E3-72D9-430C-A639-2454AC4A0BE8";
paths = (
{
closed = 1;
nodes = (
"200 -122 OFFCURVE",
"217 -100 OFFCURVE",
"217 -70 CURVE SMOOTH",
"217 -27 OFFCURVE",
"183 4 OFFCURVE",
"137 4 CURVE SMOOTH",
"90 4 OFFCURVE",
"51 -29 OFFCURVE",
"51 -85 CURVE SMOOTH",
"51 -169 OFFCURVE",
"144 -229 OFFCURVE",
"285 -229 CURVE SMOOTH",
"473 -229 OFFCURVE",
"574 -122 OFFCURVE",
"574 0 CURVE SMOOTH",
"574 123 OFFCURVE",
"475 226 OFFCURVE",
"329 226 CURVE SMOOTH",
"259 226 OFFCURVE",
"210 207 OFFCURVE",
"175 188 CURVE",
"198 153 LINE",
"229 443 LINE",
"112 383 LINE",
"113 382 OFFCURVE",
"115 381 OFFCURVE",
"118 381 CURVE SMOOTH",
"138 381 OFFCURVE",
"199 408 OFFCURVE",
"211 408 CURVE SMOOTH",
"294 408 OFFCURVE",
"314 346 OFFCURVE",
"409 346 CURVE SMOOTH",
"492 346 OFFCURVE",
"541 394 OFFCURVE",
"541 455 CURVE SMOOTH",
"541 486 OFFCURVE",
"530 513 OFFCURVE",
"512 527 CURVE",
"489 527 LINE",
"457 506 OFFCURVE",
"409 496 OFFCURVE",
"335 496 CURVE SMOOTH",
"107 496 LINE",
"93 160 LINE",
"132 116 LINE",
"162 129 OFFCURVE",
"208 137 OFFCURVE",
"245 137 CURVE SMOOTH",
"328 137 OFFCURVE",
"391 73 OFFCURVE",
"391 -13 CURVE SMOOTH",
"391 -90 OFFCURVE",
"340 -145 OFFCURVE",
"249 -145 CURVE SMOOTH",
"209 -145 OFFCURVE",
"175 -135 OFFCURVE",
"165 -125 CURVE",
"153 -143 LINE {name = hr00;}"
);
}
);
width = 625;
}
);
leftKerningGroup = five.tosf;
rightKerningGroup = five.tosf;
},
{
glyphname = six.tosf;
lastChange = "2018-06-07 15:02:57 +0000";
layers = (
{
layerId = "184835E3-72D9-430C-A639-2454AC4A0BE8";
paths = (
{
closed = 1;
nodes = (
"398 629 OFFCURVE",
"426 617 OFFCURVE",
"443 598 CURVE",
"420 585 OFFCURVE",
"406 561 OFFCURVE",
"406 535 CURVE SMOOTH",
"406 493 OFFCURVE",
"440 461 OFFCURVE",
"489 461 CURVE SMOOTH",
"541 461 OFFCURVE",
"571 500 OFFCURVE",
"571 551 CURVE SMOOTH",
"571 641 OFFCURVE",
"478 699 OFFCURVE",
"361 699 CURVE SMOOTH",
"193 699 OFFCURVE",
"52 583 OFFCURVE",
"52 327 CURVE SMOOTH",
"52 90 OFFCURVE",
"167 -16 OFFCURVE",
"333 -16 CURVE SMOOTH",
"495 -16 OFFCURVE",
"596 93 OFFCURVE",
"596 225 CURVE SMOOTH",
"596 345 OFFCURVE",
"503 424 OFFCURVE",
"379 424 CURVE SMOOTH",
"262 424 OFFCURVE",
"181 355 OFFCURVE",
"173 251 CURVE",
"216 235 LINE",
"216 305 OFFCURVE",
"264 342 OFFCURVE",
"327 342 CURVE SMOOTH",
"385 342 OFFCURVE",
"428 309 OFFCURVE",
"428 210 CURVE SMOOTH",
"428 104 OFFCURVE",
"386 59 OFFCURVE",
"335 59 CURVE SMOOTH",
"281 59 OFFCURVE",
"228 102 OFFCURVE",
"228 249 CURVE SMOOTH",
"228 271 OFFCURVE",
"229 295 OFFCURVE",
"232 321 CURVE",
"230 362 LINE",
"230 369 OFFCURVE",
"230 376 OFFCURVE",
"230 383 CURVE SMOOTH",
"230 565 OFFCURVE",
"292 629 OFFCURVE",
"366 629 CURVE SMOOTH {name = hr00;}"
);
}
);
width = 648;
}
);
leftKerningGroup = six.tosf;
rightKerningGroup = six.tosf;
},
{
glyphname = seven.tosf;
lastChange = "2018-06-07 15:02:57 +0000";
layers = (
{
layerId = "184835E3-72D9-430C-A639-2454AC4A0BE8";
paths = (
{
closed = 1;
nodes = (
"540 478 OFFCURVE",
"490 468 OFFCURVE",
"445 468 CURVE SMOOTH",
"357 468 OFFCURVE",
"295 506 OFFCURVE",
"202 506 CURVE SMOOTH {name = hr02;}",
"94 506 OFFCURVE",
"53 455 OFFCURVE",
"53 389 CURVE SMOOTH",
"53 338 OFFCURVE",
"78 303 OFFCURVE",
"104 283 CURVE",
"132 283 LINE",
"157 326 OFFCURVE",
"202 352 OFFCURVE",
"271 352 CURVE SMOOTH",
"313 352 LINE SMOOTH",
"406 352 OFFCURVE",
"475 369 OFFCURVE",
"521 396 CURVE",
"577 505 LINE {name = hr01;}"
);
},
{
closed = 1;
nodes = (
"221 -226 OFFCURVE",
"261 -229 OFFCURVE",
"288 -229 CURVE SMOOTH",
"391 -229 OFFCURVE",
"395 -185 OFFCURVE",
"398 -151 CURVE SMOOTH",
"414 26 OFFCURVE",
"411 201 OFFCURVE",
"612 456 CURVE",
"577 506 LINE",
"549 464 LINE",
"325 213 OFFCURVE",
"226 12 OFFCURVE",
"198 -211 CURVE"
);
}
);
width = 665;
}
);
leftKerningGroup = seven.tosf;
rightKerningGroup = seven.tosf;
},
{
glyphname = eight.tosf;
lastChange = "2018-06-07 15:02:57 +0000";
layers = (
{
layerId = "184835E3-72D9-430C-A639-2454AC4A0BE8";
paths = (
{
closed = 1;
nodes = (
"488 423 OFFCURVE",
"531 476 OFFCURVE",
"531 540 CURVE SMOOTH",
"531 613 OFFCURVE",
"475 697 OFFCURVE",
"318 697 CURVE SMOOTH",
"160 697 OFFCURVE",
"75 612 OFFCURVE",
"75 508 CURVE SMOOTH",
"75 433 OFFCURVE",
"120 380 OFFCURVE",
"180 347 CURVE",
"104 314 OFFCURVE",
"51 248 OFFCURVE",
"51 170 CURVE SMOOTH",
"51 76 OFFCURVE",
"129 -17 OFFCURVE",
"301 -17 CURVE SMOOTH",
"472 -17 OFFCURVE",
"576 75 OFFCURVE",
"576 193 CURVE SMOOTH",
"576 274 OFFCURVE",
"527 329 OFFCURVE",
"425 388 CURVE"
);
},
{
closed = 1;
nodes = (
"390 627 OFFCURVE",
"419 585 OFFCURVE",
"419 536 CURVE SMOOTH",
"419 491 OFFCURVE",
"396 454 OFFCURVE",
"351 423 CURVE",
"258 467 OFFCURVE",
"234 506 OFFCURVE",
"234 546 CURVE SMOOTH",
"234 594 OFFCURVE",
"269 627 OFFCURVE",
"326 627 CURVE SMOOTH"
);
},
{
closed = 1;
nodes = (
"225 57 OFFCURVE",
"178 115 OFFCURVE",
"178 185 CURVE SMOOTH",
"178 235 OFFCURVE",
"202 279 OFFCURVE",
"248 304 CURVE",
"370 258 OFFCURVE",
"406 212 OFFCURVE",
"406 158 CURVE SMOOTH",
"406 101 OFFCURVE",
"367 57 OFFCURVE",
"301 57 CURVE SMOOTH"
);
}
);
width = 627;
}
);
leftKerningGroup = eight.tosf;
rightKerningGroup = eight.tosf;
},
{
glyphname = nine.tosf;
lastChange = "2018-06-07 15:02:57 +0000";
layers = (
{
layerId = "184835E3-72D9-430C-A639-2454AC4A0BE8";
paths = (
{
closed = 1;
nodes = (
"247 -39 OFFCURVE",
"223 -29 OFFCURVE",
"204 -4 CURVE",
"236 8 OFFCURVE",
"247 32 OFFCURVE",
"247 58 CURVE SMOOTH",
"247 105 OFFCURVE",
"210 128 OFFCURVE",
"169 128 CURVE SMOOTH",
"116 128 OFFCURVE",
"82 91 OFFCURVE",
"82 37 CURVE SMOOTH",
"82 -53 OFFCURVE",
"180 -116 OFFCURVE",
"299 -116 CURVE SMOOTH",
"460 -116 OFFCURVE",
"594 4 OFFCURVE",
"594 264 CURVE SMOOTH",
"594 269 OFFCURVE",
"594 275 OFFCURVE",
"594 281 CURVE SMOOTH",
"594 513 OFFCURVE",
"477 617 OFFCURVE",
"309 617 CURVE SMOOTH",
"141 617 OFFCURVE",
"52 511 OFFCURVE",
"52 381 CURVE SMOOTH",
"52 249 OFFCURVE",
"145 172 OFFCURVE",
"272 172 CURVE SMOOTH",
"384 172 OFFCURVE",
"467 232 OFFCURVE",
"473 318 CURVE",
"430 334 LINE",
"430 282 OFFCURVE",
"384 254 OFFCURVE",
"330 254 CURVE SMOOTH",
"266 254 OFFCURVE",
"216 295 OFFCURVE",
"216 399 CURVE SMOOTH",
"216 511 OFFCURVE",
"274 544 OFFCURVE",
"319 544 CURVE SMOOTH",
"368 544 OFFCURVE",
"418 506 OFFCURVE",
"418 328 CURVE SMOOTH",
"418 305 OFFCURVE",
"417 278 OFFCURVE",
"415 248 CURVE",
"416 208 LINE",
"416 203 OFFCURVE",
"416 197 OFFCURVE",
"416 192 CURVE SMOOTH",
"416 19 OFFCURVE",
"362 -39 OFFCURVE",
"281 -39 CURVE SMOOTH {name = hr00;}"
);
}
);
width = 645;
}
);
leftKerningGroup = nine.tosf;
rightKerningGroup = nine.tosf;
},
{
glyphname = zero.zero;
lastChange = "2018-06-07 15:02:57 +0000";
layers = (
{
components = (
{
name = zero;
transform = "{1, 0, 0, 1, 0, 20}";
}
);
layerId = "184835E3-72D9-430C-A639-2454AC4A0BE8";
paths = (
{
closed = 1;
nodes = (
"271 22 LINE",
"494 676 LINE",
"414 708 LINE",
"190 54 LINE"
);
}
);
width = 685;
}
);
leftMetricsKey = zero;
widthMetricsKey = zero;
},
{
glyphname = zero.dnom;
lastChange = "2018-06-07 15:02:57 +0000";
layers = (
{
layerId = "184835E3-72D9-430C-A639-2454AC4A0BE8";
paths = (
{
closed = 1;
nodes = (
"314 -13 OFFCURVE",
"387 52 OFFCURVE",
"387 193 CURVE SMOOTH",
"387 334 OFFCURVE",
"315 392 OFFCURVE",
"205 392 CURVE SMOOTH",
"94 392 OFFCURVE",
"20 336 OFFCURVE",
"20 194 CURVE SMOOTH",
"20 54 OFFCURVE",
"92 -13 OFFCURVE",
"204 -13 CURVE SMOOTH"
);
},
{
closed = 1;
nodes = (
"167 25 OFFCURVE",
"137 62 OFFCURVE",
"137 192 CURVE SMOOTH",
"137 329 OFFCURVE",
"167 354 OFFCURVE",
"205 354 CURVE SMOOTH",
"242 354 OFFCURVE",
"271 329 OFFCURVE",
"271 194 CURVE SMOOTH",
"271 62 OFFCURVE",
"241 25 OFFCURVE",
"204 25 CURVE SMOOTH {name = hr00;}"
);
}
);
width = 407;
}
);
leftKerningGroup = zero;
rightKerningGroup = zero;
userData = {
com.typemytype.robofont.guides = (
{
angle = 0;
isGlobal = 0;
magnetic = 5;
x = 0;
y = -27;
}
);
};
},
{
glyphname = one.dnom;
lastChange = "2018-06-07 15:02:57 +0000";
layers = (
{
layerId = "184835E3-72D9-430C-A639-2454AC4A0BE8";
paths = (
{
closed = 1;
nodes = (
"207 378 OFFCURVE",
"199 396 OFFCURVE",
"170 396 CURVE SMOOTH",
"159 396 OFFCURVE",
"96 378 OFFCURVE",
"68 370 CURVE SMOOTH",
"20 357 LINE",
"36 311 LINE",
"48 315 OFFCURVE",
"68 318 OFFCURVE",
"80 318 CURVE SMOOTH",
"102 318 OFFCURVE",
"110 291 OFFCURVE",
"110 281 CURVE SMOOTH",
"111 94 LINE SMOOTH",
"111 55 OFFCURVE",
"71 48 OFFCURVE",
"28 48 CURVE",
"28 38 OFFCURVE",
"34 7 OFFCURVE",
"43 0 CURVE",
"269 0 LINE",
"279 7 OFFCURVE",
"284 38 OFFCURVE",
"284 48 CURVE",
"240 48 OFFCURVE",
"208 55 OFFCURVE",
"208 94 CURVE SMOOTH",
"207 365 LINE SMOOTH {name = hr00;}"
);
}
);
width = 300;
}
);
leftKerningGroup = one;
rightKerningGroup = one;
},
{
glyphname = two.dnom;
lastChange = "2018-06-07 15:02:57 +0000";
layers = (
{
layerId = "184835E3-72D9-430C-A639-2454AC4A0BE8";
paths = (
{
closed = 1;
nodes = (
"315 115 LINE",
"306 86 OFFCURVE",
"270 69 OFFCURVE",
"229 69 CURVE SMOOTH {name = hr03;}",
"185 69 LINE SMOOTH",
"155 69 OFFCURVE",
"126 64 OFFCURVE",
"97 53 CURVE",
"120 80 OFFCURVE",
"159 102 OFFCURVE",
"197 123 CURVE SMOOTH",
"266 160 OFFCURVE",
"337 199 OFFCURVE",
"337 274 CURVE SMOOTH",
"337 349 OFFCURVE",
"266 390 OFFCURVE",
"178 390 CURVE SMOOTH",
"82 390 OFFCURVE",
"22 346 OFFCURVE",
"22 287 CURVE SMOOTH",
"22 254 OFFCURVE",
"47 235 OFFCURVE",
"79 235 CURVE SMOOTH",
"107 235 OFFCURVE",
"132 252 OFFCURVE",
"132 277 CURVE SMOOTH",
"132 295 OFFCURVE",
"121 313 OFFCURVE",
"101 319 CURVE",
"111 339 OFFCURVE",
"134 351 OFFCURVE",
"158 351 CURVE SMOOTH",
"194 351 OFFCURVE",
"222 325 OFFCURVE",
"222 281 CURVE SMOOTH",
"222 225 OFFCURVE",
"178 188 OFFCURVE",
"130 148 CURVE SMOOTH",
"83 108 OFFCURVE",
"34 64 OFFCURVE",
"20 -1 CURVE",
"41 -14 LINE {name = hr01;}",
"42 -13 LINE",
"41 -14 LINE",
"64 -6 OFFCURVE",
"91 -3 OFFCURVE",
"119 -3 CURVE SMOOTH",
"146 -3 OFFCURVE",
"172 -5 OFFCURVE",
"191 -8 CURVE SMOOTH",
"209 -11 OFFCURVE",
"227 -13 OFFCURVE",
"248 -13 CURVE SMOOTH {name = hr02;}",
"333 -13 OFFCURVE",
"353 29 OFFCURVE",
"353 63 CURVE SMOOTH",
"353 85 OFFCURVE",
"343 105 OFFCURVE",
"329 115 CURVE"
);
}
);
width = 373;
}
);
leftKerningGroup = two;
rightKerningGroup = two;
},
{
glyphname = three.dnom;
lastChange = "2018-06-07 15:02:57 +0000";
layers = (
{
layerId = "184835E3-72D9-430C-A639-2454AC4A0BE8";
paths = (
{
closed = 1;
nodes = (
"289 223 OFFCURVE",
"315 252 OFFCURVE",
"315 299 CURVE SMOOTH {name = hr00;}",
"315 353 OFFCURVE",
"253 390 OFFCURVE",
"169 390 CURVE SMOOTH",
"92 390 OFFCURVE",
"28 357 OFFCURVE",
"28 307 CURVE SMOOTH",
"28 281 OFFCURVE",
"45 263 OFFCURVE",
"75 263 CURVE SMOOTH",
"105 263 OFFCURVE",
"121 281 OFFCURVE",
"121 297 CURVE SMOOTH",
"121 311 OFFCURVE",
"109 323 OFFCURVE",
"99 327 CURVE",
"111 340 OFFCURVE",
"130 352 OFFCURVE",
"149 351 CURVE SMOOTH",
"186 349 OFFCURVE",
"206 325 OFFCURVE",
"206 288 CURVE SMOOTH",
"206 255 OFFCURVE",
"197 221 OFFCURVE",
"121 202 CURVE",
"132 168 LINE",
"149 168 LINE SMOOTH",
"202 168 OFFCURVE",
"233 137 OFFCURVE",
"233 99 CURVE SMOOTH",
"233 60 OFFCURVE",
"202 37 OFFCURVE",
"155 35 CURVE SMOOTH",
"131 34 OFFCURVE",
"106 42 OFFCURVE",
"97 51 CURVE",
"109 60 OFFCURVE",
"112 71 OFFCURVE",
"112 80 CURVE SMOOTH",
"112 99 OFFCURVE",
"95 116 OFFCURVE",
"67 115 CURVE SMOOTH",
"40 114 OFFCURVE",
"20 101 OFFCURVE",
"20 70 CURVE SMOOTH",
"20 18 OFFCURVE",
"81 -13 OFFCURVE",
"166 -13 CURVE SMOOTH",
"270 -13 OFFCURVE",
"344 35 OFFCURVE",
"344 102 CURVE SMOOTH",
"344 155 OFFCURVE",
"301 193 OFFCURVE",
"234 203 CURVE"
);
}
);
width = 364;
}
);
leftKerningGroup = three;
rightKerningGroup = three;
},
{
glyphname = four.dnom;
lastChange = "2018-06-07 15:02:57 +0000";
layers = (
{
layerId = "184835E3-72D9-430C-A639-2454AC4A0BE8";
paths = (
{
closed = 1;
nodes = (
"364 165 OFFCURVE",
"340 151 OFFCURVE",
"305 151 CURVE SMOOTH",
"85 151 LINE",
"218 352 LINE",
"254 390 LINE",
"192 390 LINE",
"5 132 LINE",
"21 105 LINE",
"290 105 LINE SMOOTH",
"386 105 OFFCURVE",
"415 127 OFFCURVE",
"415 158 CURVE SMOOTH",
"415 174 OFFCURVE",
"404 188 OFFCURVE",
"390 192 CURVE",
"374 192 LINE {name = hr00;}"
);
},
{
closed = 1;
nodes = (
"200 40 OFFCURVE",
"171 32 OFFCURVE",
"131 32 CURVE",
"131 22 OFFCURVE",
"136 8 OFFCURVE",
"145 0 CURVE",
"357 0 LINE",
"367 8 OFFCURVE",
"372 22 OFFCURVE",
"372 32 CURVE",
"328 32 OFFCURVE",
"305 40 OFFCURVE",
"305 63 CURVE SMOOTH",
"305 390 LINE",
"254 390 LINE",
"200 349 LINE",
"200 63 LINE SMOOTH"
);
}
);
width = 420;
}
);
leftKerningGroup = four;
rightKerningGroup = four;
},
{
glyphname = five.dnom;
lastChange = "2018-06-07 15:02:57 +0000";
layers = (
{
layerId = "184835E3-72D9-430C-A639-2454AC4A0BE8";
paths = (
{
closed = 1;
nodes = (
"164 242 OFFCURVE",
"138 235 OFFCURVE",
"118 228 CURVE",
"132 335 LINE",
"177 331 OFFCURVE",
"192 304 OFFCURVE",
"249 304 CURVE SMOOTH",
"301 304 OFFCURVE",
"333 328 OFFCURVE",
"333 362 CURVE SMOOTH",
"333 378 OFFCURVE",
"326 395 OFFCURVE",
"314 401 CURVE",
"299 401 LINE",
"279 391 OFFCURVE",
"249 384 OFFCURVE",
"202 384 CURVE SMOOTH",
"56 384 LINE",
"47 206 LINE",
"71 181 LINE",
"91 189 OFFCURVE",
"120 193 OFFCURVE",
"144 193 CURVE SMOOTH",
"197 193 OFFCURVE",
"237 153 OFFCURVE",
"237 106 CURVE SMOOTH",
"237 64 OFFCURVE",
"204 34 OFFCURVE",
"146 34 CURVE SMOOTH",
"126 34 OFFCURVE",
"109 36 OFFCURVE",
"100 41 CURVE",
"119 51 OFFCURVE",
"126 60 OFFCURVE",
"126 74 CURVE SMOOTH",
"126 97 OFFCURVE",
"103 115 OFFCURVE",
"75 115 CURVE SMOOTH",
"45 115 OFFCURVE",
"20 96 OFFCURVE",
"20 66 CURVE SMOOTH",
"20 19 OFFCURVE",
"79 -13 OFFCURVE",
"169 -13 CURVE SMOOTH",
"290 -13 OFFCURVE",
"354 46 OFFCURVE",
"354 113 CURVE SMOOTH",
"354 180 OFFCURVE",
"291 242 OFFCURVE",
"197 242 CURVE SMOOTH"
);
}
);
width = 374;
}
);
leftKerningGroup = five;
rightKerningGroup = five;
},
{
glyphname = six.dnom;
lastChange = "2018-06-07 15:02:57 +0000";
layers = (
{
layerId = "184835E3-72D9-430C-A639-2454AC4A0BE8";
paths = (
{
closed = 1;
nodes = (
"189 233 OFFCURVE",
"157 223 OFFCURVE",
"133 205 CURVE",
"133 206 OFFCURVE",
"133 208 OFFCURVE",
"133 210 CURVE SMOOTH",
"133 315 OFFCURVE",
"174 351 OFFCURVE",
"221 351 CURVE SMOOTH {name = hr00;}",
"241 351 OFFCURVE",
"259 344 OFFCURVE",
"269 334 CURVE",
"255 327 OFFCURVE",
"246 313 OFFCURVE",
"246 300 CURVE SMOOTH",
"246 276 OFFCURVE",
"268 258 OFFCURVE",
"299 258 CURVE SMOOTH",
"333 258 OFFCURVE",
"352 281 OFFCURVE",
"352 308 CURVE SMOOTH",
"352 358 OFFCURVE",
"292 390 OFFCURVE",
"218 390 CURVE SMOOTH",
"109 390 OFFCURVE",
"20 323 OFFCURVE",
"20 179 CURVE SMOOTH",
"20 50 OFFCURVE",
"94 -13 OFFCURVE",
"200 -13 CURVE SMOOTH",
"302 -13 OFFCURVE",
"368 47 OFFCURVE",
"368 120 CURVE SMOOTH",
"368 189 OFFCURVE",
"308 233 OFFCURVE",
"229 233 CURVE SMOOTH"
);
},
{
closed = 1;
nodes = (
"166 29 OFFCURVE",
"133 56 OFFCURVE",
"133 136 CURVE SMOOTH",
"133 144 OFFCURVE",
"133 151 OFFCURVE",
"133 160 CURVE",
"146 179 OFFCURVE",
"168 187 OFFCURVE",
"196 187 CURVE SMOOTH",
"233 187 OFFCURVE",
"261 169 OFFCURVE",
"261 111 CURVE SMOOTH",
"261 54 OFFCURVE",
"234 29 OFFCURVE",
"202 29 CURVE SMOOTH"
);
}
);
width = 383;
}
);
leftKerningGroup = six;
rightKerningGroup = six;
},
{
glyphname = seven.dnom;
lastChange = "2018-06-07 15:02:57 +0000";
layers = (
{
layerId = "184835E3-72D9-430C-A639-2454AC4A0BE8";
paths = (
{
closed = 1;
nodes = (
"312 386 LINE",
"290 373 OFFCURVE",
"262 367 OFFCURVE",
"236 367 CURVE SMOOTH",
"185 367 OFFCURVE",
"150 390 OFFCURVE",
"96 390 CURVE SMOOTH {name = hr02;}",
"34 390 OFFCURVE",
"10 360 OFFCURVE",
"10 323 CURVE SMOOTH",
"10 295 OFFCURVE",
"21 276 OFFCURVE",
"36 264 CURVE",
"58 264 LINE",
"72 289 OFFCURVE",
"88 303 OFFCURVE",
"128 303 CURVE SMOOTH",
"152 303 LINE SMOOTH",
"190 303 OFFCURVE",
"218 308 OFFCURVE",
"242 315 CURVE",
"145 200 OFFCURVE",
"105 104 OFFCURVE",
"91 -4 CURVE",
"104 -13 OFFCURVE",
"137 -14 OFFCURVE",
"153 -14 CURVE SMOOTH",
"212 -14 OFFCURVE",
"215 11 OFFCURVE",
"217 29 CURVE SMOOTH",
"225 126 OFFCURVE",
"217 219 OFFCURVE",
"333 360 CURVE",
"312 387 LINE {name = hr01;}"
);
}
);
width = 333;
}
);
leftKerningGroup = seven;
rightKerningGroup = seven;
userData = {
com.typemytype.robofont.guides = (
{
angle = 0;
isGlobal = 0;
magnetic = 5;
x = 0;
y = -32;
}
);
};
},
{
glyphname = eight.dnom;
lastChange = "2018-06-07 15:02:57 +0000";
layers = (
{
layerId = "184835E3-72D9-430C-A639-2454AC4A0BE8";
paths = (
{
closed = 1;
nodes = (
"313 232 OFFCURVE",
"342 261 OFFCURVE",
"342 297 CURVE SMOOTH",
"342 337 OFFCURVE",
"305 390 OFFCURVE",
"199 390 CURVE SMOOTH",
"93 390 OFFCURVE",
"36 336 OFFCURVE",
"36 279 CURVE SMOOTH",
"36 237 OFFCURVE",
"66 209 OFFCURVE",
"107 184 CURVE",
"55 166 OFFCURVE",
"20 132 OFFCURVE",
"20 91 CURVE SMOOTH",
"20 38 OFFCURVE",
"71 -13 OFFCURVE",
"187 -13 CURVE SMOOTH",
"302 -13 OFFCURVE",
"372 37 OFFCURVE",
"372 103 CURVE SMOOTH",
"372 147 OFFCURVE",
"339 181 OFFCURVE",
"271 213 CURVE"
);
},
{
closed = 1;
nodes = (
"247 351 OFFCURVE",
"266 321 OFFCURVE",
"266 294 CURVE SMOOTH",
"266 270 OFFCURVE",
"251 249 OFFCURVE",
"221 232 CURVE",
"159 256 OFFCURVE",
"142 277 OFFCURVE",
"142 300 CURVE SMOOTH",
"142 326 OFFCURVE",
"166 351 OFFCURVE",
"204 351 CURVE SMOOTH"
);
},
{
closed = 1;
nodes = (
"136 28 OFFCURVE",
"105 60 OFFCURVE",
"105 97 CURVE SMOOTH",
"105 126 OFFCURVE",
"122 147 OFFCURVE",
"152 161 CURVE",
"233 135 OFFCURVE",
"259 113 OFFCURVE",
"259 83 CURVE SMOOTH",
"259 52 OFFCURVE",
"232 28 OFFCURVE",
"186 28 CURVE SMOOTH"
);
}
);
width = 392;
}
);
leftKerningGroup = eight;
rightKerningGroup = eight;
},
{
glyphname = nine.dnom;
lastChange = "2018-06-07 15:02:57 +0000";
layers = (
{
layerId = "184835E3-72D9-430C-A639-2454AC4A0BE8";
paths = (
{
closed = 1;
nodes = (
"71 390 OFFCURVE",
"15 331 OFFCURVE",
"15 259 CURVE SMOOTH",
"15 187 OFFCURVE",
"73 140 OFFCURVE",
"155 140 CURVE SMOOTH",
"192 140 OFFCURVE",
"224 149 OFFCURVE",
"247 165 CURVE",
"247 151 LINE SMOOTH",
"247 61 OFFCURVE",
"212 29 OFFCURVE",
"160 29 CURVE SMOOTH {name = hr00;}",
"140 29 OFFCURVE",
"124 35 OFFCURVE",
"111 49 CURVE",
"132 55 OFFCURVE",
"140 68 OFFCURVE",
"140 83 CURVE SMOOTH",
"140 108 OFFCURVE",
"116 121 OFFCURVE",
"89 121 CURVE SMOOTH",
"56 121 OFFCURVE",
"34 101 OFFCURVE",
"34 71 CURVE SMOOTH",
"34 21 OFFCURVE",
"97 -13 OFFCURVE",
"172 -13 CURVE SMOOTH",
"275 -13 OFFCURVE",
"361 54 OFFCURVE",
"361 191 CURVE SMOOTH",
"361 201 LINE SMOOTH",
"361 328 OFFCURVE",
"286 390 OFFCURVE",
"178 390 CURVE SMOOTH"
);
},
{
closed = 1;
nodes = (
"151 186 OFFCURVE",
"120 212 OFFCURVE",
"120 269 CURVE SMOOTH",
"120 331 OFFCURVE",
"157 349 OFFCURVE",
"185 349 CURVE SMOOTH",
"216 349 OFFCURVE",
"248 328 OFFCURVE",
"248 226 CURVE SMOOTH",
"248 220 OFFCURVE",
"248 214 OFFCURVE",
"248 206 CURVE",
"236 192 OFFCURVE",
"216 186 OFFCURVE",
"193 186 CURVE SMOOTH"
);
}
);
width = 381;
}
);
leftKerningGroup = nine;
rightKerningGroup = nine;
},
{
glyphname = fraction;
lastChange = "2018-06-07 15:02:57 +0000";
layers = (
{
layerId = "184835E3-72D9-430C-A639-2454AC4A0BE8";
paths = (
{
closed = 1;
nodes = (
"-135 -10 LINE",
"299 731 LINE",
"233 731 LINE",
"-200 -11 LINE"
);
}
);
width = 99;
}
);
unicode = 2044;
},
{
glyphname = period;
lastChange = "2018-06-07 15:02:57 +0000";
layers = (
{
layerId = "184835E3-72D9-430C-A639-2454AC4A0BE8";
paths = (
{
closed = 1;
nodes = (
"229 146 OFFCURVE",
"188 185 OFFCURVE",
"128 185 CURVE SMOOTH",
"67 185 OFFCURVE",
"26 146 OFFCURVE",
"26 86 CURVE SMOOTH",
"26 27 OFFCURVE",
"67 -13 OFFCURVE",
"128 -13 CURVE SMOOTH",
"188 -13 OFFCURVE",
"229 27 OFFCURVE",
"229 86 CURVE SMOOTH {name = hr00;}"
);
}
);
width = 255;
}
);
leftKerningGroup = period;
rightKerningGroup = period;
unicode = 002E;
},
{
glyphname = comma;
lastChange = "2018-06-07 15:02:57 +0000";
layers = (
{
layerId = "184835E3-72D9-430C-A639-2454AC4A0BE8";
paths = (
{
closed = 1;
nodes = (
"154 -194 OFFCURVE",
"242 -98 OFFCURVE",
"242 32 CURVE SMOOTH",
"242 130 OFFCURVE",
"191 179 OFFCURVE",
"125 179 CURVE SMOOTH",
"67 179 OFFCURVE",
"26 140 OFFCURVE",
"26 80 CURVE SMOOTH",
"26 32 OFFCURVE",
"58 -13 OFFCURVE",
"119 -13 CURVE SMOOTH",
"124 -13 OFFCURVE",
"129 -12 OFFCURVE",
"134 -11 CURVE",
"135 -16 OFFCURVE",
"136 -20 OFFCURVE",
"136 -24 CURVE SMOOTH",
"136 -79 OFFCURVE",
"95 -137 OFFCURVE",
"34 -171 CURVE",
"34 -192 OFFCURVE",
"50 -213 OFFCURVE",
"66 -218 CURVE {name = hr00;}"
);
}
);
width = 264;
}
);
leftKerningGroup = period;
rightKerningGroup = period;
unicode = 002C;
},
{
glyphname = exclam;
lastChange = "2018-06-07 15:02:57 +0000";
layers = (
{
layerId = "184835E3-72D9-430C-A639-2454AC4A0BE8";
paths = (
{
closed = 1;
nodes = (
"230 146 OFFCURVE",
"190 185 OFFCURVE",
"128 185 CURVE SMOOTH",
"68 185 OFFCURVE",
"28 146 OFFCURVE",
"28 86 CURVE SMOOTH",
"28 27 OFFCURVE",
"68 -13 OFFCURVE",
"128 -13 CURVE SMOOTH",
"190 -13 OFFCURVE",
"230 27 OFFCURVE",
"230 86 CURVE SMOOTH {name = hr00;}"
);
},
{
closed = 1;
nodes = (
"219 699 LINE SMOOTH",
"220 707 OFFCURVE",
"221 714 OFFCURVE",
"221 720 CURVE SMOOTH",
"221 768 OFFCURVE",
"195 788 OFFCURVE",
"150 788 CURVE SMOOTH",
"107 788 LINE SMOOTH",
"62 788 OFFCURVE",
"37 768 OFFCURVE",
"37 720 CURVE SMOOTH",
"37 714 OFFCURVE",
"37 707 OFFCURVE",
"38 699 CURVE SMOOTH",
"87 308 LINE",
"169 308 LINE"
);
}
);
width = 257;
}
);
leftKerningGroup = exclam;
rightKerningGroup = exclam;
unicode = 0021;
userData = {
com.typemytype.robofont.guides = (
{
angle = 90;
isGlobal = 0;
magnetic = 5;
x = 429;
y = 0;
}
);
};
},
{
glyphname = exclamdown;
lastChange = "2018-06-07 15:02:57 +0000";
layers = (
{
layerId = "184835E3-72D9-430C-A639-2454AC4A0BE8";
paths = (
{
closed = 1;
nodes = (
"28 370 OFFCURVE",
"68 331 OFFCURVE",
"129 331 CURVE SMOOTH",
"190 331 OFFCURVE",
"230 370 OFFCURVE",
"230 429 CURVE SMOOTH",
"230 489 OFFCURVE",
"190 529 OFFCURVE",
"129 529 CURVE SMOOTH",
"68 529 OFFCURVE",
"28 489 OFFCURVE",
"28 429 CURVE SMOOTH {name = hr00;}"
);
},
{
closed = 1;
nodes = (
"38 -183 LINE SMOOTH",
"37 -191 OFFCURVE",
"37 -198 OFFCURVE",
"37 -204 CURVE SMOOTH",
"37 -252 OFFCURVE",
"62 -272 OFFCURVE",
"108 -272 CURVE SMOOTH",
"151 -272 LINE SMOOTH",
"195 -272 OFFCURVE",
"221 -252 OFFCURVE",
"221 -204 CURVE SMOOTH",
"221 -198 OFFCURVE",
"220 -191 OFFCURVE",
"219 -183 CURVE SMOOTH",
"170 208 LINE",
"88 208 LINE"
);
}
);
width = 257;
}
);
leftKerningGroup = exclamdown;
rightKerningGroup = exclamdown;
unicode = 00A1;
},
{
glyphname = question;
lastChange = "2018-06-07 15:02:57 +0000";
layers = (
{
layerId = "184835E3-72D9-430C-A639-2454AC4A0BE8";
paths = (
{
closed = 1;
nodes = (
"394 146 OFFCURVE",
"355 185 OFFCURVE",
"293 185 CURVE SMOOTH",
"232 185 OFFCURVE",
"193 146 OFFCURVE",
"193 86 CURVE SMOOTH",
"193 27 OFFCURVE",
"232 -13 OFFCURVE",
"293 -13 CURVE SMOOTH",
"355 -13 OFFCURVE",
"394 27 OFFCURVE",
"394 86 CURVE SMOOTH {name = hr00;}"
);
},
{
closed = 1;
nodes = (
"143 784 OFFCURVE",
"46 696 OFFCURVE",
"46 599 CURVE SMOOTH",
"46 527 OFFCURVE",
"101 489 OFFCURVE",
"149 489 CURVE SMOOTH",
"195 489 OFFCURVE",
"238 524 OFFCURVE",
"238 573 CURVE SMOOTH",
"238 616 OFFCURVE",
"204 644 OFFCURVE",
"171 655 CURVE",
"191 688 OFFCURVE",
"228 707 OFFCURVE",
"269 707 CURVE SMOOTH",
"320 707 OFFCURVE",
"360 677 OFFCURVE",
"360 604 CURVE SMOOTH",
"360 512 OFFCURVE",
"296 445 OFFCURVE",
"213 394 CURVE",
"240 267 LINE",
"336 267 LINE",
"317 371 LINE",
"440 416 OFFCURVE",
"538 493 OFFCURVE",
"538 603 CURVE SMOOTH",
"538 709 OFFCURVE",
"444 784 OFFCURVE",
"300 784 CURVE SMOOTH"
);
}
);
width = 584;
}
);
leftKerningGroup = question;
rightKerningGroup = question;
unicode = 003F;
},
{
glyphname = questiondown;
lastChange = "2018-06-07 15:02:57 +0000";
layers = (
{
layerId = "184835E3-72D9-430C-A639-2454AC4A0BE8";
paths = (
{
closed = 1;
nodes = (
"441 -272 OFFCURVE",
"538 -184 OFFCURVE",
"538 -87 CURVE SMOOTH",
"538 -15 OFFCURVE",
"483 22 OFFCURVE",
"435 22 CURVE SMOOTH",
"390 22 OFFCURVE",
"346 -12 OFFCURVE",
"346 -61 CURVE SMOOTH",
"346 -104 OFFCURVE",
"381 -132 OFFCURVE",
"414 -143 CURVE",
"394 -176 OFFCURVE",
"356 -195 OFFCURVE",
"316 -195 CURVE SMOOTH",
"264 -195 OFFCURVE",
"225 -165 OFFCURVE",
"225 -92 CURVE SMOOTH",
"225 0 OFFCURVE",
"288 67 OFFCURVE",
"371 118 CURVE",
"344 245 LINE",
"249 245 LINE",
"267 141 LINE",
"145 96 OFFCURVE",
"46 19 OFFCURVE",
"46 -91 CURVE SMOOTH",
"46 -197 OFFCURVE",
"140 -272 OFFCURVE",
"284 -272 CURVE SMOOTH"
);
},
{
closed = 1;
nodes = (
"173 370 OFFCURVE",
"213 331 OFFCURVE",
"274 331 CURVE SMOOTH",
"334 331 OFFCURVE",
"375 370 OFFCURVE",
"375 430 CURVE SMOOTH",
"375 490 OFFCURVE",
"334 529 OFFCURVE",
"274 529 CURVE SMOOTH",
"213 529 OFFCURVE",
"173 490 OFFCURVE",
"173 430 CURVE SMOOTH {name = hr00;}"
);
}
);
width = 584;
}
);
leftKerningGroup = questiondown;
rightKerningGroup = questiondown;
unicode = 00BF;
},
{
glyphname = periodcentered;
lastChange = "2018-06-07 15:02:57 +0000";
layers = (
{
layerId = "184835E3-72D9-430C-A639-2454AC4A0BE8";
paths = (
{
closed = 1;
nodes = (
"229 332 OFFCURVE",
"188 371 OFFCURVE",
"128 371 CURVE SMOOTH",
"67 371 OFFCURVE",
"26 332 OFFCURVE",
"26 272 CURVE SMOOTH",
"26 213 OFFCURVE",
"67 173 OFFCURVE",
"128 173 CURVE SMOOTH",
"188 173 OFFCURVE",
"229 213 OFFCURVE",
"229 272 CURVE SMOOTH {name = hr00;}"
);
}
);
width = 255;
}
);
leftKerningGroup = anoteleia;
rightKerningGroup = anoteleia;
unicode = 00B7;
},
{
glyphname = bullet;
lastChange = "2018-06-07 15:02:57 +0000";
layers = (
{
layerId = "184835E3-72D9-430C-A639-2454AC4A0BE8";
paths = (
{
closed = 1;
nodes = (
"351 600 OFFCURVE",
"289 661 OFFCURVE",
"194 661 CURVE SMOOTH",
"98 661 OFFCURVE",
"37 600 OFFCURVE",
"37 507 CURVE SMOOTH",
"37 414 OFFCURVE",
"98 352 OFFCURVE",
"194 352 CURVE SMOOTH",
"289 352 OFFCURVE",
"351 414 OFFCURVE",
"351 507 CURVE SMOOTH {name = hr00;}"
);
}
);
width = 388;
}
);
leftKerningGroup = bullet;
rightKerningGroup = bullet;
unicode = 2022;
},
{
glyphname = asterisk;
lastChange = "2018-06-07 15:02:57 +0000";
layers = (
{
layerId = "184835E3-72D9-430C-A639-2454AC4A0BE8";
paths = (
{
closed = 1;
nodes = (
"303 1035 OFFCURVE",
"280 1005 OFFCURVE",
"280 968 CURVE SMOOTH",
"280 955 OFFCURVE",
"283 942 OFFCURVE",
"288 929 CURVE SMOOTH",
"351 779 LINE",
"388 779 LINE",
"393 1035 LINE",
"353 1035 LINE SMOOTH {name = hr01;}"
);
},
{
closed = 1;
nodes = (
"119 843 OFFCURVE",
"118 833 OFFCURVE",
"118 825 CURVE SMOOTH",
"118 780 OFFCURVE",
"158 755 OFFCURVE",
"204 758 CURVE SMOOTH",
"367 772 LINE",
"379 807 LINE",
"135 891 LINE",
"122 853 LINE SMOOTH"
);
},
{
closed = 1;
nodes = (
"245 563 OFFCURVE",
"261 558 OFFCURVE",
"275 558 CURVE SMOOTH",
"308 558 OFFCURVE",
"334 586 OFFCURVE",
"344 623 CURVE SMOOTH",
"383 783 LINE",
"352 804 LINE",
"197 599 LINE",
"228 576 LINE SMOOTH"
);
},
{
closed = 1;
nodes = (
"551 613 OFFCURVE",
"562 633 OFFCURVE",
"562 653 CURVE SMOOTH",
"562 678 OFFCURVE",
"546 704 OFFCURVE",
"519 721 CURVE SMOOTH",
"379 805 LINE {name = hr02;}",
"349 783 LINE",
"497 574 LINE",
"528 596 LINE SMOOTH"
);
},
{
closed = 1;
nodes = (
"582 919 OFFCURVE",
"558 936 OFFCURVE",
"531 936 CURVE SMOOTH",
"512 936 OFFCURVE",
"491 927 OFFCURVE",
"473 912 CURVE SMOOTH",
"351 804 LINE",
"362 769 LINE",
"606 846 LINE",
"594 882 LINE SMOOTH"
);
}
);
width = 594;
}
);
leftKerningGroup = asterisk;
rightKerningGroup = asterisk;
unicode = 002A;
},
{
glyphname = numbersign;
lastChange = "2018-06-09 05:09:32 +0000";
layers = (
{
layerId = "184835E3-72D9-430C-A639-2454AC4A0BE8";
paths = (
{
closed = 1;
nodes = (
"188 -1 OFFCURVE",
"229 4 OFFCURVE",
"253 14 CURVE",
"362 712 LINE",
"332 712 OFFCURVE",
"290 707 OFFCURVE",
"268 698 CURVE",
"158 -1 LINE {name = hr00;}"
);
},
{
closed = 1;
nodes = (
"390 -1 OFFCURVE",
"431 4 OFFCURVE",
"455 14 CURVE",
"564 712 LINE",
"535 712 OFFCURVE",
"494 707 OFFCURVE",
"471 698 CURVE",
"361 -1 LINE"
);
},
{
closed = 1;
nodes = (
"617 226 OFFCURVE",
"627 256 OFFCURVE",
"631 285 CURVE",
"89 286 LINE",
"76 264 OFFCURVE",
"66 234 OFFCURVE",
"62 204 CURVE",
"604 205 LINE"
);
},
{
closed = 1;
nodes = (
"646 445 OFFCURVE",
"656 474 OFFCURVE",
"660 503 CURVE",
"118 504 LINE",
"106 482 OFFCURVE",
"95 451 OFFCURVE",
"91 423 CURVE",
"633 423 LINE"
);
}
);
width = 722;
}
);
leftKerningGroup = numbersign;
rightKerningGroup = numbersign;
unicode = 0023;
},
{
color = 4;
glyphname = slash;
lastChange = "2018-06-09 05:08:48 +0000";
layers = (
{
layerId = "184835E3-72D9-430C-A639-2454AC4A0BE8";
paths = (
{
closed = 1;
nodes = (
"66 -193 OFFCURVE",
"110 -207 OFFCURVE",
"135 -208 CURVE",
"434 716 LINE",
"414 735 OFFCURVE",
"371 749 OFFCURVE",
"346 750 CURVE",
"46 -175 LINE {name = hr00;}"
);
}
);
width = 480;
}
);
leftKerningGroup = slash;
rightKerningGroup = slash;
unicode = 002F;
},
{
color = 4;
glyphname = backslash;
lastChange = "2018-06-09 05:08:48 +0000";
layers = (
{
layerId = "184835E3-72D9-430C-A639-2454AC4A0BE8";
paths = (
{
closed = 1;
nodes = (
"126 724 LINE",
"45 693 LINE",
"321 -160 LINE",
"403 -129 LINE {name = hr00;}"
);
}
);
width = 447;
}
);
leftKerningGroup = backslash;
rightKerningGroup = backslash;
unicode = 005C;
},
{
glyphname = periodcentered.case;
lastChange = "2018-06-07 15:02:57 +0000";
layers = (
{
layerId = "184835E3-72D9-430C-A639-2454AC4A0BE8";
paths = (
{
closed = 1;
nodes = (
"229 682 OFFCURVE",
"188 721 OFFCURVE",
"128 721 CURVE SMOOTH",
"67 721 OFFCURVE",
"26 682 OFFCURVE",
"26 622 CURVE SMOOTH",
"26 563 OFFCURVE",
"67 523 OFFCURVE",
"128 523 CURVE SMOOTH",
"188 523 OFFCURVE",
"229 563 OFFCURVE",
"229 622 CURVE SMOOTH {name = hr00;}"
);
}
);
width = 255;
}
);
},
{
glyphname = bullet.case;
lastChange = "2018-06-07 15:02:57 +0000";
layers = (
{
layerId = "184835E3-72D9-430C-A639-2454AC4A0BE8";
paths = (
{
closed = 1;
nodes = (
"351 670 OFFCURVE",
"289 731 OFFCURVE",
"194 731 CURVE SMOOTH",
"98 731 OFFCURVE",
"37 670 OFFCURVE",
"37 577 CURVE SMOOTH",
"37 484 OFFCURVE",
"98 422 OFFCURVE",
"194 422 CURVE SMOOTH",
"289 422 OFFCURVE",
"351 484 OFFCURVE",
"351 577 CURVE SMOOTH {name = hr00;}"
);
}
);
width = 388;
}
);
},
{
glyphname = periodcentered.loclCAT.case;
lastChange = "2018-06-07 15:02:57 +0000";
layers = (
{
layerId = "184835E3-72D9-430C-A639-2454AC4A0BE8";
paths = (
{
closed = 1;
nodes = (
"229 682 OFFCURVE",
"188 721 OFFCURVE",
"128 721 CURVE SMOOTH",
"67 721 OFFCURVE",
"26 682 OFFCURVE",
"26 622 CURVE SMOOTH",
"26 563 OFFCURVE",
"67 523 OFFCURVE",
"128 523 CURVE SMOOTH",
"188 523 OFFCURVE",
"229 563 OFFCURVE",
"229 622 CURVE SMOOTH {name = hr00;}"
);
}
);
width = 255;
}
);
},
{
glyphname = slash.case;
lastChange = "2018-06-07 15:02:57 +0000";
layers = (
{
layerId = "184835E3-72D9-430C-A639-2454AC4A0BE8";
paths = (
{
closed = 1;
nodes = (
"66 -193 OFFCURVE",
"110 -207 OFFCURVE",
"135 -208 CURVE",
"434 716 LINE",
"414 735 OFFCURVE",
"371 749 OFFCURVE",
"346 750 CURVE",
"46 -175 LINE {name = hr00;}"
);
}
);
width = 480;
}
);
},
{
glyphname = backslash.case;
lastChange = "2018-06-07 15:02:57 +0000";
layers = (
{
layerId = "184835E3-72D9-430C-A639-2454AC4A0BE8";
paths = (
{
closed = 1;
nodes = (
"126 724 LINE",
"45 693 LINE",
"321 -160 LINE",
"403 -129 LINE {name = hr00;}"
);
}
);
width = 447;
}
);
},
{
glyphname = periodcentered.loclCAT;
lastChange = "2018-06-07 15:02:57 +0000";
layers = (
{
layerId = "184835E3-72D9-430C-A639-2454AC4A0BE8";
paths = (
{
closed = 1;
nodes = (
"229 682 OFFCURVE",
"188 721 OFFCURVE",
"128 721 CURVE SMOOTH",
"67 721 OFFCURVE",
"26 682 OFFCURVE",
"26 622 CURVE SMOOTH",
"26 563 OFFCURVE",
"67 523 OFFCURVE",
"128 523 CURVE SMOOTH",
"188 523 OFFCURVE",
"229 563 OFFCURVE",
"229 622 CURVE SMOOTH {name = hr00;}"
);
}
);
width = 255;
}
);
},
{
color = 4;
glyphname = parenleft;
lastChange = "2018-06-09 05:08:42 +0000";
layers = (
{
layerId = "184835E3-72D9-430C-A639-2454AC4A0BE8";
paths = (
{
closed = 1;
nodes = (
"208 520 OFFCURVE",
"285 732 OFFCURVE",
"405 767 CURVE",
"405 810 LINE",
"181 801 OFFCURVE",
"42 571 OFFCURVE",
"42 332 CURVE SMOOTH",
"42 93 OFFCURVE",
"181 -137 OFFCURVE",
"405 -146 CURVE",
"405 -104 LINE",
"285 -68 OFFCURVE",
"208 144 OFFCURVE",
"208 332 CURVE SMOOTH {name = hr00;}"
);
}
);
width = 442;
}
);
leftKerningGroup = parenleft;
rightKerningGroup = parenleft;
unicode = 0028;
},
{
color = 4;
glyphname = parenright;
lastChange = "2018-06-09 05:08:42 +0000";
layers = (
{
layerId = "184835E3-72D9-430C-A639-2454AC4A0BE8";
paths = (
{
closed = 1;
nodes = (
"234 144 OFFCURVE",
"157 -68 OFFCURVE",
"37 -104 CURVE",
"37 -146 LINE",
"261 -137 OFFCURVE",
"400 93 OFFCURVE",
"400 332 CURVE SMOOTH",
"400 571 OFFCURVE",
"261 801 OFFCURVE",
"37 810 CURVE",
"37 767 LINE",
"157 732 OFFCURVE",
"234 520 OFFCURVE",
"234 332 CURVE SMOOTH {name = hr00;}"
);
}
);
width = 442;
}
);
leftKerningGroup = parenright;
rightKerningGroup = parenright;
unicode = 0029;
},
{
color = 4;
glyphname = braceleft;
lastChange = "2018-06-09 05:08:42 +0000";
layers = (
{
layerId = "184835E3-72D9-430C-A639-2454AC4A0BE8";
paths = (
{
closed = 1;
nodes = (
"243 357 OFFCURVE",
"285 406 OFFCURVE",
"285 478 CURVE SMOOTH",
"285 601 LINE SMOOTH",
"285 708 OFFCURVE",
"328 741 OFFCURVE",
"397 741 CURVE SMOOTH",
"433 741 LINE",
"444 761 OFFCURVE",
"449 780 OFFCURVE",
"449 803 CURVE",
"394 803 LINE SMOOTH",
"206 803 OFFCURVE",
"120 703 OFFCURVE",
"120 539 CURVE SMOOTH",
"120 445 LINE SMOOTH",
"120 389 OFFCURVE",
"81 349 OFFCURVE",
"44 349 CURVE",
"44 300 LINE",
"81 300 OFFCURVE",
"120 260 OFFCURVE",
"120 205 CURVE SMOOTH",
"120 110 LINE SMOOTH",
"120 -54 OFFCURVE",
"206 -154 OFFCURVE",
"394 -154 CURVE SMOOTH",
"449 -154 LINE",
"449 -131 OFFCURVE",
"444 -112 OFFCURVE",
"433 -91 CURVE",
"397 -91 LINE SMOOTH",
"328 -91 OFFCURVE",
"285 -59 OFFCURVE",
"285 48 CURVE SMOOTH",
"285 171 LINE SMOOTH",
"285 243 OFFCURVE",
"243 292 OFFCURVE",
"161 325 CURVE {name = hr00;}"
);
}
);
width = 490;
}
);
leftKerningGroup = braceleft;
rightKerningGroup = braceleft;
unicode = 007B;
userData = {
com.typemytype.robofont.guides = (
{
angle = 0;
isGlobal = 0;
magnetic = 5;
x = 0;
y = 934;
}
);
};
},
{
color = 4;
glyphname = braceright;
lastChange = "2018-06-09 05:08:42 +0000";
layers = (
{
layerId = "184835E3-72D9-430C-A639-2454AC4A0BE8";
paths = (
{
closed = 1;
nodes = (
"247 292 OFFCURVE",
"205 243 OFFCURVE",
"205 171 CURVE SMOOTH",
"205 48 LINE SMOOTH",
"205 -59 OFFCURVE",
"162 -91 OFFCURVE",
"93 -91 CURVE SMOOTH",
"57 -91 LINE",
"46 -112 OFFCURVE",
"41 -131 OFFCURVE",
"41 -154 CURVE",
"96 -154 LINE SMOOTH",
"284 -154 OFFCURVE",
"370 -54 OFFCURVE",
"370 110 CURVE SMOOTH",
"370 205 LINE SMOOTH",
"370 260 OFFCURVE",
"409 300 OFFCURVE",
"446 300 CURVE",
"446 349 LINE",
"409 349 OFFCURVE",
"370 389 OFFCURVE",
"370 445 CURVE SMOOTH",
"370 539 LINE SMOOTH",
"370 703 OFFCURVE",
"284 803 OFFCURVE",
"96 803 CURVE SMOOTH",
"41 803 LINE",
"41 780 OFFCURVE",
"46 761 OFFCURVE",
"57 741 CURVE",
"93 741 LINE SMOOTH",
"162 741 OFFCURVE",
"205 708 OFFCURVE",
"205 601 CURVE SMOOTH",
"205 478 LINE SMOOTH",
"205 406 OFFCURVE",
"247 357 OFFCURVE",
"329 325 CURVE {name = hr00;}"
);
}
);
width = 490;
}
);
leftKerningGroup = braceright;
rightKerningGroup = braceright;
unicode = 007D;
},
{
color = 4;
glyphname = bracketleft;
lastChange = "2018-06-09 05:08:42 +0000";
layers = (
{
layerId = "184835E3-72D9-430C-A639-2454AC4A0BE8";
paths = (
{
closed = 1;
nodes = (
"284 731 LINE",
"295 755 OFFCURVE",
"300 773 OFFCURVE",
"300 800 CURVE",
"34 800 LINE",
"34 -154 LINE",
"300 -154 LINE",
"300 -127 OFFCURVE",
"295 -108 OFFCURVE",
"284 -85 CURVE",
"185 -85 LINE",
"185 731 LINE {name = hr00;}"
);
}
);
width = 329;
}
);
leftKerningGroup = bracketleft;
rightKerningGroup = bracketleft;
unicode = 005B;
},
{
color = 4;
glyphname = bracketright;
lastChange = "2018-06-09 05:08:42 +0000";
layers = (
{
layerId = "184835E3-72D9-430C-A639-2454AC4A0BE8";
paths = (
{
closed = 1;
nodes = (
"144 -85 LINE",
"45 -85 LINE",
"34 -108 OFFCURVE",
"29 -127 OFFCURVE",
"29 -154 CURVE",
"295 -154 LINE",
"295 800 LINE",
"29 800 LINE",
"29 773 OFFCURVE",
"34 755 OFFCURVE",
"45 731 CURVE",
"144 731 LINE {name = hr00;}"
);
}
);
width = 329;
}
);
leftKerningGroup = bracketright;
rightKerningGroup = bracketright;
unicode = 005D;
},
{
glyphname = parenright.case;
lastChange = "2018-06-07 15:02:57 +0000";
layers = (
{
layerId = "184835E3-72D9-430C-A639-2454AC4A0BE8";
paths = (
{
closed = 1;
nodes = (
"218 176 OFFCURVE",
"146 -10 OFFCURVE",
"35 -41 CURVE",
"35 -78 LINE",
"243 -71 OFFCURVE",
"370 131 OFFCURVE",
"370 341 CURVE SMOOTH",
"370 552 OFFCURVE",
"243 754 OFFCURVE",
"35 761 CURVE",
"35 723 LINE",
"146 692 OFFCURVE",
"218 507 OFFCURVE",
"218 341 CURVE SMOOTH {name = hr00;}"
);
}
);
width = 388;
}
);
},
{
glyphname = braceleft.case;
lastChange = "2018-06-07 15:02:57 +0000";
layers = (
{
layerId = "184835E3-72D9-430C-A639-2454AC4A0BE8";
paths = (
{
closed = 1;
nodes = (
"243 355 OFFCURVE",
"285 401 OFFCURVE",
"285 468 CURVE SMOOTH",
"285 583 LINE SMOOTH",
"285 683 OFFCURVE",
"328 713 OFFCURVE",
"397 713 CURVE SMOOTH",
"433 713 LINE",
"444 732 OFFCURVE",
"449 750 OFFCURVE",
"449 771 CURVE",
"394 771 LINE SMOOTH",
"206 771 OFFCURVE",
"120 678 OFFCURVE",
"120 525 CURVE SMOOTH",
"120 437 LINE SMOOTH",
"120 385 OFFCURVE",
"81 347 OFFCURVE",
"44 347 CURVE",
"44 302 LINE",
"81 302 OFFCURVE",
"120 264 OFFCURVE",
"120 213 CURVE SMOOTH",
"120 124 LINE SMOOTH",
"120 -29 OFFCURVE",
"206 -122 OFFCURVE",
"394 -122 CURVE SMOOTH",
"449 -122 LINE",
"449 -101 OFFCURVE",
"444 -83 OFFCURVE",
"433 -63 CURVE",
"397 -63 LINE SMOOTH",
"328 -63 OFFCURVE",
"285 -34 OFFCURVE",
"285 66 CURVE SMOOTH",
"285 181 LINE SMOOTH",
"285 248 OFFCURVE",
"243 294 OFFCURVE",
"161 325 CURVE {name = hr00;}"
);
}
);
width = 465;
}
);
},
{
glyphname = braceright.case;
lastChange = "2018-06-07 15:02:57 +0000";
layers = (
{
layerId = "184835E3-72D9-430C-A639-2454AC4A0BE8";
paths = (
{
closed = 1;
nodes = (
"229 305 OFFCURVE",
"191 263 OFFCURVE",
"191 201 CURVE SMOOTH",
"191 95 LINE SMOOTH",
"191 2 OFFCURVE",
"150 -25 OFFCURVE",
"87 -25 CURVE SMOOTH",
"53 -25 LINE",
"44 -43 OFFCURVE",
"39 -59 OFFCURVE",
"39 -79 CURVE",
"90 -79 LINE SMOOTH",
"263 -79 OFFCURVE",
"342 7 OFFCURVE",
"342 149 CURVE SMOOTH",
"342 230 LINE SMOOTH",
"342 277 OFFCURVE",
"378 313 OFFCURVE",
"413 313 CURVE",
"413 353 LINE",
"378 353 OFFCURVE",
"342 389 OFFCURVE",
"342 437 CURVE SMOOTH",
"342 518 LINE SMOOTH",
"342 659 OFFCURVE",
"263 745 OFFCURVE",
"90 745 CURVE SMOOTH",
"39 745 LINE",
"39 726 OFFCURVE",
"44 709 OFFCURVE",
"53 691 CURVE",
"87 691 LINE SMOOTH",
"150 691 OFFCURVE",
"191 663 OFFCURVE",
"191 572 CURVE SMOOTH",
"191 466 LINE SMOOTH",
"191 404 OFFCURVE",
"229 361 OFFCURVE",
"305 333 CURVE {name = hr00;}"
);
}
);
width = 430;
}
);
},
